<?xml version="1.0" standalone="no"?>
<!DOCTYPE svg PUBLIC "-//W3C//DTD SVG 1.1//EN" "http://www.w3.org/Graphics/SVG/1.1/DTD/svg11.dtd" >
<svg xmlns="http://www.w3.org/2000/svg" xmlns:xlink="http://www.w3.org/1999/xlink" version="1.1">
<metadata>
Created by FontForge 20170731 at Fri Sep 10 17:08:20 2021
 By Aleksey,,,
(c) 2012-2019, Copyright by Lineto GmbH. All rights reserved.
</metadata>
<defs>
<font id="Unica_77LL-Regular" horiz-adv-x="630" >
  <font-face 
    font-family="Unica 77 LL"
    font-weight="400"
    font-stretch="normal"
    units-per-em="1000"
    panose-1="2 11 5 4 1 1 1 1 1 4"
    ascent="800"
    descent="-200"
    x-height="516"
    cap-height="726"
    bbox="-433 -255 1395 1015"
    underline-thickness="50"
    underline-position="-200"
    unicode-range="U+000D-FEFF"
  />
<missing-glyph horiz-adv-x="651" 
d="M564 0h-477v726h477v-726zM144 53h363v620h-363v-620z" />
    <glyph glyph-name="f_f" unicode="ff" horiz-adv-x="598" 
d="M109 0v440h-95v76h95v26q0 77 14 113q31 77 130 77q36 0 61 -6v-76q-20 4 -44 4q-44 0 -56.5 -25.5t-12.5 -91.5v-21h180v26q0 77 14 113q31 77 130 77q36 0 61 -6v-76q-20 4 -44 4q-44 0 -56.5 -25.5t-12.5 -91.5v-21h113v-76h-113v-440h-92v440h-180v-440h-92z" />
    <glyph glyph-name="f_f_i" unicode="ffi" horiz-adv-x="819" 
d="M652 0v516h92v-516h-92zM652 626v100h92v-100h-92zM109 0v440h-95v76h95v26q0 77 14 113q31 77 130 77q36 0 61 -6v-76q-20 4 -44 4q-44 0 -56.5 -25.5t-12.5 -91.5v-21h180v26q0 77 14 113q31 77 130 77q36 0 61 -6v-76q-20 4 -44 4q-44 0 -56.5 -25.5t-12.5 -91.5v-21
h113v-76h-113v-440h-92v440h-180v-440h-92z" />
    <glyph glyph-name="f_f_l" unicode="ffl" horiz-adv-x="819" 
d="M652 0v726h92v-726h-92zM109 0v440h-95v76h95v26q0 77 14 113q31 77 130 77q36 0 61 -6v-76q-20 4 -44 4q-44 0 -56.5 -25.5t-12.5 -91.5v-21h180v26q0 77 14 113q31 77 130 77q36 0 61 -6v-76q-20 4 -44 4q-44 0 -56.5 -25.5t-12.5 -91.5v-21h113v-76h-113v-440h-92v440
h-180v-440h-92z" />
    <glyph glyph-name="f_i" unicode="fi" horiz-adv-x="543" 
d="M109 0v440h-95v76h95v26q0 77 14 113q31 77 130 77q36 0 61 -6v-76q-20 4 -44 4q-44 0 -56.5 -25.5t-12.5 -91.5v-21h113v-76h-113v-440h-92zM376 0v516h92v-516h-92zM376 626v100h92v-100h-92z" />
    <glyph glyph-name="f_l" unicode="fl" horiz-adv-x="543" 
d="M109 0v440h-95v76h95v26q0 77 14 113q31 77 130 77q36 0 61 -6v-76q-20 4 -44 4q-44 0 -56.5 -25.5t-12.5 -91.5v-21h113v-76h-113v-440h-92zM376 0v726h92v-726h-92z" />
    <glyph glyph-name=".notdef" horiz-adv-x="651" 
d="M564 0h-477v726h477v-726zM144 53h363v620h-363v-620z" />
    <glyph glyph-name=".null" horiz-adv-x="0" 
 />
    <glyph glyph-name=".null" horiz-adv-x="0" 
 />
    <glyph glyph-name="uni000D" unicode="&#xd;" horiz-adv-x="200" 
 />
    <glyph glyph-name="space" unicode=" " horiz-adv-x="200" 
 />
    <glyph glyph-name="exclam" unicode="!" horiz-adv-x="262" 
d="M78 114h106v-114h-106v114zM76 726h109l-18 -529h-73z" />
    <glyph glyph-name="quotedbl" unicode="&#x22;" horiz-adv-x="384" 
d="M47 683h120l-28 -285h-63zM217 683h120l-28 -285h-63z" />
    <glyph glyph-name="numbersign" unicode="#" horiz-adv-x="608" 
d="M318 204h-109l-58 -204h-72l58 204h-111l15 56h112l49 173h-114l15 56h115l56 194h73l-56 -194h109l57 194h71l-56 -194h110l-15 -56h-111l-50 -173h114l-15 -56h-115l-59 -204h-72zM225 260h109l50 173h-109z" />
    <glyph glyph-name="dollar" unicode="$" horiz-adv-x="576" 
d="M255 -101v94q-100 10 -157 69t-62 160h95q4 -64 36.5 -103t87.5 -47v234l-21 7q-41 13 -70 27t-57.5 36t-43 54t-14.5 73q0 78 58.5 129.5t152.5 57.5v82h62v-82q91 -8 146.5 -62t60.5 -145h-94q-5 55 -36.5 87t-76.5 40v-226l24 -8q45 -15 72 -27t59 -34.5t47.5 -55
t15.5 -76.5q0 -82 -60.5 -133.5t-162.5 -58.5v-92h-62zM144 509q0 -44 30 -69.5t86 -42.5v215q-49 -2 -82.5 -30t-33.5 -73zM442 177q0 81 -125 117v-223q58 2 91.5 30t33.5 76z" />
    <glyph glyph-name="percent" unicode="%" horiz-adv-x="900" 
d="M191 694q72 0 112.5 -55t40.5 -155q0 -98 -43 -151t-113 -53q-71 0 -112 53t-41 151t43 154t113 56zM191 644q-40 0 -61 -42t-21 -118q0 -74 21 -114.5t61 -40.5q38 0 59 40.5t21 114.5q0 75 -21 117.5t-59 42.5zM599 697h65l-369 -711h-64zM712 403q72 0 112.5 -55
t40.5 -155q0 -98 -43 -151t-113 -53q-71 0 -112 53t-41 151t43 154t113 56zM712 353q-40 0 -61 -42t-21 -118q0 -74 21 -114.5t61 -40.5q38 0 59 40.5t21 114.5q0 75 -21 117.5t-59 42.5z" />
    <glyph glyph-name="ampersand" unicode="&#x26;" horiz-adv-x="705" 
d="M648 377q-16 -127 -78 -229l137 -148h-126l-69 75q-92 -90 -221 -90q-108 0 -179.5 58t-71.5 148q0 68 39.5 118.5t120.5 93.5q-46 46 -66.5 86t-20.5 89q0 71 55 117t140 46q82 0 137 -44.5t55 -109.5q0 -112 -149 -199l158 -173q30 64 42 162h97zM299 64q94 0 159 70
l-195 215q-118 -53 -118 -152q0 -60 42.5 -96.5t111.5 -36.5zM292 435q109 62 109 139q0 40 -26.5 65.5t-68.5 25.5q-40 0 -67.5 -25t-27.5 -63q0 -69 81 -142z" />
    <glyph glyph-name="quotesingle" unicode="'" horiz-adv-x="214" 
d="M47 683h120l-28 -285h-63z" />
    <glyph glyph-name="parenleft" unicode="(" horiz-adv-x="270" 
d="M167 -106q-123 222 -123 428q0 175 124 418h71q-58 -134 -83.5 -223t-25.5 -195q0 -201 109 -428h-72z" />
    <glyph glyph-name="parenright" unicode=")" horiz-adv-x="270" 
d="M31 -106q109 227 109 428q0 106 -25.5 195t-83.5 223h71q124 -243 124 -418q0 -206 -123 -428h-72z" />
    <glyph glyph-name="asterisk" unicode="*" horiz-adv-x="403" 
d="M60 654l119 -61l-18 133h84l-20 -133l118 61l28 -83l-132 -21l92 -96l-70 -49l-61 120l-60 -120l-70 49l91 96l-128 21z" />
    <glyph glyph-name="plus" unicode="+" 
d="M76 231v77h196v208h84v-208h197v-77h-197v-208h-84v208h-196z" />
    <glyph glyph-name="comma" unicode="," horiz-adv-x="226" 
d="M114 -138h-60l47 147h-47v110h117v-119z" />
    <glyph glyph-name="hyphen" unicode="-" horiz-adv-x="387" 
d="M61 325h265v-81h-265v81z" />
    <glyph glyph-name="period" unicode="." horiz-adv-x="225" 
d="M55 119h115v-119h-115v119z" />
    <glyph glyph-name="slash" unicode="/" horiz-adv-x="381" 
d="M103 0h-80l258 726h79z" />
    <glyph glyph-name="zero" unicode="0" horiz-adv-x="602" 
d="M300 698q117 0 183.5 -92.5t66.5 -263.5q0 -174 -66 -265.5t-184 -91.5q-117 0 -183 93t-66 264t66 263.5t183 92.5zM300 622q-151 0 -151 -280q0 -281 151 -281q75 0 113 72.5t38 208.5q0 280 -151 280z" />
    <glyph glyph-name="one" unicode="1" horiz-adv-x="354" 
d="M175 496h-152v65q86 5 122.5 31.5t43.5 90.5h78v-683h-92v496z" />
    <glyph glyph-name="two" unicode="2" horiz-adv-x="553" 
d="M48 0v29q0 106 53 173q44 55 153 123q86 53 119 91.5t33 89.5q0 55 -35 85.5t-92 30.5q-65 0 -100.5 -39.5t-38.5 -116.5h-93q1 109 67 170.5t173 61.5q98 0 156.5 -55t58.5 -142q0 -67 -41 -120t-140 -116q-97 -61 -129 -97q-35 -38 -40 -87h354v-81h-458z" />
    <glyph glyph-name="three" unicode="3" horiz-adv-x="584" 
d="M142 216q0 -73 39 -114t109 -41q63 0 103.5 36t40.5 92q0 57 -39.5 89t-110.5 32h-32v77h22q73 0 112.5 31t39.5 87q0 54 -36.5 85.5t-98.5 31.5q-66 0 -104 -38t-40 -107h-95q4 105 68.5 163t175.5 58q101 0 164 -51.5t63 -133.5q0 -56 -35 -101t-89 -58v-5
q65 -16 99 -58.5t34 -107.5q0 -87 -70 -142.5t-177 -55.5q-111 0 -176 62.5t-65 168.5h98z" />
    <glyph glyph-name="four" unicode="4" horiz-adv-x="579" 
d="M553 173h-123v-173h-93v173h-313v76l299 434h107v-431h123v-79zM122 252h220v135q0 129 5 191l-7 1q-26 -47 -66 -105z" />
    <glyph glyph-name="five" unicode="5" horiz-adv-x="568" 
d="M93 683h393v-80h-316l-24 -217q37 38 73 55t86 17q97 0 160 -65.5t63 -166.5q0 -105 -68.5 -173t-175.5 -68q-99 0 -162.5 53t-75.5 144h96q7 -56 45 -88.5t96 -32.5q67 0 107.5 43.5t40.5 116.5q0 71 -40 116t-104 45q-104 0 -134 -95l-98 9z" />
    <glyph glyph-name="six" unicode="6" horiz-adv-x="585" 
d="M431 510q-12 112 -120 112q-77 0 -121 -68t-44 -183v-25q58 101 174 101q90 0 153 -61t63 -164q0 -109 -68 -173t-173 -64q-117 0 -180.5 91t-63.5 256q0 172 68.5 269t191.5 97q94 0 151 -49.5t67 -138.5h-98zM307 371q-62 0 -103.5 -43t-41.5 -108q0 -70 41.5 -115
t103.5 -45q60 0 97.5 44.5t37.5 113.5t-36.5 111t-98.5 42z" />
    <glyph glyph-name="seven" unicode="7" horiz-adv-x="509" 
d="M136 0q55 267 247 602h-360v81h461v-69q-191 -334 -245 -614h-103z" />
    <glyph glyph-name="eight" unicode="8" horiz-adv-x="590" 
d="M296 -15q-109 0 -178 55t-69 142q0 136 143 170v5q-59 13 -91.5 54.5t-32.5 100.5q0 83 62.5 134.5t165.5 51.5q101 0 163.5 -51.5t62.5 -134.5q0 -59 -32 -100.5t-92 -54.5v-5q143 -34 143 -170q0 -86 -68.5 -141.5t-176.5 -55.5zM296 59q65 0 106 36.5t41 92.5
q0 58 -40.5 92.5t-106.5 34.5q-67 0 -107.5 -34.5t-40.5 -92.5q0 -56 41 -92.5t107 -36.5zM296 392q60 0 96.5 31.5t36.5 84.5q0 52 -36 84t-97 32q-62 0 -98.5 -32t-36.5 -84q0 -53 37 -84.5t98 -31.5z" />
    <glyph glyph-name="nine" unicode="9" horiz-adv-x="581" 
d="M147 171q7 -53 42 -81.5t89 -28.5q76 0 116 65.5t40 184.5v39q-55 -94 -167 -94q-99 0 -160 60t-61 160q0 96 68.5 159t168.5 63q120 0 183 -90t63 -256q0 -176 -64 -271.5t-184 -95.5q-97 0 -158.5 49.5t-69.5 136.5h94zM276 623q-61 0 -99.5 -41t-38.5 -106
q0 -63 38 -104t97 -41q62 0 103.5 41t41.5 102q0 65 -40.5 107t-101.5 42z" />
    <glyph glyph-name="colon" unicode=":" horiz-adv-x="237" 
d="M61 119h115v-119h-115v119zM61 516h115v-119h-115v119z" />
    <glyph glyph-name="semicolon" unicode=";" horiz-adv-x="240" 
d="M121 -138h-60l47 147h-47v110h117v-119zM63 516h115v-119h-115v119z" />
    <glyph glyph-name="less" unicode="&#x3c;" 
d="M75 307l470 213v-85l-385 -166l385 -171v-84l-470 215v78z" />
    <glyph glyph-name="equal" unicode="=" 
d="M77 143v78h477v-78h-477zM77 330v78h477v-78h-477z" />
    <glyph glyph-name="greater" unicode="&#x3e;" 
d="M555 229l-470 -215v84l385 171l-385 166v85l470 -213v-78z" />
    <glyph glyph-name="question" unicode="?" horiz-adv-x="512" 
d="M184 0v108h108v-108h-108zM192 190v18q0 77 22.5 118t100.5 109q65 56 65 117q0 55 -35 84.5t-87 29.5q-56 0 -96 -37.5t-40 -112.5h-96q1 106 72 165.5t166 59.5q89 0 153.5 -49.5t64.5 -138.5q0 -52 -24.5 -90.5t-70.5 -78.5q-35 -31 -53 -50t-35.5 -54t-17.5 -73v-17
h-89z" />
    <glyph glyph-name="at" unicode="@" horiz-adv-x="884" 
d="M451 469q-52 0 -88 -60.5t-36 -131.5q0 -55 21.5 -85t54.5 -30q41 0 71.5 38.5t43 86t12.5 91.5q0 38 -20.5 64.5t-58.5 26.5zM742 -30q-148 -86 -303 -86q-169 0 -283.5 111t-114.5 300q0 180 120.5 301.5t313.5 121.5q76 0 144 -21.5t122 -63t85.5 -108.5t31.5 -150
q0 -130 -65.5 -204t-166.5 -74q-35 0 -66.5 16.5t-36.5 61.5q-33 -46 -64.5 -62t-69.5 -16q-144 0 -144 180q0 104 57 179t143 75q87 0 111 -63l10 48h83q-57 -213 -57 -292q0 -61 50 -61q56 0 98 55.5t42 157.5q0 130 -92.5 203.5t-224.5 73.5q-149 0 -248.5 -98
t-99.5 -253q0 -156 98 -253.5t233 -97.5q131 0 257 76z" />
    <glyph glyph-name="A" unicode="A" horiz-adv-x="696" 
d="M3 0l295 726h99l298 -726h-107l-84 211h-318l-79 -211h-104zM218 291h257l-69 187q-6 15 -26.5 69.5t-30.5 83.5h-4q-35 -102 -54 -151z" />
    <glyph glyph-name="B" unicode="B" horiz-adv-x="646" 
d="M87 0v726h214q48 0 79.5 -2t73 -13t66.5 -30t43 -56.5t18 -89.5q0 -56 -33 -101t-92 -61v-2q72 -16 108 -56.5t36 -114.5q0 -51 -19 -88.5t-48 -58.5t-72 -33.5t-81.5 -16t-86.5 -3.5h-206zM185 79h109q48 0 80 3.5t63 15.5t46.5 38t15.5 66q0 74 -49 100t-169 26h-96
v-249zM185 407h91q24 0 37.5 0.5t38.5 2.5t40.5 6.5t34.5 13t30 21t18.5 31.5t7.5 44q0 32 -10.5 55t-26.5 35.5t-43.5 19.5t-52.5 8.5t-63 1.5h-102v-239z" />
    <glyph glyph-name="C" unicode="C" horiz-adv-x="700" 
d="M375 -15q-104 0 -179.5 51t-112 135.5t-36.5 191.5q0 163 87 270.5t239 107.5q124 0 202.5 -70t89.5 -182h-101q-13 83 -62.5 128.5t-128.5 45.5q-101 0 -162.5 -82.5t-61.5 -217.5t62.5 -217.5t163.5 -82.5q77 0 127 47.5t64 130.5h102q-18 -113 -96 -184.5t-197 -71.5z
" />
    <glyph glyph-name="D" unicode="D" horiz-adv-x="710" 
d="M87 0v726h210q148 0 225 -53q68 -48 104.5 -128.5t36.5 -181.5q0 -99 -38.5 -179t-108.5 -128q-82 -56 -219 -56h-210zM185 80h99q130 0 192 55q40 34 62 95t22 133q0 73 -20.5 134.5t-59.5 95.5q-60 53 -196 53h-99v-566z" />
    <glyph glyph-name="E" unicode="E" horiz-adv-x="598" 
d="M87 0v726h452v-81h-354v-233h338v-82h-338v-249h371v-81h-469z" />
    <glyph glyph-name="F" unicode="F" horiz-adv-x="575" 
d="M87 0v726h459v-81h-361v-245h337v-81h-337v-319h-98z" />
    <glyph glyph-name="G" unicode="G" horiz-adv-x="722" 
d="M358 -12q-154 0 -232.5 104t-78.5 271q0 163 89 270.5t241 107.5q121 0 195.5 -62t88.5 -164h-101q-13 70 -61.5 109t-121.5 39q-102 0 -165 -82.5t-63 -217.5t59.5 -216t160.5 -81q89 0 143.5 63t55.5 165h-178v82h273v-376h-86v30q0 44 3 63l-5 2q-74 -107 -217 -107z
" />
    <glyph glyph-name="H" unicode="H" horiz-adv-x="745" 
d="M87 0v726h98v-311h374v311h99v-726h-99v334h-374v-334h-98z" />
    <glyph glyph-name="I" unicode="I" horiz-adv-x="272" 
d="M87 0v726h98v-726h-98z" />
    <glyph glyph-name="J" unicode="J" horiz-adv-x="362" 
d="M97 -8q-41 0 -82 8v84q29 -6 66 -6q57 0 79.5 33t22.5 123v492h98v-503q0 -118 -42 -174.5t-142 -56.5z" />
    <glyph glyph-name="K" unicode="K" horiz-adv-x="620" 
d="M87 0v726h98v-324l300 324h116l-318 -334l344 -392h-126l-316 369v-369h-98z" />
    <glyph glyph-name="L" unicode="L" horiz-adv-x="553" 
d="M87 0v726h98v-644h355v-82h-453z" />
    <glyph glyph-name="M" unicode="M" horiz-adv-x="928" 
d="M87 0v726h151l178 -468q32 -83 51 -151h5q14 62 46 151l171 468h152v-726h-92v415q0 37 2 110.5t2 107.5h-5l-232 -633h-106l-233 633h-5q0 -8 2.5 -95.5t2.5 -122.5v-415h-90z" />
    <glyph glyph-name="N" unicode="N" horiz-adv-x="749" 
d="M87 0v726h134q305 -529 351 -624h5q-6 158 -6 262v362h91v-726h-132q-310 544 -355 633h-5q7 -189 7 -271v-362h-90z" />
    <glyph glyph-name="O" unicode="O" horiz-adv-x="763" 
d="M381 -15q-151 0 -242.5 104.5t-91.5 273.5q0 168 91.5 273t242.5 105t243 -105t92 -273q0 -171 -91.5 -274.5t-243.5 -103.5zM381 63q105 0 169 84.5t64 215.5t-64 215.5t-169 84.5q-104 0 -168 -84.5t-64 -215.5t64 -215.5t168 -84.5z" />
    <glyph glyph-name="P" unicode="P" horiz-adv-x="625" 
d="M87 0v726h220q132 0 194 -32q47 -24 72 -74t25 -113q0 -128 -98 -186q-57 -35 -199 -35h-116v-286h-98zM185 366h126q87 0 117 15q33 17 51 51t18 75t-18 74.5t-51 50.5q-27 14 -117 14h-126v-280z" />
    <glyph glyph-name="Q" unicode="Q" horiz-adv-x="763" 
d="M665 -52l-95 93q-81 -56 -189 -56q-151 0 -242.5 104.5t-91.5 273.5q0 168 91.5 273t242.5 105t243 -105t92 -273q0 -162 -85 -266l91 -88zM381 63q69 0 124 41l-90 89l59 58l88 -86q52 82 52 198q0 131 -64 215.5t-169 84.5q-104 0 -168 -84.5t-64 -215.5t64 -215.5
t168 -84.5z" />
    <glyph glyph-name="R" unicode="R" horiz-adv-x="648" 
d="M87 0v726h215q91 0 141 -15q62 -19 99 -66.5t37 -122.5q0 -65 -43.5 -115.5t-114.5 -66.5v-3q90 -5 122 -104l76 -233h-105l-65 206q-11 34 -26.5 54t-42.5 28.5t-48.5 10.5t-65.5 2h-81v-301h-98zM185 381h83q44 0 76 4t65.5 16.5t51.5 40.5t18 71q0 106 -108 127
q-31 6 -103 6h-83v-265z" />
    <glyph glyph-name="S" unicode="S" horiz-adv-x="623" 
d="M315 -15q-129 0 -201.5 66t-72.5 187h99q0 -85 45 -130t130 -45q76 0 119.5 34t43.5 91q0 26 -11.5 47.5t-26 34.5t-43.5 25.5t-49 18.5t-58 16q-43 12 -69 20.5t-62 26t-55.5 38t-34 53t-14.5 74.5q0 88 72 143.5t185 55.5q119 0 187 -61.5t68 -169.5h-96q0 75 -47 114
t-114 39q-62 0 -107 -30t-45 -85q0 -26 10.5 -46t23.5 -32.5t41.5 -25t47 -18t56.5 -16.5q45 -12 71 -20.5t64 -27t58.5 -39t36 -54t15.5 -75.5q0 -94 -74 -151.5t-193 -57.5z" />
    <glyph glyph-name="T" unicode="T" horiz-adv-x="599" 
d="M250 0v645h-239v81h577v-81h-239v-645h-99z" />
    <glyph glyph-name="U" unicode="U" horiz-adv-x="704" 
d="M351 -15q-183 0 -243 133q-28 63 -28 188v420h98v-418q0 -75 9 -116.5t32 -70.5q48 -59 132 -59q41 0 77.5 16.5t56.5 42.5q41 54 41 187v418h98v-420q0 -145 -42 -211q-33 -52 -93 -81t-138 -29z" />
    <glyph glyph-name="V" unicode="V" horiz-adv-x="642" 
d="M265 0l-256 726h109l158 -468q9 -26 23.5 -76t22.5 -74h6q24 73 47 150l163 468h99l-264 -726h-108z" />
    <glyph glyph-name="W" unicode="W" horiz-adv-x="948" 
d="M195 0l-180 726h101l108 -468q17 -73 30 -146h5q17 94 32 146l127 468h122l123 -468q0 -2 32 -146h6q20 101 31 146l110 468h90l-179 -726h-117l-125 482q-10 42 -33 146h-5q-24 -112 -33 -146l-129 -482h-116z" />
    <glyph glyph-name="X" unicode="X" horiz-adv-x="622" 
d="M2 0l251 378l-238 348h116l183 -281l185 281h107l-238 -348l254 -378h-115l-199 305l-197 -305h-109z" />
    <glyph glyph-name="Y" unicode="Y" horiz-adv-x="617" 
d="M259 0v307l-251 419h114l189 -343l198 343h104l-256 -419v-307h-98z" />
    <glyph glyph-name="Z" unicode="Z" horiz-adv-x="569" 
d="M33 0v83l387 564q-82 -2 -124 -2h-253v81h482v-81l-389 -567q86 4 149 4h259v-82h-511z" />
    <glyph glyph-name="bracketleft" unicode="[" horiz-adv-x="306" 
d="M85 -105v831h197v-59h-110v-713h110v-59h-197z" />
    <glyph glyph-name="backslash" unicode="\" horiz-adv-x="381" 
d="M21 726h79l258 -726h-80z" />
    <glyph glyph-name="bracketright" unicode="]" horiz-adv-x="306" 
d="M24 -105v59h110v713h-110v59h197v-831h-197z" />
    <glyph glyph-name="asciicircum" unicode="^" 
d="M351 726l191 -403h-85l-145 305l-142 -305h-82l190 403h73z" />
    <glyph glyph-name="underscore" unicode="_" horiz-adv-x="477" 
d="M0 -123v49h477v-49h-477z" />
    <glyph glyph-name="grave" unicode="`" horiz-adv-x="577" 
d="M254 600l-116 126h105l88 -126h-77z" />
    <glyph glyph-name="a" unicode="a" horiz-adv-x="540" 
d="M218 -11q-84 0 -131.5 43t-47.5 113q0 31 10 55.5t25 41.5t40.5 30t48 20t56 12.5t56.5 8t57.5 5.5t50.5 5v18q0 121 -114 121q-55 0 -87.5 -27t-32.5 -78h-91q0 79 58.5 126.5t152.5 47.5q56 0 96 -15t60.5 -36.5t31.5 -56.5t13.5 -61t2.5 -65v-141q0 -95 13 -156h-86
q-6 29 -7 70q-61 -81 -175 -81zM239 56q144 0 144 167v29q-12 -2 -45 -4.5t-55.5 -5t-53.5 -9.5t-50 -17t-33 -29t-14 -44q0 -38 29 -62.5t78 -24.5z" />
    <glyph glyph-name="b" unicode="b" horiz-adv-x="585" 
d="M324 -11q-108 0 -161 77v-66h-88v726h92v-271q58 72 161 72q99 0 157.5 -74.5t58.5 -194.5q0 -123 -61.5 -196t-158.5 -73zM310 62q64 0 102 52t38 144t-38 144t-102 52q-65 0 -105 -54.5t-40 -141.5q0 -83 40.5 -139.5t104.5 -56.5z" />
    <glyph glyph-name="c" unicode="c" horiz-adv-x="531" 
d="M281 -15q-115 0 -178 74t-63 199q0 120 65 196.5t178 76.5q92 0 148.5 -48t68.5 -136h-96q-17 110 -122 110q-70 0 -108 -54t-38 -145t38.5 -145.5t107.5 -54.5q105 0 129 115h90q-33 -188 -220 -188z" />
    <glyph glyph-name="d" unicode="d" horiz-adv-x="585" 
d="M262 -11q-103 0 -162 70.5t-59 198.5q0 117 61 193t160 76q110 0 156 -71v270h92v-726h-88v68q-53 -79 -160 -79zM275 62q66 0 105.5 53t39.5 143q0 91 -39.5 143.5t-105.5 52.5q-64 0 -101.5 -52t-37.5 -144q0 -90 37.5 -143t101.5 -53z" />
    <glyph glyph-name="e" unicode="e" horiz-adv-x="562" 
d="M285 -15q-118 0 -181.5 72t-63.5 201q0 119 67.5 196t179.5 77q234 0 234 -302h-385q4 -76 46.5 -123.5t105.5 -47.5q107 0 135 96h97q-16 -81 -80 -125t-155 -44zM138 304h285q-7 76 -44.5 114.5t-95.5 38.5q-60 0 -97.5 -38.5t-47.5 -114.5z" />
    <glyph glyph-name="f" unicode="f" horiz-adv-x="326" 
d="M109 0v440h-95v76h95v26q0 77 14 113q31 77 130 77q36 0 61 -6v-76q-20 4 -44 4q-44 0 -56.5 -25.5t-12.5 -91.5v-21h113v-76h-113v-440h-92z" />
    <glyph glyph-name="g" unicode="g" horiz-adv-x="576" 
d="M276 -205q-96 0 -151 41t-62 121h95q6 -93 120 -93q70 0 103.5 40.5t33.5 139.5v51q-32 -43 -69.5 -60.5t-93.5 -17.5q-95 0 -153 70t-58 181q0 106 59 182.5t157 76.5q115 0 160 -83v72h85v-442q0 -140 -50 -209.5t-176 -69.5zM275 88q65 0 103 51t38 138q0 79 -39 129
t-102 50q-66 0 -103 -48.5t-37 -129.5q0 -89 37.5 -139.5t102.5 -50.5z" />
    <glyph glyph-name="h" unicode="h" horiz-adv-x="575" 
d="M75 0v726h92v-275q48 76 157 76q125 0 165 -92q17 -39 17 -126v-309h-92v290q0 35 -3.5 60t-14 51t-34 39.5t-58.5 13.5q-66 0 -101.5 -46.5t-35.5 -137.5v-270h-92z" />
    <glyph glyph-name="i" unicode="i" horiz-adv-x="242" 
d="M75 0v516h92v-516h-92zM75 626v100h92v-100h-92z" />
    <glyph glyph-name="j" unicode="j" horiz-adv-x="242" 
d="M41 -205q-25 0 -68 5v78q15 -5 45 -5q35 0 46 27t11 86v530h92v-518q0 -116 -27 -159.5t-99 -43.5zM75 626v100h92v-100h-92z" />
    <glyph glyph-name="k" unicode="k" horiz-adv-x="500" 
d="M75 0v726h92v-422l209 212h109l-228 -226l251 -290h-116l-225 270v-270h-92z" />
    <glyph glyph-name="l" unicode="l" horiz-adv-x="242" 
d="M75 0v726h92v-726h-92z" />
    <glyph glyph-name="m" unicode="m" horiz-adv-x="875" 
d="M75 0v516h86v-66q48 77 155 77q47 0 85.5 -23.5t55.5 -71.5q61 95 183 95q166 0 166 -191v-336h-92v286q0 35 -3 59t-12 52t-31 42.5t-56 14.5q-125 0 -125 -199v-255h-92v286q0 35 -3 59t-12.5 52t-31.5 42.5t-56 14.5q-125 0 -125 -199v-255h-92z" />
    <glyph glyph-name="n" unicode="n" horiz-adv-x="575" 
d="M75 0v516h85v-66q58 77 164 77q128 0 164 -92q18 -45 18 -126v-309h-92v291q0 35 -3.5 60t-14 50.5t-34 39t-58.5 13.5q-66 0 -101.5 -46.5t-35.5 -137.5v-270h-92z" />
    <glyph glyph-name="o" unicode="o" horiz-adv-x="580" 
d="M288 -15q-114 0 -181 75.5t-67 197.5q0 121 67.5 197t181.5 76t182.5 -76t68.5 -197q0 -122 -68 -197.5t-184 -75.5zM288 58q72 0 114.5 54.5t42.5 144.5t-42.5 145t-113.5 55q-70 0 -112 -54t-42 -144q0 -91 41.5 -146t111.5 -55z" />
    <glyph glyph-name="p" unicode="p" horiz-adv-x="585" 
d="M75 -201v717h88v-70q55 81 165 81q101 0 158.5 -74.5t57.5 -194.5q0 -124 -61.5 -196.5t-158.5 -72.5q-112 0 -157 69v-259h-92zM310 62q64 0 102 52t38 144t-38 144t-102 52q-65 0 -105 -54.5t-40 -141.5q0 -88 40 -142t105 -54z" />
    <glyph glyph-name="q" unicode="q" horiz-adv-x="585" 
d="M418 -201v261q-51 -71 -156 -71q-103 0 -162 70.5t-59 198.5q0 117 61 193t160 76q110 0 160 -75v64h88v-717h-92zM275 62q66 0 105.5 53t39.5 143q0 91 -39.5 143.5t-105.5 52.5q-64 0 -101.5 -52t-37.5 -144q0 -90 37.5 -143t101.5 -53z" />
    <glyph glyph-name="r" unicode="r" horiz-adv-x="378" 
d="M75 0v516h87v-76q53 82 145 82q29 0 58 -6v-81q-40 7 -61 7q-78 0 -107.5 -51.5t-29.5 -153.5v-237h-92z" />
    <glyph glyph-name="s" unicode="s" horiz-adv-x="505" 
d="M260 -15q-107 0 -165.5 47.5t-59.5 133.5h93q0 -54 35 -82t99 -28q53 0 81.5 20t28.5 57q0 18 -8 32t-18 22.5t-30.5 15.5t-35 10.5t-41.5 8.5q-29 6 -39.5 8t-37 9t-37.5 13t-29.5 18.5t-27 27t-15 36t-6.5 47.5q0 66 55.5 108t146.5 42q98 0 151.5 -44.5t54.5 -128.5
h-91q-1 101 -117 101q-47 0 -75.5 -19.5t-28.5 -52.5q0 -39 31.5 -55.5t95.5 -28.5q30 -6 41 -8t38 -9.5t39 -14.5t31.5 -19.5t28 -27.5t15.5 -36.5t7 -48.5q0 -69 -59 -111.5t-151 -42.5z" />
    <glyph glyph-name="t" unicode="t" horiz-adv-x="333" 
d="M238 -9q-64 0 -97 34t-33 115v300h-95v76h95v125h92v-125h112v-76h-112v-257q0 -63 10.5 -88.5t51.5 -25.5q31 0 52 5v-74q-40 -9 -76 -9z" />
    <glyph glyph-name="u" unicode="u" horiz-adv-x="572" 
d="M249 -11q-118 0 -163 92q-17 35 -17 135v300h91v-291q0 -35 3.5 -59.5t13.5 -50.5t33.5 -39.5t58.5 -13.5q66 0 101.5 46t35.5 137v271h91v-516h-85v66q-57 -77 -163 -77z" />
    <glyph glyph-name="v" unicode="v" horiz-adv-x="511" 
d="M202 0l-191 516h101l91 -258q28 -81 53 -178h6q20 81 53 178l91 258h94l-191 -516h-107z" />
    <glyph glyph-name="w" unicode="w" horiz-adv-x="792" 
d="M158 0l-144 516h95l70 -258q15 -56 39 -178h6q10 51 44 178l70 258h123l73 -258q23 -79 42 -178h6q17 97 39 178l70 258h86l-143 -516h-119l-71 258q-17 65 -44 188h-6q-29 -124 -46 -188l-71 -258h-119z" />
    <glyph glyph-name="x" unicode="x" horiz-adv-x="492" 
d="M3 0l189 267l-175 249h114l118 -189l126 189h100l-177 -249l192 -267h-113l-135 202l-135 -202h-104z" />
    <glyph glyph-name="y" unicode="y" horiz-adv-x="511" 
d="M107 -205q-33 0 -60 5v77q24 -6 44 -6q48 0 74 30.5t42 87.5l-196 527h102l90 -258q12 -35 30.5 -100t22.5 -77h5q28 101 55 177l91 258h93l-192 -516q-40 -105 -83 -155t-118 -50z" />
    <glyph glyph-name="z" unicode="z" horiz-adv-x="452" 
d="M27 0v75l287 370q-34 -5 -113 -5h-160v76h375v-76l-284 -369q40 4 120 4h176v-75h-401z" />
    <glyph glyph-name="braceleft" unicode="{" horiz-adv-x="326" 
d="M197 69q0 -53 19.5 -88t60.5 -35q12 0 25 3v-55q-20 -2 -34 -2q-152 0 -152 166v90q0 131 -99 143v53q52 8 75.5 42.5t23.5 101.5v70q0 102 37.5 142t121.5 40q3 0 13 -0.5t14 -0.5v-53q-6 1 -19 1q-28 0 -46 -10t-26 -30.5t-11 -42.5t-3 -56v-47q0 -90 -26 -133t-98 -50
q76 -11 100 -54t24 -131v-64z" />
    <glyph glyph-name="bar" unicode="|" horiz-adv-x="252" 
d="M167 0h-82v726h82v-726z" />
    <glyph glyph-name="braceright" unicode="}" horiz-adv-x="327" 
d="M129 133q0 88 24 131t100 54q-72 7 -98 50t-26 133v47q0 34 -3 56t-11 42.5t-26 30.5t-46 10q-13 0 -19 -1v53q4 0 14 0.5t13 0.5q84 0 121.5 -40t37.5 -142v-70q0 -67 24 -101.5t75 -42.5v-53q-99 -12 -99 -143v-90q0 -166 -152 -166q-14 0 -34 2v55q14 -3 26 -3
q40 0 59.5 35t19.5 88v64z" />
    <glyph glyph-name="asciitilde" unicode="~" 
d="M315 229q-68 31 -100 31q-19 0 -36.5 -9.5t-28 -20.5t-26.5 -32l-49 49q36 48 65.5 69.5t70.5 21.5q34 0 104 -32q68 -31 101 -31q19 0 36.5 10t27 20.5t26.5 31.5l50 -50q-36 -47 -65.5 -68.5t-71.5 -21.5q-34 0 -104 32z" />
    <glyph glyph-name="uni00A0" unicode="&#xa0;" horiz-adv-x="200" 
 />
    <glyph glyph-name="exclamdown" unicode="&#xa1;" horiz-adv-x="249" 
d="M177 422h-106v114h106v-114zM179 -190h-109l18 529h73z" />
    <glyph glyph-name="cent" unicode="&#xa2;" horiz-adv-x="531" 
d="M255 -15v109q-99 8 -155 81.5t-56 190.5q0 113 56.5 188t154.5 84v103h64v-103q75 -7 124.5 -55t60.5 -128h-94q-16 91 -91 106v-391q75 16 98 111h88q-30 -173 -186 -187v-109h-64zM138 366q0 -81 31.5 -133t85.5 -62v390q-54 -10 -85.5 -62t-31.5 -133z" />
    <glyph glyph-name="sterling" unicode="&#xa3;" horiz-adv-x="604" 
d="M53 76q54 7 73 40.5t19 114.5v89h-111v79h111v28q0 135 52 203.5t166 68.5q95 0 146.5 -46.5t51.5 -135.5h-96q0 107 -101 107q-74 0 -99.5 -49t-25.5 -152v-24h144v-79h-144v-79q0 -70 -14 -105.5t-50 -55.5v-6q107 6 150 6h236v-80h-508v76z" />
    <glyph glyph-name="currency" unicode="&#xa4;" horiz-adv-x="551" 
d="M275 495q71 0 115 -39l72 72l45 -44l-79 -68q35 -44 35 -112q0 -73 -35 -117l75 -70l-44 -43l-70 73q-43 -40 -116 -40q-71 0 -115 38l-68 -71l-42 43l72 66q-37 48 -37 116q0 71 39 117l-76 68l44 44l69 -72q49 39 116 39zM274 435q-55 0 -88 -39t-33 -96
q0 -64 37 -98.5t83 -34.5q47 0 83 34t36 102q0 54 -31.5 93t-86.5 39z" />
    <glyph glyph-name="yen" unicode="&#xa5;" horiz-adv-x="605" 
d="M85 379h125l-186 304h109l170 -297l175 297h104l-190 -304h125v-71h-168v-76h168v-71h-168v-161h-96v161h-168v71h168v76h-168v71z" />
    <glyph glyph-name="brokenbar" unicode="&#xa6;" horiz-adv-x="252" 
d="M86 425v271h79v-271h-79zM165 0h-79v269h79v-269z" />
    <glyph glyph-name="section" unicode="&#xa7;" horiz-adv-x="543" 
d="M415 128q32 -33 41 -53.5t9 -48.5q0 -65 -55.5 -105.5t-143.5 -40.5q-94 0 -149 44.5t-60 124.5h96q6 -103 110 -103q45 0 73.5 22.5t28.5 58.5q0 17 -8.5 32.5t-19.5 25.5t-32.5 21.5t-35 17l-40.5 16.5q-44 18 -67.5 29t-56.5 34t-48.5 53.5t-15.5 69.5q0 93 94 133
q-47 46 -47 97q0 62 54.5 102t137.5 40q89 0 143 -45.5t55 -123.5h-89q-6 103 -104 103q-46 0 -73 -20.5t-27 -55.5t26 -57t104 -56q104 -44 145 -82.5t41 -107.5q0 -87 -86 -125zM367 163q45 37 45 81q0 45 -24 67.5t-88 52.5l-120 55q-47 -35 -47 -83q0 -71 98 -114z" />
    <glyph glyph-name="dieresis" unicode="&#xa8;" horiz-adv-x="580" 
d="M343 621v105h90v-105h-90zM147 621v105h90v-105h-90z" />
    <glyph glyph-name="copyright" unicode="&#xa9;" horiz-adv-x="839" 
d="M607 298q-8 -75 -57.5 -118t-126.5 -43q-91 0 -144.5 62t-53.5 167q0 101 54.5 162.5t145.5 61.5q74 0 124.5 -43.5t57.5 -113.5h-74q-7 49 -35.5 75t-72.5 26q-57 0 -93 -46.5t-36 -121.5q0 -78 35 -125t92 -47q44 0 73 27.5t37 76.5h74zM44 363q0 160 109.5 269
t265.5 109q157 0 266.5 -109t109.5 -269t-109.5 -269t-266.5 -109q-156 0 -265.5 109t-109.5 269zM741 363q0 133 -91 231t-231 98t-231 -98t-91 -231t91 -231.5t231 -98.5t231 98.5t91 231.5z" />
    <glyph glyph-name="ordfeminine" unicode="&#xaa;" horiz-adv-x="432" 
d="M175 324q-66 0 -100 30t-34 86q0 66 57 96t158 37l46 3v18q0 45 -23 68.5t-65 23.5q-90 0 -90 -76h-68q0 55 44 91.5t114 36.5q43 0 73.5 -11.5t46 -27t24 -42t10 -45.5t1.5 -49v-110q0 -64 11 -118h-70q-5 17 -7 45q-49 -56 -128 -56zM191 376q47 0 79 32t32 100v16
l-34 -2q-47 -3 -79.5 -9.5t-56.5 -24.5t-24 -47q0 -32 22.5 -48.5t60.5 -16.5z" />
    <glyph glyph-name="guillemotleft" unicode="&#xab;" horiz-adv-x="451" 
d="M227 472l-93 -203l93 -199h-90l-103 199l103 203h90zM407 472l-94 -203l94 -199h-91l-102 199l102 203h91z" />
    <glyph glyph-name="logicalnot" unicode="&#xac;" 
d="M547 383v-280h-78v202h-397v78h475z" />
    <glyph glyph-name="uni00AD" unicode="&#xad;" horiz-adv-x="387" 
d="M61 325h265v-81h-265v81z" />
    <glyph glyph-name="registered" unicode="&#xae;" horiz-adv-x="839" 
d="M278 580h157q69 0 107.5 -31t38.5 -88q0 -79 -81 -107q55 -11 70 -89l12 -63q7 -36 16 -54h-75q-10 38 -18 90q-8 54 -25 70.5t-64 16.5h-69v-177h-69v432zM419 378q44 0 67.5 20t23.5 56q0 70 -90 70h-73v-146h72zM44 363q0 160 109.5 269t265.5 109q157 0 266.5 -109
t109.5 -269t-109.5 -269t-266.5 -109q-156 0 -265.5 109t-109.5 269zM741 363q0 133 -91 231t-231 98t-231 -98t-91 -231t91 -231.5t231 -98.5t231 98.5t91 231.5z" />
    <glyph glyph-name="macron" unicode="&#xaf;" horiz-adv-x="556" 
d="M146 633v70h264v-70h-264z" />
    <glyph glyph-name="degree" unicode="&#xb0;" horiz-adv-x="365" 
d="M328 550q0 -61 -42.5 -103.5t-102.5 -42.5q-62 0 -104 42.5t-42 101.5q0 61 43 103.5t103 42.5q61 0 103 -42.5t42 -101.5zM183 456q38 0 64.5 27.5t26.5 66.5q0 38 -26.5 65t-64.5 27t-65 -27.5t-27 -65.5t27 -65.5t65 -27.5z" />
    <glyph glyph-name="plusminus" unicode="&#xb1;" 
d="M93 286v75h180v168h82v-168h181v-75h-181v-154h-82v154h-180zM93 0v75h443v-75h-443z" />
    <glyph glyph-name="twosuperior" unicode="&#xb2;" horiz-adv-x="342" 
d="M34 478v21q0 59 27 95.5t93 74.5q46 26 64 48t18 50q0 30 -17.5 47.5t-46.5 17.5q-68 0 -71 -90h-67q1 65 39 102t101 37q58 0 94.5 -32t36.5 -84q0 -42 -25 -71t-84 -65q-22 -13 -31.5 -19.5t-25 -19.5t-23 -27t-10.5 -31h201v-54h-273z" />
    <glyph glyph-name="threesuperior" unicode="&#xb3;" horiz-adv-x="351" 
d="M100 605q0 -41 20 -65t55 -24q34 0 53 20t19 50t-20 48.5t-55 18.5h-25v50h20q36 0 55.5 17.5t19.5 48.5q0 29 -17.5 45.5t-48.5 16.5q-33 0 -51.5 -22t-19.5 -61h-68q3 62 40.5 97.5t101.5 35.5q58 0 94.5 -30.5t36.5 -78.5q0 -29 -16.5 -55.5t-47.5 -35.5v-3
q33 -10 51 -35.5t18 -60.5q0 -51 -38.5 -83t-104.5 -32q-64 0 -102.5 37.5t-38.5 100.5h69z" />
    <glyph glyph-name="acute" unicode="&#xb4;" horiz-adv-x="576" 
d="M246 600l89 126h104l-116 -126h-77z" />
    <glyph glyph-name="mu" unicode="&#xb5;" horiz-adv-x="628" 
d="M81 516h91v-275q0 -179 126 -179q68 0 94 47.5t26 135.5v271h91v-400q0 -29 10.5 -40.5t37.5 -11.5q16 0 38 6v-69q-27 -9 -59 -9q-90 0 -107 64l-2 8q-42 -74 -129 -74q-43 0 -76.5 18.5t-48.5 49.5v-259h-92v717z" />
    <glyph glyph-name="paragraph" unicode="&#xb6;" horiz-adv-x="592" 
d="M485 -129h-72v790h-110v-790h-71v401q-96 4 -151 67t-55 159q0 105 68.5 166.5t172.5 61.5h288v-65h-70v-790z" />
    <glyph glyph-name="periodcentered" unicode="&#xb7;" horiz-adv-x="239" 
d="M62 406h115v-119h-115v119z" />
    <glyph glyph-name="cedilla" unicode="&#xb8;" horiz-adv-x="541" 
d="M200 -205q-30 0 -44 5v53q12 -3 23 -3q59 0 59 40q0 17 -11 29t-33 12q-12 0 -18 -1v100h66v-61q31 -1 48.5 -26t17.5 -56q0 -38 -28.5 -65t-79.5 -27z" />
    <glyph glyph-name="onesuperior" unicode="&#xb9;" horiz-adv-x="236" 
d="M114 756h-93v42q94 6 102 72h58v-392h-67v278z" />
    <glyph glyph-name="ordmasculine" unicode="&#xba;" horiz-adv-x="456" 
d="M228 324q-88 0 -138.5 54t-50.5 153t50.5 153t138.5 54t138.5 -54t50.5 -153t-50.5 -153t-138.5 -54zM228 376q58 0 86.5 42.5t28.5 112.5t-28.5 112.5t-86.5 42.5t-86.5 -42.5t-28.5 -112.5t28.5 -112.5t86.5 -42.5z" />
    <glyph glyph-name="guillemotright" unicode="&#xbb;" horiz-adv-x="450" 
d="M313 472l103 -203l-103 -199h-90l93 199l-93 203h90zM135 472l102 -203l-102 -199h-91l94 199l-94 203h91z" />
    <glyph glyph-name="onequarter" unicode="&#xbc;" horiz-adv-x="714" 
d="M113 569h-93v42q94 6 102 72h58v-392h-67v278zM456 697h65l-369 -711h-64zM692 102h-69v-102h-66v102h-179v54l144 236h101v-237h69v-53zM557 155q0 44 2 178h-7q-7 -13 -47 -78l-62 -100h114z" />
    <glyph glyph-name="onehalf" unicode="&#xbd;" horiz-adv-x="720" 
d="M113 569h-93v42q94 6 102 72h58v-392h-67v278zM456 697h65l-369 -711h-64zM412 0v21q0 59 27 95.5t93 74.5q46 26 64 48t18 50q0 30 -17.5 47.5t-46.5 17.5q-68 0 -71 -90h-67q1 65 39 102t101 37q58 0 94.5 -32t36.5 -84q0 -42 -25 -71t-84 -65q-22 -13 -31.5 -19.5
t-25 -19.5t-23 -27t-10.5 -31h201v-54h-273z" />
    <glyph glyph-name="threequarters" unicode="&#xbe;" horiz-adv-x="829" 
d="M100 418q0 -41 20 -65t55 -24q34 0 53 20t19 50t-20 48.5t-55 18.5h-25v50h20q36 0 55.5 17.5t19.5 48.5q0 29 -17.5 45.5t-48.5 16.5q-33 0 -51.5 -22t-19.5 -61h-68q3 62 40.5 97.5t101.5 35.5q58 0 94.5 -30.5t36.5 -78.5q0 -29 -16.5 -55.5t-47.5 -35.5v-3
q33 -10 51 -35.5t18 -60.5q0 -51 -38.5 -83t-104.5 -32q-64 0 -102.5 37.5t-38.5 100.5h69zM571 697h65l-369 -711h-64zM807 102h-69v-102h-66v102h-179v54l144 236h101v-237h69v-53zM672 155q0 44 2 178h-7q-7 -13 -47 -78l-62 -100h114z" />
    <glyph glyph-name="questiondown" unicode="&#xbf;" horiz-adv-x="506" 
d="M325 536v-108h-108v108h108zM317 346v-18q0 -77 -22.5 -118t-100.5 -109q-65 -56 -65 -117q0 -55 35 -84.5t87 -29.5q56 0 96 37.5t40 112.5h96q-1 -106 -72 -165.5t-166 -59.5q-89 0 -153.5 49.5t-64.5 138.5q0 38 17 72.5t34 53t51 49.5q32 30 49.5 49t33.5 52.5
t16 69.5v17h89z" />
    <glyph glyph-name="Agrave" unicode="&#xc0;" horiz-adv-x="696" 
d="M3 0l295 726h99l298 -726h-107l-84 211h-318l-79 -211h-104zM218 291h257l-69 187q-6 15 -26.5 69.5t-30.5 83.5h-4q-35 -102 -54 -151zM317 791l-125 114h111l96 -114h-82z" />
    <glyph glyph-name="Aacute" unicode="&#xc1;" horiz-adv-x="696" 
d="M3 0l295 726h99l298 -726h-107l-84 211h-318l-79 -211h-104zM218 291h257l-69 187q-6 15 -26.5 69.5t-30.5 83.5h-4q-35 -102 -54 -151zM299 791l96 114h111l-126 -114h-81z" />
    <glyph glyph-name="Acircumflex" unicode="&#xc2;" horiz-adv-x="696" 
d="M3 0l295 726h99l298 -726h-107l-84 211h-318l-79 -211h-104zM218 291h257l-69 187q-6 15 -26.5 69.5t-30.5 83.5h-4q-35 -102 -54 -151zM196 791l96 114h114l95 -114h-88l-65 75l-66 -75h-86z" />
    <glyph glyph-name="Atilde" unicode="&#xc3;" horiz-adv-x="696" 
d="M3 0l295 726h99l298 -726h-107l-84 211h-318l-79 -211h-104zM218 291h257l-69 187q-6 15 -26.5 69.5t-30.5 83.5h-4q-35 -102 -54 -151zM193 796q6 50 29.5 78.5t62.5 28.5q20 0 67.5 -20t66.5 -20q32 0 41 38h54q-6 -50 -29.5 -78.5t-62.5 -28.5q-20 0 -67.5 20
t-66.5 20q-33 0 -41 -38h-54z" />
    <glyph glyph-name="Adieresis" unicode="&#xc4;" horiz-adv-x="696" 
d="M3 0l295 726h99l298 -726h-107l-84 211h-318l-79 -211h-104zM218 291h257l-69 187q-6 15 -26.5 69.5t-30.5 83.5h-4q-35 -102 -54 -151zM403 795v105h90v-105h-90zM205 795v105h90v-105h-90z" />
    <glyph glyph-name="Aring" unicode="&#xc5;" horiz-adv-x="696" 
d="M3 0l291 717q-27 13 -42 38.5t-15 54.5q0 42 30 73.5t81 31.5t81 -31t30 -74q0 -30 -15.5 -55t-43.5 -38l295 -717h-107l-84 211h-318l-79 -211h-104zM218 291h257l-69 187q-6 15 -26.5 69.5t-30.5 83.5h-4q-35 -102 -54 -151zM348 751q30 0 44.5 17t14.5 42t-15 42
t-44 17q-28 0 -43 -17t-15 -42q0 -24 15 -41.5t43 -17.5z" />
    <glyph glyph-name="AE" unicode="&#xc6;" horiz-adv-x="957" 
d="M3 0l370 726h509v-81h-346l32 -227h306v-81h-295l37 -256h311v-81h-397l-33 227h-275l-112 -227h-107zM263 308h223l-47 340h-10z" />
    <glyph glyph-name="Ccedilla" unicode="&#xc7;" horiz-adv-x="700" 
d="M344 -205q-30 0 -44 5v53q12 -3 23 -3q59 0 59 40q0 17 -11 29t-33 12q-12 0 -18 -1v59q-130 19 -201.5 122t-71.5 252q0 163 87 270.5t239 107.5q124 0 202.5 -70t89.5 -182h-101q-13 83 -62.5 128.5t-128.5 45.5q-101 0 -162.5 -82.5t-61.5 -217.5t62.5 -217.5
t163.5 -82.5q77 0 127 47.5t64 130.5h102q-18 -111 -93 -181.5t-189 -74.5v-16q31 -1 48.5 -26t17.5 -56q0 -38 -28.5 -65t-79.5 -27z" />
    <glyph glyph-name="Egrave" unicode="&#xc8;" horiz-adv-x="598" 
d="M87 0v726h452v-81h-354v-233h338v-82h-338v-249h371v-81h-469zM293 791l-125 114h111l96 -114h-82z" />
    <glyph glyph-name="Eacute" unicode="&#xc9;" horiz-adv-x="598" 
d="M87 0v726h452v-81h-354v-233h338v-82h-338v-249h371v-81h-469zM275 791l96 114h111l-126 -114h-81z" />
    <glyph glyph-name="Ecircumflex" unicode="&#xca;" horiz-adv-x="598" 
d="M87 0v726h452v-81h-354v-233h338v-82h-338v-249h371v-81h-469zM172 791l96 114h114l95 -114h-88l-65 75l-66 -75h-86z" />
    <glyph glyph-name="Edieresis" unicode="&#xcb;" horiz-adv-x="598" 
d="M87 0v726h452v-81h-354v-233h338v-82h-338v-249h371v-81h-469zM379 795v105h90v-105h-90zM181 795v105h90v-105h-90z" />
    <glyph glyph-name="Igrave" unicode="&#xcc;" horiz-adv-x="272" 
d="M87 0v726h98v-726h-98zM104 791l-125 114h111l96 -114h-82z" />
    <glyph glyph-name="Iacute" unicode="&#xcd;" horiz-adv-x="272" 
d="M87 0v726h98v-726h-98zM86 791l96 114h111l-126 -114h-81z" />
    <glyph glyph-name="Icircumflex" unicode="&#xce;" horiz-adv-x="272" 
d="M87 0v726h98v-726h-98zM-17 791l96 114h114l95 -114h-88l-65 75l-66 -75h-86z" />
    <glyph glyph-name="Idieresis" unicode="&#xcf;" horiz-adv-x="272" 
d="M87 0v726h98v-726h-98zM176 795v105h90v-105h-90zM6 795v105h90v-105h-90z" />
    <glyph glyph-name="Eth" unicode="&#xd0;" horiz-adv-x="740" 
d="M117 0v335h-97v77h97v314h210q148 0 225 -53q68 -48 104.5 -128.5t36.5 -181.5q0 -99 -38.5 -179t-108.5 -128q-82 -56 -219 -56h-210zM215 80h99q130 0 192 55q40 34 62 95t22 133q0 73 -20.5 134.5t-59.5 95.5q-60 53 -196 53h-99v-234h127v-77h-127v-255z" />
    <glyph glyph-name="Ntilde" unicode="&#xd1;" horiz-adv-x="749" 
d="M87 0v726h134q305 -529 351 -624h5q-6 158 -6 262v362h91v-726h-132q-310 544 -355 633h-5q7 -189 7 -271v-362h-90zM219 796q6 50 29.5 78.5t62.5 28.5q20 0 67.5 -20t66.5 -20q32 0 41 38h54q-6 -50 -29.5 -78.5t-62.5 -28.5q-20 0 -67.5 20t-66.5 20q-33 0 -41 -38
h-54z" />
    <glyph glyph-name="Ograve" unicode="&#xd2;" horiz-adv-x="763" 
d="M381 -15q-151 0 -242.5 104.5t-91.5 273.5q0 168 91.5 273t242.5 105t243 -105t92 -273q0 -171 -91.5 -274.5t-243.5 -103.5zM381 63q105 0 169 84.5t64 215.5t-64 215.5t-169 84.5q-104 0 -168 -84.5t-64 -215.5t64 -215.5t168 -84.5zM350 791l-125 114h111l96 -114h-82
z" />
    <glyph glyph-name="Oacute" unicode="&#xd3;" horiz-adv-x="763" 
d="M381 -15q-151 0 -242.5 104.5t-91.5 273.5q0 168 91.5 273t242.5 105t243 -105t92 -273q0 -171 -91.5 -274.5t-243.5 -103.5zM381 63q105 0 169 84.5t64 215.5t-64 215.5t-169 84.5q-104 0 -168 -84.5t-64 -215.5t64 -215.5t168 -84.5zM332 791l96 114h111l-126 -114h-81
z" />
    <glyph glyph-name="Ocircumflex" unicode="&#xd4;" horiz-adv-x="763" 
d="M381 -15q-151 0 -242.5 104.5t-91.5 273.5q0 168 91.5 273t242.5 105t243 -105t92 -273q0 -171 -91.5 -274.5t-243.5 -103.5zM381 63q105 0 169 84.5t64 215.5t-64 215.5t-169 84.5q-104 0 -168 -84.5t-64 -215.5t64 -215.5t168 -84.5zM229 791l96 114h114l95 -114h-88
l-65 75l-66 -75h-86z" />
    <glyph glyph-name="Otilde" unicode="&#xd5;" horiz-adv-x="763" 
d="M381 -15q-151 0 -242.5 104.5t-91.5 273.5q0 168 91.5 273t242.5 105t243 -105t92 -273q0 -171 -91.5 -274.5t-243.5 -103.5zM381 63q105 0 169 84.5t64 215.5t-64 215.5t-169 84.5q-104 0 -168 -84.5t-64 -215.5t64 -215.5t168 -84.5zM226 796q6 50 29.5 78.5t62.5 28.5
q20 0 67.5 -20t66.5 -20q32 0 41 38h54q-6 -50 -29.5 -78.5t-62.5 -28.5q-20 0 -67.5 20t-66.5 20q-33 0 -41 -38h-54z" />
    <glyph glyph-name="Odieresis" unicode="&#xd6;" horiz-adv-x="763" 
d="M381 -15q-151 0 -242.5 104.5t-91.5 273.5q0 168 91.5 273t242.5 105t243 -105t92 -273q0 -171 -91.5 -274.5t-243.5 -103.5zM381 63q105 0 169 84.5t64 215.5t-64 215.5t-169 84.5q-104 0 -168 -84.5t-64 -215.5t64 -215.5t168 -84.5zM436 795v105h90v-105h-90zM238 795
v105h90v-105h-90z" />
    <glyph glyph-name="multiply" unicode="&#xd7;" 
d="M168 71l-54 54l143 143l-150 150l59 59l150 -149l143 143l55 -55l-143 -143l151 -151l-60 -59l-151 151z" />
    <glyph glyph-name="Oslash" unicode="&#xd8;" horiz-adv-x="763" 
d="M134 -37l-60 45l61 83q-88 105 -88 271q0 168 91.5 273t242.5 105q108 0 190 -58l50 68l59 -45l-54 -73q90 -106 90 -270q0 -171 -91.5 -274.5t-243.5 -103.5q-110 0 -190 57zM381 62q105 0 169 84.5t64 215.5q0 110 -47 190l-323 -440q58 -50 137 -50zM195 172l323 439
q-59 51 -137 51q-104 0 -168 -84.5t-64 -215.5q0 -112 46 -190z" />
    <glyph glyph-name="Ugrave" unicode="&#xd9;" horiz-adv-x="704" 
d="M351 -15q-183 0 -243 133q-28 63 -28 188v420h98v-418q0 -75 9 -116.5t32 -70.5q48 -59 132 -59q41 0 77.5 16.5t56.5 42.5q41 54 41 187v418h98v-420q0 -145 -42 -211q-33 -52 -93 -81t-138 -29zM321 791l-125 114h111l96 -114h-82z" />
    <glyph glyph-name="Uacute" unicode="&#xda;" horiz-adv-x="704" 
d="M351 -15q-183 0 -243 133q-28 63 -28 188v420h98v-418q0 -75 9 -116.5t32 -70.5q48 -59 132 -59q41 0 77.5 16.5t56.5 42.5q41 54 41 187v418h98v-420q0 -145 -42 -211q-33 -52 -93 -81t-138 -29zM303 791l96 114h111l-126 -114h-81z" />
    <glyph glyph-name="Ucircumflex" unicode="&#xdb;" horiz-adv-x="704" 
d="M351 -15q-183 0 -243 133q-28 63 -28 188v420h98v-418q0 -75 9 -116.5t32 -70.5q48 -59 132 -59q41 0 77.5 16.5t56.5 42.5q41 54 41 187v418h98v-420q0 -145 -42 -211q-33 -52 -93 -81t-138 -29zM200 791l96 114h114l95 -114h-88l-65 75l-66 -75h-86z" />
    <glyph glyph-name="Udieresis" unicode="&#xdc;" horiz-adv-x="704" 
d="M351 -15q-183 0 -243 133q-28 63 -28 188v420h98v-418q0 -75 9 -116.5t32 -70.5q48 -59 132 -59q41 0 77.5 16.5t56.5 42.5q41 54 41 187v418h98v-420q0 -145 -42 -211q-33 -52 -93 -81t-138 -29zM407 795v105h90v-105h-90zM209 795v105h90v-105h-90z" />
    <glyph glyph-name="Yacute" unicode="&#xdd;" horiz-adv-x="617" 
d="M259 0v307l-251 419h114l189 -343l198 343h104l-256 -419v-307h-98zM261 791l96 114h111l-126 -114h-81z" />
    <glyph glyph-name="Thorn" unicode="&#xde;" horiz-adv-x="636" 
d="M87 0v726h98v-129h119q42 0 66 -1t61.5 -8.5t66.5 -22.5q47 -24 72 -74t25 -113q0 -127 -98 -186q-60 -35 -199 -35h-113v-157h-98zM185 237h123q86 0 117 15q34 17 51.5 50.5t17.5 75.5q0 90 -69 125q-27 14 -117 14h-123v-280z" />
    <glyph glyph-name="germandbls" unicode="&#xdf;" horiz-adv-x="551" 
d="M295 -6q-27 0 -55 6v72q17 -6 51 -6q57 0 93 40.5t36 107.5q0 74 -33.5 111.5t-108.5 37.5q-27 0 -38 -1v74q9 -1 31 -1q54 0 89 32t35 90q0 45 -28 78t-79 33q-122 0 -122 -170v-498h-91v463q0 144 51.5 209t161.5 65q90 0 142.5 -50t52.5 -125q0 -50 -30.5 -92
t-90.5 -63v-4q72 -11 111.5 -63.5t39.5 -120.5q0 -94 -58.5 -159.5t-159.5 -65.5z" />
    <glyph glyph-name="agrave" unicode="&#xe0;" horiz-adv-x="540" 
d="M218 -11q-84 0 -131.5 43t-47.5 113q0 31 10 55.5t25 41.5t40.5 30t48 20t56 12.5t56.5 8t57.5 5.5t50.5 5v18q0 121 -114 121q-55 0 -87.5 -27t-32.5 -78h-91q0 79 58.5 126.5t152.5 47.5q56 0 96 -15t60.5 -36.5t31.5 -56.5t13.5 -61t2.5 -65v-141q0 -95 13 -156h-86
q-6 29 -7 70q-61 -81 -175 -81zM239 56q144 0 144 167v29q-12 -2 -45 -4.5t-55.5 -5t-53.5 -9.5t-50 -17t-33 -29t-14 -44q0 -38 29 -62.5t78 -24.5zM240 600l-116 126h105l88 -126h-77z" />
    <glyph glyph-name="aacute" unicode="&#xe1;" horiz-adv-x="540" 
d="M218 -11q-84 0 -131.5 43t-47.5 113q0 31 10 55.5t25 41.5t40.5 30t48 20t56 12.5t56.5 8t57.5 5.5t50.5 5v18q0 121 -114 121q-55 0 -87.5 -27t-32.5 -78h-91q0 79 58.5 126.5t152.5 47.5q56 0 96 -15t60.5 -36.5t31.5 -56.5t13.5 -61t2.5 -65v-141q0 -95 13 -156h-86
q-6 29 -7 70q-61 -81 -175 -81zM239 56q144 0 144 167v29q-12 -2 -45 -4.5t-55.5 -5t-53.5 -9.5t-50 -17t-33 -29t-14 -44q0 -38 29 -62.5t78 -24.5zM225 600l89 126h104l-116 -126h-77z" />
    <glyph glyph-name="acircumflex" unicode="&#xe2;" horiz-adv-x="540" 
d="M218 -11q-84 0 -131.5 43t-47.5 113q0 31 10 55.5t25 41.5t40.5 30t48 20t56 12.5t56.5 8t57.5 5.5t50.5 5v18q0 121 -114 121q-55 0 -87.5 -27t-32.5 -78h-91q0 79 58.5 126.5t152.5 47.5q56 0 96 -15t60.5 -36.5t31.5 -56.5t13.5 -61t2.5 -65v-141q0 -95 13 -156h-86
q-6 29 -7 70q-61 -81 -175 -81zM239 56q144 0 144 167v29q-12 -2 -45 -4.5t-55.5 -5t-53.5 -9.5t-50 -17t-33 -29t-14 -44q0 -38 29 -62.5t78 -24.5zM119 600l93 126h122l93 -126h-89l-66 88l-67 -88h-86z" />
    <glyph glyph-name="atilde" unicode="&#xe3;" horiz-adv-x="540" 
d="M218 -11q-84 0 -131.5 43t-47.5 113q0 31 10 55.5t25 41.5t40.5 30t48 20t56 12.5t56.5 8t57.5 5.5t50.5 5v18q0 121 -114 121q-55 0 -87.5 -27t-32.5 -78h-91q0 79 58.5 126.5t152.5 47.5q56 0 96 -15t60.5 -36.5t31.5 -56.5t13.5 -61t2.5 -65v-141q0 -95 13 -156h-86
q-6 29 -7 70q-61 -81 -175 -81zM239 56q144 0 144 167v29q-12 -2 -45 -4.5t-55.5 -5t-53.5 -9.5t-50 -17t-33 -29t-14 -44q0 -38 29 -62.5t78 -24.5zM107 612q6 50 29.5 78.5t62.5 28.5q20 0 67.5 -20t66.5 -20q32 0 41 38h54q-6 -50 -29.5 -78.5t-62.5 -28.5
q-20 0 -67.5 20t-66.5 20q-33 0 -41 -38h-54z" />
    <glyph glyph-name="adieresis" unicode="&#xe4;" horiz-adv-x="540" 
d="M218 -11q-84 0 -131.5 43t-47.5 113q0 31 10 55.5t25 41.5t40.5 30t48 20t56 12.5t56.5 8t57.5 5.5t50.5 5v18q0 121 -114 121q-55 0 -87.5 -27t-32.5 -78h-91q0 79 58.5 126.5t152.5 47.5q56 0 96 -15t60.5 -36.5t31.5 -56.5t13.5 -61t2.5 -65v-141q0 -95 13 -156h-86
q-6 29 -7 70q-61 -81 -175 -81zM239 56q144 0 144 167v29q-12 -2 -45 -4.5t-55.5 -5t-53.5 -9.5t-50 -17t-33 -29t-14 -44q0 -38 29 -62.5t78 -24.5zM325 621v105h90v-105h-90zM129 621v105h90v-105h-90z" />
    <glyph glyph-name="aring" unicode="&#xe5;" horiz-adv-x="540" 
d="M218 -11q-84 0 -131.5 43t-47.5 113q0 31 10 55.5t25 41.5t40.5 30t48 20t56 12.5t56.5 8t57.5 5.5t50.5 5v18q0 121 -114 121q-55 0 -87.5 -27t-32.5 -78h-91q0 79 58.5 126.5t152.5 47.5q56 0 96 -15t60.5 -36.5t31.5 -56.5t13.5 -61t2.5 -65v-141q0 -95 13 -156h-86
q-6 29 -7 70q-61 -81 -175 -81zM239 56q144 0 144 167v29q-12 -2 -45 -4.5t-55.5 -5t-53.5 -9.5t-50 -17t-33 -29t-14 -44q0 -38 29 -62.5t78 -24.5zM270 563q-49 0 -79 31t-30 71q0 41 30 72t79 31q50 0 79.5 -31t29.5 -72q0 -40 -29.5 -71t-79.5 -31zM270 607
q29 0 43.5 17t14.5 41t-15 41t-43 17t-42.5 -17t-14.5 -41q0 -23 15 -40.5t42 -17.5z" />
    <glyph glyph-name="ae" unicode="&#xe6;" horiz-adv-x="878" 
d="M224 -15q-83 0 -133.5 40t-50.5 116q0 171 282 171h60v2q-9 148 -118 148q-105 0 -118 -103h-89q4 81 61.5 126.5t145.5 45.5q126 0 172 -94q71 94 181 94q107 0 163.5 -74t56.5 -209v-16h-363q0 -73 34.5 -124.5t109.5 -51.5q50 0 79 23.5t45 71.5h90q-16 -86 -75 -126
t-137 -40q-65 0 -116.5 27t-76.5 76q-62 -103 -203 -103zM234 53q71 0 109.5 42t39.5 142v4h-59q-189 0 -189 -98q0 -40 25.5 -65t73.5 -25zM476 306h271q-5 69 -40 111t-93 42q-57 0 -95.5 -43t-42.5 -110z" />
    <glyph glyph-name="ccedilla" unicode="&#xe7;" horiz-adv-x="531" 
d="M254 -205q-30 0 -44 5v53q12 -3 23 -3q59 0 59 40q0 17 -11 29t-33 12q-12 0 -18 -1v59q-92 16 -141 87.5t-49 181.5q0 120 65 196.5t178 76.5q92 0 148.5 -48t68.5 -136h-96q-17 110 -122 110q-70 0 -108 -54t-38 -145t38.5 -145.5t107.5 -54.5q105 0 129 115h90
q-31 -180 -205 -187v-17q31 -1 48.5 -26t17.5 -56q0 -38 -28.5 -65t-79.5 -27z" />
    <glyph glyph-name="egrave" unicode="&#xe8;" horiz-adv-x="562" 
d="M285 -15q-118 0 -181.5 72t-63.5 201q0 119 67.5 196t179.5 77q234 0 234 -302h-385q4 -76 46.5 -123.5t105.5 -47.5q107 0 135 96h97q-16 -81 -80 -125t-155 -44zM138 304h285q-7 76 -44.5 114.5t-95.5 38.5q-60 0 -97.5 -38.5t-47.5 -114.5zM255 600l-116 126h105
l88 -126h-77z" />
    <glyph glyph-name="eacute" unicode="&#xe9;" horiz-adv-x="562" 
d="M285 -15q-118 0 -181.5 72t-63.5 201q0 119 67.5 196t179.5 77q234 0 234 -302h-385q4 -76 46.5 -123.5t105.5 -47.5q107 0 135 96h97q-16 -81 -80 -125t-155 -44zM138 304h285q-7 76 -44.5 114.5t-95.5 38.5q-60 0 -97.5 -38.5t-47.5 -114.5zM240 600l89 126h104
l-116 -126h-77z" />
    <glyph glyph-name="ecircumflex" unicode="&#xea;" horiz-adv-x="562" 
d="M285 -15q-118 0 -181.5 72t-63.5 201q0 119 67.5 196t179.5 77q234 0 234 -302h-385q4 -76 46.5 -123.5t105.5 -47.5q107 0 135 96h97q-16 -81 -80 -125t-155 -44zM138 304h285q-7 76 -44.5 114.5t-95.5 38.5q-60 0 -97.5 -38.5t-47.5 -114.5zM134 600l93 126h122
l93 -126h-89l-66 88l-67 -88h-86z" />
    <glyph glyph-name="edieresis" unicode="&#xeb;" horiz-adv-x="562" 
d="M285 -15q-118 0 -181.5 72t-63.5 201q0 119 67.5 196t179.5 77q234 0 234 -302h-385q4 -76 46.5 -123.5t105.5 -47.5q107 0 135 96h97q-16 -81 -80 -125t-155 -44zM138 304h285q-7 76 -44.5 114.5t-95.5 38.5q-60 0 -97.5 -38.5t-47.5 -114.5zM340 621v105h90v-105h-90z
M144 621v105h90v-105h-90z" />
    <glyph glyph-name="igrave" unicode="&#xec;" horiz-adv-x="242" 
d="M75 0v516h92v-516h-92zM98 600l-97 126h98l74 -126h-75z" />
    <glyph glyph-name="iacute" unicode="&#xed;" horiz-adv-x="242" 
d="M75 0v516h92v-516h-92zM69 600l74 126h98l-97 -126h-75z" />
    <glyph glyph-name="icircumflex" unicode="&#xee;" horiz-adv-x="242" 
d="M75 0v516h92v-516h-92zM-16 600l83 126h109l82 -126h-78l-59 85l-60 -85h-77z" />
    <glyph glyph-name="idieresis" unicode="&#xef;" horiz-adv-x="242" 
d="M75 0v516h92v-516h-92zM156 621v105h89v-105h-89zM-3 621v105h89v-105h-89z" />
    <glyph glyph-name="eth" unicode="&#xf0;" horiz-adv-x="566" 
d="M280 -15q-112 0 -176 75t-64 188t67 185t157 72q61 0 116 -37l4 3q-54 72 -116 131l-102 -61l-34 50l89 53q-47 41 -100 82h114q25 -19 52 -42l89 53l35 -50l-77 -46q191 -186 191 -377q0 -119 -65 -199t-180 -80zM279 58q73 0 112.5 56.5t39.5 135.5q0 78 -38.5 131.5
t-109.5 53.5q-72 0 -110 -56t-38 -136q0 -78 36.5 -131.5t107.5 -53.5z" />
    <glyph glyph-name="ntilde" unicode="&#xf1;" horiz-adv-x="575" 
d="M75 0v516h85v-66q58 77 164 77q128 0 164 -92q18 -45 18 -126v-309h-92v291q0 35 -3.5 60t-14 50.5t-34 39t-58.5 13.5q-66 0 -101.5 -46.5t-35.5 -137.5v-270h-92zM132 612q6 50 29.5 78.5t62.5 28.5q20 0 67.5 -20t66.5 -20q32 0 41 38h54q-6 -50 -29.5 -78.5
t-62.5 -28.5q-20 0 -67.5 20t-66.5 20q-33 0 -41 -38h-54z" />
    <glyph glyph-name="ograve" unicode="&#xf2;" horiz-adv-x="580" 
d="M288 -15q-114 0 -181 75.5t-67 197.5q0 121 67.5 197t181.5 76t182.5 -76t68.5 -197q0 -122 -68 -197.5t-184 -75.5zM288 58q72 0 114.5 54.5t42.5 144.5t-42.5 145t-113.5 55q-70 0 -112 -54t-42 -144q0 -91 41.5 -146t111.5 -55zM258 600l-116 126h105l88 -126h-77z
" />
    <glyph glyph-name="oacute" unicode="&#xf3;" horiz-adv-x="580" 
d="M288 -15q-114 0 -181 75.5t-67 197.5q0 121 67.5 197t181.5 76t182.5 -76t68.5 -197q0 -122 -68 -197.5t-184 -75.5zM288 58q72 0 114.5 54.5t42.5 144.5t-42.5 145t-113.5 55q-70 0 -112 -54t-42 -144q0 -91 41.5 -146t111.5 -55zM243 600l89 126h104l-116 -126h-77z
" />
    <glyph glyph-name="ocircumflex" unicode="&#xf4;" horiz-adv-x="580" 
d="M288 -15q-114 0 -181 75.5t-67 197.5q0 121 67.5 197t181.5 76t182.5 -76t68.5 -197q0 -122 -68 -197.5t-184 -75.5zM288 58q72 0 114.5 54.5t42.5 144.5t-42.5 145t-113.5 55q-70 0 -112 -54t-42 -144q0 -91 41.5 -146t111.5 -55zM137 600l93 126h122l93 -126h-89
l-66 88l-67 -88h-86z" />
    <glyph glyph-name="otilde" unicode="&#xf5;" horiz-adv-x="580" 
d="M288 -15q-114 0 -181 75.5t-67 197.5q0 121 67.5 197t181.5 76t182.5 -76t68.5 -197q0 -122 -68 -197.5t-184 -75.5zM288 58q72 0 114.5 54.5t42.5 144.5t-42.5 145t-113.5 55q-70 0 -112 -54t-42 -144q0 -91 41.5 -146t111.5 -55zM125 612q6 50 29.5 78.5t62.5 28.5
q20 0 67.5 -20t66.5 -20q32 0 41 38h54q-6 -50 -29.5 -78.5t-62.5 -28.5q-20 0 -67.5 20t-66.5 20q-33 0 -41 -38h-54z" />
    <glyph glyph-name="odieresis" unicode="&#xf6;" horiz-adv-x="580" 
d="M288 -15q-114 0 -181 75.5t-67 197.5q0 121 67.5 197t181.5 76t182.5 -76t68.5 -197q0 -122 -68 -197.5t-184 -75.5zM288 58q72 0 114.5 54.5t42.5 144.5t-42.5 145t-113.5 55q-70 0 -112 -54t-42 -144q0 -91 41.5 -146t111.5 -55zM343 621v105h90v-105h-90zM147 621v105
h90v-105h-90z" />
    <glyph glyph-name="divide" unicode="&#xf7;" 
d="M265 53v103h99v-103h-99zM364 489v-103h-99v103h99zM70 232v77h489v-77h-489z" />
    <glyph glyph-name="oslash" unicode="&#xf8;" horiz-adv-x="588" 
d="M107 -53l-54 42l55 74q-64 75 -64 195q0 121 67.5 197t181.5 76q77 0 137 -38l52 69l54 -41l-55 -73q63 -76 63 -190q0 -122 -68 -197.5t-184 -75.5q-73 0 -131 34zM292 58q72 0 114.5 54.5t42.5 144.5q0 65 -25 115l-215 -288q35 -26 83 -26zM164 138l217 289
q-38 30 -88 30q-70 0 -112 -54t-42 -144q0 -69 25 -121z" />
    <glyph glyph-name="ugrave" unicode="&#xf9;" horiz-adv-x="572" 
d="M249 -11q-118 0 -163 92q-17 35 -17 135v300h91v-291q0 -35 3.5 -59.5t13.5 -50.5t33.5 -39.5t58.5 -13.5q66 0 101.5 46t35.5 137v271h91v-516h-85v66q-57 -77 -163 -77zM253 600l-116 126h105l88 -126h-77z" />
    <glyph glyph-name="uacute" unicode="&#xfa;" horiz-adv-x="572" 
d="M249 -11q-118 0 -163 92q-17 35 -17 135v300h91v-291q0 -35 3.5 -59.5t13.5 -50.5t33.5 -39.5t58.5 -13.5q66 0 101.5 46t35.5 137v271h91v-516h-85v66q-57 -77 -163 -77zM238 600l89 126h104l-116 -126h-77z" />
    <glyph glyph-name="ucircumflex" unicode="&#xfb;" horiz-adv-x="572" 
d="M249 -11q-118 0 -163 92q-17 35 -17 135v300h91v-291q0 -35 3.5 -59.5t13.5 -50.5t33.5 -39.5t58.5 -13.5q66 0 101.5 46t35.5 137v271h91v-516h-85v66q-57 -77 -163 -77zM132 600l93 126h122l93 -126h-89l-66 88l-67 -88h-86z" />
    <glyph glyph-name="udieresis" unicode="&#xfc;" horiz-adv-x="572" 
d="M249 -11q-118 0 -163 92q-17 35 -17 135v300h91v-291q0 -35 3.5 -59.5t13.5 -50.5t33.5 -39.5t58.5 -13.5q66 0 101.5 46t35.5 137v271h91v-516h-85v66q-57 -77 -163 -77zM338 621v105h90v-105h-90zM142 621v105h90v-105h-90z" />
    <glyph glyph-name="yacute" unicode="&#xfd;" horiz-adv-x="511" 
d="M107 -205q-33 0 -60 5v77q24 -6 44 -6q48 0 74 30.5t42 87.5l-196 527h102l90 -258q12 -35 30.5 -100t22.5 -77h5q28 101 55 177l91 258h93l-192 -516q-40 -105 -83 -155t-118 -50zM209 600l89 126h104l-116 -126h-77z" />
    <glyph glyph-name="thorn" unicode="&#xfe;" horiz-adv-x="585" 
d="M75 -201v927h92v-276q52 77 161 77q101 0 158.5 -74.5t57.5 -194.5q0 -124 -61.5 -196.5t-158.5 -72.5q-112 0 -157 69v-259h-92zM310 62q64 0 102 52t38 144t-38 144t-102 52q-65 0 -105 -54.5t-40 -141.5q0 -88 40 -142t105 -54z" />
    <glyph glyph-name="ydieresis" unicode="&#xff;" horiz-adv-x="511" 
d="M107 -205q-33 0 -60 5v77q24 -6 44 -6q48 0 74 30.5t42 87.5l-196 527h102l90 -258q12 -35 30.5 -100t22.5 -77h5q28 101 55 177l91 258h93l-192 -516q-40 -105 -83 -155t-118 -50zM309 621v105h90v-105h-90zM113 621v105h90v-105h-90z" />
    <glyph glyph-name="Amacron" unicode="&#x100;" horiz-adv-x="696" 
d="M3 0l295 726h99l298 -726h-107l-84 211h-318l-79 -211h-104zM218 291h257l-69 187q-6 15 -26.5 69.5t-30.5 83.5h-4q-35 -102 -54 -151zM216 809v70h266v-70h-266z" />
    <glyph glyph-name="amacron" unicode="&#x101;" horiz-adv-x="540" 
d="M218 -11q-84 0 -131.5 43t-47.5 113q0 31 10 55.5t25 41.5t40.5 30t48 20t56 12.5t56.5 8t57.5 5.5t50.5 5v18q0 121 -114 121q-55 0 -87.5 -27t-32.5 -78h-91q0 79 58.5 126.5t152.5 47.5q56 0 96 -15t60.5 -36.5t31.5 -56.5t13.5 -61t2.5 -65v-141q0 -95 13 -156h-86
q-6 29 -7 70q-61 -81 -175 -81zM239 56q144 0 144 167v29q-12 -2 -45 -4.5t-55.5 -5t-53.5 -9.5t-50 -17t-33 -29t-14 -44q0 -38 29 -62.5t78 -24.5zM140 633v70h264v-70h-264z" />
    <glyph glyph-name="Abreve" unicode="&#x102;" horiz-adv-x="696" 
d="M3 0l295 726h99l298 -726h-107l-84 211h-318l-79 -211h-104zM218 291h257l-69 187q-6 15 -26.5 69.5t-30.5 83.5h-4q-35 -102 -54 -151zM350 784q-66 0 -104.5 34t-41.5 86h82q7 -60 64 -60t64 60h82q-3 -52 -41.5 -86t-104.5 -34z" />
    <glyph glyph-name="abreve" unicode="&#x103;" horiz-adv-x="540" 
d="M218 -11q-84 0 -131.5 43t-47.5 113q0 31 10 55.5t25 41.5t40.5 30t48 20t56 12.5t56.5 8t57.5 5.5t50.5 5v18q0 121 -114 121q-55 0 -87.5 -27t-32.5 -78h-91q0 79 58.5 126.5t152.5 47.5q56 0 96 -15t60.5 -36.5t31.5 -56.5t13.5 -61t2.5 -65v-141q0 -95 13 -156h-86
q-6 29 -7 70q-61 -81 -175 -81zM239 56q144 0 144 167v29q-12 -2 -45 -4.5t-55.5 -5t-53.5 -9.5t-50 -17t-33 -29t-14 -44q0 -38 29 -62.5t78 -24.5zM273 597q-64 0 -103.5 33t-39.5 96h76q0 -73 67 -73q66 0 66 73h76q0 -64 -39.5 -96.5t-102.5 -32.5z" />
    <glyph glyph-name="Aogonek" unicode="&#x104;" horiz-adv-x="696" 
d="M646 -205q-46 0 -77.5 27t-31.5 69q0 56 63 109h-12l-84 211h-318l-79 -211h-104l295 726h99l298 -726q-84 -45 -84 -96q0 -19 13 -31t37 -12q18 0 34 6v-65q-17 -7 -49 -7zM218 291h257l-69 187q-6 15 -26.5 69.5t-30.5 83.5h-4q-35 -102 -54 -151z" />
    <glyph glyph-name="aogonek" unicode="&#x105;" horiz-adv-x="540" 
d="M437 -205q-46 0 -77.5 27t-31.5 69q0 60 70 115q-4 27 -5 64q-61 -81 -175 -81q-84 0 -131.5 43t-47.5 113q0 31 10 55.5t25 41.5t40.5 30t48 20t56 12.5t56.5 8t57.5 5.5t50.5 5v18q0 121 -114 121q-55 0 -87.5 -27t-32.5 -78h-91q0 79 58.5 126.5t152.5 47.5
q56 0 96 -15t60.5 -36.5t31.5 -56.5t13.5 -61t2.5 -65v-141q0 -95 13 -156q-84 -45 -84 -96q0 -19 13 -31t37 -12q18 0 34 6v-65q-18 -7 -49 -7zM239 56q144 0 144 167v29q-12 -2 -45 -4.5t-55.5 -5t-53.5 -9.5t-50 -17t-33 -29t-14 -44q0 -38 29 -62.5t78 -24.5z" />
    <glyph glyph-name="Cacute" unicode="&#x106;" horiz-adv-x="700" 
d="M375 -15q-104 0 -179.5 51t-112 135.5t-36.5 191.5q0 163 87 270.5t239 107.5q124 0 202.5 -70t89.5 -182h-101q-13 83 -62.5 128.5t-128.5 45.5q-101 0 -162.5 -82.5t-61.5 -217.5t62.5 -217.5t163.5 -82.5q77 0 127 47.5t64 130.5h102q-18 -113 -96 -184.5t-197 -71.5z
M325 791l96 114h111l-126 -114h-81z" />
    <glyph glyph-name="cacute" unicode="&#x107;" horiz-adv-x="531" 
d="M281 -15q-115 0 -178 74t-63 199q0 120 65 196.5t178 76.5q92 0 148.5 -48t68.5 -136h-96q-17 110 -122 110q-70 0 -108 -54t-38 -145t38.5 -145.5t107.5 -54.5q105 0 129 115h90q-33 -188 -220 -188zM232 600l89 126h104l-116 -126h-77z" />
    <glyph glyph-name="Ccircumflex" unicode="&#x108;" horiz-adv-x="700" 
d="M375 -15q-104 0 -179.5 51t-112 135.5t-36.5 191.5q0 163 87 270.5t239 107.5q124 0 202.5 -70t89.5 -182h-101q-13 83 -62.5 128.5t-128.5 45.5q-101 0 -162.5 -82.5t-61.5 -217.5t62.5 -217.5t163.5 -82.5q77 0 127 47.5t64 130.5h102q-18 -113 -96 -184.5t-197 -71.5z
M222 791l96 114h114l95 -114h-88l-65 75l-66 -75h-86z" />
    <glyph glyph-name="ccircumflex" unicode="&#x109;" horiz-adv-x="531" 
d="M281 -15q-115 0 -178 74t-63 199q0 120 65 196.5t178 76.5q92 0 148.5 -48t68.5 -136h-96q-17 110 -122 110q-70 0 -108 -54t-38 -145t38.5 -145.5t107.5 -54.5q105 0 129 115h90q-33 -188 -220 -188zM126 600l93 126h122l93 -126h-89l-66 88l-67 -88h-86z" />
    <glyph glyph-name="Cdotaccent" unicode="&#x10a;" horiz-adv-x="700" 
d="M375 -15q-104 0 -179.5 51t-112 135.5t-36.5 191.5q0 163 87 270.5t239 107.5q124 0 202.5 -70t89.5 -182h-101q-13 83 -62.5 128.5t-128.5 45.5q-101 0 -162.5 -82.5t-61.5 -217.5t62.5 -217.5t163.5 -82.5q77 0 127 47.5t64 130.5h102q-18 -113 -96 -184.5t-197 -71.5z
M328 798v100h94v-100h-94z" />
    <glyph glyph-name="cdotaccent" unicode="&#x10b;" horiz-adv-x="531" 
d="M281 -15q-115 0 -178 74t-63 199q0 120 65 196.5t178 76.5q92 0 148.5 -48t68.5 -136h-96q-17 110 -122 110q-70 0 -108 -54t-38 -145t38.5 -145.5t107.5 -54.5q105 0 129 115h90q-33 -188 -220 -188zM233 626v100h92v-100h-92z" />
    <glyph glyph-name="Ccaron" unicode="&#x10c;" horiz-adv-x="700" 
d="M375 -15q-104 0 -179.5 51t-112 135.5t-36.5 191.5q0 163 87 270.5t239 107.5q124 0 202.5 -70t89.5 -182h-101q-13 83 -62.5 128.5t-128.5 45.5q-101 0 -162.5 -82.5t-61.5 -217.5t62.5 -217.5t163.5 -82.5q77 0 127 47.5t64 130.5h102q-18 -113 -96 -184.5t-197 -71.5z
M317 791l-95 114h88l65 -75l66 75h86l-96 -114h-114z" />
    <glyph glyph-name="ccaron" unicode="&#x10d;" horiz-adv-x="531" 
d="M281 -15q-115 0 -178 74t-63 199q0 120 65 196.5t178 76.5q92 0 148.5 -48t68.5 -136h-96q-17 110 -122 110q-70 0 -108 -54t-38 -145t38.5 -145.5t107.5 -54.5q105 0 129 115h90q-33 -188 -220 -188zM221 600l-93 126h84l66 -89l67 89h84l-93 -126h-115z" />
    <glyph glyph-name="Dcaron" unicode="&#x10e;" horiz-adv-x="710" 
d="M87 0v726h210q148 0 225 -53q68 -48 104.5 -128.5t36.5 -181.5q0 -99 -38.5 -179t-108.5 -128q-82 -56 -219 -56h-210zM185 80h99q130 0 192 55q40 34 62 95t22 133q0 73 -20.5 134.5t-59.5 95.5q-60 53 -196 53h-99v-566zM277 791l-95 114h88l65 -75l66 75h86l-96 -114
h-114z" />
    <glyph glyph-name="dcaron" unicode="&#x10f;" horiz-adv-x="601" 
d="M262 -11q-103 0 -162 70.5t-59 198.5q0 117 61 193t160 76q110 0 156 -71v270h92v-726h-88v68q-53 -79 -160 -79zM275 62q66 0 105.5 53t39.5 143q0 91 -39.5 143.5t-105.5 52.5q-64 0 -101.5 -52t-37.5 -144q0 -90 37.5 -143t101.5 -53zM575 574l8 152h84v-22l-30 -130
h-62z" />
    <glyph glyph-name="Dcroat" unicode="&#x110;" horiz-adv-x="740" 
d="M117 0v335h-97v77h97v314h210q148 0 225 -53q68 -48 104.5 -128.5t36.5 -181.5q0 -99 -38.5 -179t-108.5 -128q-82 -56 -219 -56h-210zM215 80h99q130 0 192 55q40 34 62 95t22 133q0 73 -20.5 134.5t-59.5 95.5q-60 53 -196 53h-99v-234h127v-77h-127v-255z" />
    <glyph glyph-name="dcroat" unicode="&#x111;" horiz-adv-x="585" 
d="M262 -11q-103 0 -162 69.5t-59 194.5q0 115 61 189.5t160 74.5q109 0 156 -70v140h-122v68h122v71h92v-71h77v-68h-77v-587h-88v67q-54 -78 -160 -78zM275 62q66 0 105.5 52t39.5 139q0 89 -39.5 140t-105.5 51q-64 0 -101.5 -51t-37.5 -140q0 -88 37.5 -139.5
t101.5 -51.5z" />
    <glyph glyph-name="Emacron" unicode="&#x112;" horiz-adv-x="598" 
d="M87 0v726h452v-81h-354v-233h338v-82h-338v-249h371v-81h-469zM192 809v70h266v-70h-266z" />
    <glyph glyph-name="emacron" unicode="&#x113;" horiz-adv-x="562" 
d="M285 -15q-118 0 -181.5 72t-63.5 201q0 119 67.5 196t179.5 77q234 0 234 -302h-385q4 -76 46.5 -123.5t105.5 -47.5q107 0 135 96h97q-16 -81 -80 -125t-155 -44zM138 304h285q-7 76 -44.5 114.5t-95.5 38.5q-60 0 -97.5 -38.5t-47.5 -114.5zM155 633v70h264v-70h-264z
" />
    <glyph glyph-name="Ebreve" unicode="&#x114;" horiz-adv-x="598" 
d="M87 0v726h452v-81h-354v-233h338v-82h-338v-249h371v-81h-469zM326 784q-66 0 -104.5 34t-41.5 86h82q7 -60 64 -60t64 60h82q-3 -52 -41.5 -86t-104.5 -34z" />
    <glyph glyph-name="ebreve" unicode="&#x115;" horiz-adv-x="562" 
d="M285 -15q-118 0 -181.5 72t-63.5 201q0 119 67.5 196t179.5 77q234 0 234 -302h-385q4 -76 46.5 -123.5t105.5 -47.5q107 0 135 96h97q-16 -81 -80 -125t-155 -44zM138 304h285q-7 76 -44.5 114.5t-95.5 38.5q-60 0 -97.5 -38.5t-47.5 -114.5zM288 597q-64 0 -103.5 33
t-39.5 96h76q0 -73 67 -73q66 0 66 73h76q0 -64 -39.5 -96.5t-102.5 -32.5z" />
    <glyph glyph-name="Edotaccent" unicode="&#x116;" horiz-adv-x="598" 
d="M87 0v726h452v-81h-354v-233h338v-82h-338v-249h371v-81h-469zM278 798v100h94v-100h-94z" />
    <glyph glyph-name="edotaccent" unicode="&#x117;" horiz-adv-x="562" 
d="M285 -15q-118 0 -181.5 72t-63.5 201q0 119 67.5 196t179.5 77q234 0 234 -302h-385q4 -76 46.5 -123.5t105.5 -47.5q107 0 135 96h97q-16 -81 -80 -125t-155 -44zM138 304h285q-7 76 -44.5 114.5t-95.5 38.5q-60 0 -97.5 -38.5t-47.5 -114.5zM241 626v100h92v-100h-92z
" />
    <glyph glyph-name="Eogonek" unicode="&#x118;" horiz-adv-x="598" 
d="M87 0v726h452v-81h-354v-233h338v-82h-338v-249h371v-81q-84 -45 -84 -96q0 -19 13 -31t37 -12q18 0 34 6v-65q-18 -7 -49 -7q-46 0 -77.5 27t-31.5 69q0 56 63 109h-374z" />
    <glyph glyph-name="eogonek" unicode="&#x119;" horiz-adv-x="562" 
d="M361 -205q-50 0 -80.5 27t-30.5 69q0 47 54 95q-6 -1 -19 -1q-118 0 -181.5 72t-63.5 201q0 119 67.5 196t179.5 77q225 0 234 -281v-21h-385q4 -76 46.5 -123.5t105.5 -47.5q107 0 135 96h97q-17 -81 -88 -130q-106 -73 -106 -120q0 -19 12.5 -31t34.5 -12q26 0 42 8
v-65q-19 -9 -54 -9zM138 304h285q-7 76 -44.5 114.5t-95.5 38.5q-60 0 -97.5 -38.5t-47.5 -114.5z" />
    <glyph glyph-name="Ecaron" unicode="&#x11a;" horiz-adv-x="598" 
d="M87 0v726h452v-81h-354v-233h338v-82h-338v-249h371v-81h-469zM267 791l-95 114h88l65 -75l66 75h86l-96 -114h-114z" />
    <glyph glyph-name="ecaron" unicode="&#x11b;" horiz-adv-x="562" 
d="M285 -15q-118 0 -181.5 72t-63.5 201q0 119 67.5 196t179.5 77q234 0 234 -302h-385q4 -76 46.5 -123.5t105.5 -47.5q107 0 135 96h97q-16 -81 -80 -125t-155 -44zM138 304h285q-7 76 -44.5 114.5t-95.5 38.5q-60 0 -97.5 -38.5t-47.5 -114.5zM229 600l-93 126h84l66 -89
l67 89h84l-93 -126h-115z" />
    <glyph glyph-name="Gcircumflex" unicode="&#x11c;" horiz-adv-x="722" 
d="M358 -12q-154 0 -232.5 104t-78.5 271q0 163 89 270.5t241 107.5q121 0 195.5 -62t88.5 -164h-101q-13 70 -61.5 109t-121.5 39q-102 0 -165 -82.5t-63 -217.5t59.5 -216t160.5 -81q89 0 143.5 63t55.5 165h-178v82h273v-376h-86v30q0 44 3 63l-5 2q-74 -107 -217 -107z
M226 791l96 114h114l95 -114h-88l-65 75l-66 -75h-86z" />
    <glyph glyph-name="gcircumflex" unicode="&#x11d;" horiz-adv-x="576" 
d="M276 -205q-96 0 -151 41t-62 121h95q6 -93 120 -93q70 0 103.5 40.5t33.5 139.5v51q-32 -43 -69.5 -60.5t-93.5 -17.5q-95 0 -153 70t-58 181q0 106 59 182.5t157 76.5q115 0 160 -83v72h85v-442q0 -140 -50 -209.5t-176 -69.5zM275 88q65 0 103 51t38 138q0 79 -39 129
t-102 50q-66 0 -103 -48.5t-37 -129.5q0 -89 37.5 -139.5t102.5 -50.5zM123 600l93 126h122l93 -126h-89l-66 88l-67 -88h-86z" />
    <glyph glyph-name="Gbreve" unicode="&#x11e;" horiz-adv-x="722" 
d="M358 -12q-154 0 -232.5 104t-78.5 271q0 163 89 270.5t241 107.5q121 0 195.5 -62t88.5 -164h-101q-13 70 -61.5 109t-121.5 39q-102 0 -165 -82.5t-63 -217.5t59.5 -216t160.5 -81q89 0 143.5 63t55.5 165h-178v82h273v-376h-86v30q0 44 3 63l-5 2q-74 -107 -217 -107z
M380 784q-66 0 -104.5 34t-41.5 86h82q7 -60 64 -60t64 60h82q-3 -52 -41.5 -86t-104.5 -34z" />
    <glyph glyph-name="gbreve" unicode="&#x11f;" horiz-adv-x="576" 
d="M276 -205q-96 0 -151 41t-62 121h95q6 -93 120 -93q70 0 103.5 40.5t33.5 139.5v51q-32 -43 -69.5 -60.5t-93.5 -17.5q-95 0 -153 70t-58 181q0 106 59 182.5t157 76.5q115 0 160 -83v72h85v-442q0 -140 -50 -209.5t-176 -69.5zM275 88q65 0 103 51t38 138q0 79 -39 129
t-102 50q-66 0 -103 -48.5t-37 -129.5q0 -89 37.5 -139.5t102.5 -50.5zM277 597q-64 0 -103.5 33t-39.5 96h76q0 -73 67 -73q66 0 66 73h76q0 -64 -39.5 -96.5t-102.5 -32.5z" />
    <glyph glyph-name="Gdotaccent" unicode="&#x120;" horiz-adv-x="722" 
d="M358 -12q-154 0 -232.5 104t-78.5 271q0 163 89 270.5t241 107.5q121 0 195.5 -62t88.5 -164h-101q-13 70 -61.5 109t-121.5 39q-102 0 -165 -82.5t-63 -217.5t59.5 -216t160.5 -81q89 0 143.5 63t55.5 165h-178v82h273v-376h-86v30q0 44 3 63l-5 2q-74 -107 -217 -107z
M332 798v100h94v-100h-94z" />
    <glyph glyph-name="gdotaccent" unicode="&#x121;" horiz-adv-x="576" 
d="M276 -205q-96 0 -151 41t-62 121h95q6 -93 120 -93q70 0 103.5 40.5t33.5 139.5v51q-32 -43 -69.5 -60.5t-93.5 -17.5q-95 0 -153 70t-58 181q0 106 59 182.5t157 76.5q115 0 160 -83v72h85v-442q0 -140 -50 -209.5t-176 -69.5zM275 88q65 0 103 51t38 138q0 79 -39 129
t-102 50q-66 0 -103 -48.5t-37 -129.5q0 -89 37.5 -139.5t102.5 -50.5zM230 626v100h92v-100h-92z" />
    <glyph glyph-name="uni0122" unicode="&#x122;" horiz-adv-x="722" 
d="M358 -12q-154 0 -232.5 104t-78.5 271q0 163 89 270.5t241 107.5q121 0 195.5 -62t88.5 -164h-101q-13 70 -61.5 109t-121.5 39q-102 0 -165 -82.5t-63 -217.5t59.5 -216t160.5 -81q89 0 143.5 63t55.5 165h-178v82h273v-376h-86v30q0 44 3 63l-5 2q-74 -107 -217 -107z
M324 -254l38 98h-40v93h101v-91l-48 -100h-51z" />
    <glyph glyph-name="uni0123" unicode="&#x123;" horiz-adv-x="576" 
d="M276 -205q-96 0 -151 41t-62 121h95q6 -93 120 -93q70 0 103.5 40.5t33.5 139.5v51q-32 -43 -69.5 -60.5t-93.5 -17.5q-95 0 -153 70t-58 181q0 106 59 182.5t157 76.5q115 0 160 -83v72h85v-442q0 -140 -50 -209.5t-176 -69.5zM275 88q65 0 103 51t38 138q0 79 -39 129
t-102 50q-66 0 -103 -48.5t-37 -129.5q0 -89 37.5 -139.5t102.5 -50.5zM324 774l-35 -98h36v-91h-95v91l46 98h48z" />
    <glyph glyph-name="Hcircumflex" unicode="&#x124;" horiz-adv-x="745" 
d="M87 0v726h98v-311h374v311h99v-726h-99v334h-374v-334h-98zM220 791l96 114h114l95 -114h-88l-65 75l-66 -75h-86z" />
    <glyph glyph-name="hcircumflex" unicode="&#x125;" horiz-adv-x="575" 
d="M75 0v726h92v-275q48 76 157 76q125 0 165 -92q17 -39 17 -126v-309h-92v290q0 35 -3.5 60t-14 51t-34 39.5t-58.5 13.5q-66 0 -101.5 -46.5t-35.5 -137.5v-270h-92zM176 905l87 -114h-83l-59 75l-60 -75h-82l88 114h109z" />
    <glyph glyph-name="Hbar" unicode="&#x126;" horiz-adv-x="786" 
d="M108 0v544h-82v75h82v107h98v-107h374v107h98v-107h82v-75h-82v-544h-98v319h-374v-319h-98zM206 400h374v144h-374v-144z" />
    <glyph glyph-name="hbar" unicode="&#x127;" horiz-adv-x="575" 
d="M75 0v587h-77v68h77v71h92v-71h122v-68h-122v-146q48 76 157 76q129 0 165 -92q17 -43 17 -126v-299h-92v280q0 35 -3.5 60t-14 51t-34 39.5t-58.5 13.5q-66 0 -101.5 -46.5t-35.5 -137.5v-260h-92z" />
    <glyph glyph-name="Itilde" unicode="&#x128;" horiz-adv-x="272" 
d="M-5 797q12 107 83 107q18 0 57 -20t56 -20q29 0 37 38h49q-12 -107 -83 -107q-18 0 -57 20t-56 20q-30 0 -37 -38h-49zM87 0v726h98v-726h-98z" />
    <glyph glyph-name="itilde" unicode="&#x129;" horiz-adv-x="242" 
d="M75 0v516h92v-516h-92zM-20 612q12 107 83 107q18 0 57 -20t56 -20q29 0 37 38h49q-12 -107 -83 -107q-18 0 -57 20t-56 20q-30 0 -37 -38h-49z" />
    <glyph glyph-name="Imacron" unicode="&#x12a;" horiz-adv-x="272" 
d="M87 0v726h98v-726h-98zM3 809v70h266v-70h-266z" />
    <glyph glyph-name="imacron" unicode="&#x12b;" horiz-adv-x="242" 
d="M75 0v516h92v-516h-92zM-1 633v70h244v-70h-244z" />
    <glyph glyph-name="Ibreve" unicode="&#x12c;" horiz-adv-x="272" 
d="M87 0v726h98v-726h-98zM137 784q-66 0 -104.5 34t-41.5 86h82q7 -60 64 -60t64 60h82q-3 -52 -41.5 -86t-104.5 -34z" />
    <glyph glyph-name="ibreve" unicode="&#x12d;" horiz-adv-x="242" 
d="M75 0v516h92v-516h-92zM121 597q-58 0 -94 33t-36 96h73q0 -73 57 -73q56 0 56 73h74q0 -63 -36 -96t-94 -33z" />
    <glyph glyph-name="Iogonek" unicode="&#x12e;" horiz-adv-x="272" 
d="M139 -205q-49 0 -79 27t-30 69q0 54 57 109v726h98v-726q-80 -46 -80 -96q0 -19 12 -31t34 -12q25 0 41 8v-65q-19 -9 -53 -9z" />
    <glyph glyph-name="iogonek" unicode="&#x12f;" horiz-adv-x="242" 
d="M121 -205q-49 0 -79 27t-30 69q0 56 63 109v516h92v-516q-80 -46 -80 -96q0 -19 12 -31t34 -12q25 0 41 8v-65q-19 -9 -53 -9zM75 626v100h92v-100h-92z" />
    <glyph glyph-name="Idotaccent" unicode="&#x130;" horiz-adv-x="272" 
d="M87 0v726h98v-726h-98zM89 798v100h94v-100h-94z" />
    <glyph glyph-name="dotlessi" unicode="&#x131;" horiz-adv-x="242" 
d="M75 0v516h92v-516h-92z" />
    <glyph glyph-name="IJ" unicode="&#x132;" horiz-adv-x="636" 
d="M87 0v726h98v-726h-98zM371 -8q-41 0 -82 8v84q29 -6 66 -6q57 0 79.5 33t22.5 123v492h98v-503q0 -118 -42 -174.5t-142 -56.5z" />
    <glyph glyph-name="ij" unicode="&#x133;" horiz-adv-x="486" 
d="M75 0v516h92v-516h-92zM75 626v100h92v-100h-92zM285 -205q-25 0 -68 5v78q15 -5 45 -5q35 0 46 27t11 86v530h92v-518q0 -116 -27 -159.5t-99 -43.5zM319 626v100h92v-100h-92z" />
    <glyph glyph-name="Jcircumflex" unicode="&#x134;" horiz-adv-x="362" 
d="M97 -8q-41 0 -82 8v84q29 -6 66 -6q57 0 79.5 33t22.5 123v492h98v-503q0 -118 -42 -174.5t-142 -56.5zM77 791l96 114h114l95 -114h-88l-65 75l-66 -75h-86z" />
    <glyph glyph-name="jcircumflex" unicode="&#x135;" horiz-adv-x="242" 
d="M-15 600l83 126h109l82 -126h-78l-59 85l-60 -85h-77zM41 -205q-25 0 -68 5v78q15 -5 45 -5q35 0 46 27t11 86v530h92v-518q0 -116 -27 -159.5t-99 -43.5z" />
    <glyph glyph-name="uni0136" unicode="&#x136;" horiz-adv-x="620" 
d="M87 0v726h98v-324l300 324h116l-318 -334l344 -392h-126l-316 369v-369h-98zM263 -254l38 98h-40v93h101v-91l-48 -100h-51z" />
    <glyph glyph-name="uni0137" unicode="&#x137;" horiz-adv-x="500" 
d="M75 0v726h92v-422l209 212h109l-228 -226l251 -290h-116l-225 270v-270h-92zM213 -253l35 98h-36v91h95v-91l-46 -98h-48z" />
    <glyph glyph-name="kgreenlandic" unicode="&#x138;" horiz-adv-x="499" 
d="M75 0v516h92v-235l209 235h109l-228 -249l251 -267h-116l-225 247v-247h-92z" />
    <glyph glyph-name="Lacute" unicode="&#x139;" horiz-adv-x="553" 
d="M87 0v726h98v-644h355v-82h-453zM84 791l96 114h111l-126 -114h-81z" />
    <glyph glyph-name="lacute" unicode="&#x13a;" horiz-adv-x="242" 
d="M75 0v726h92v-726h-92zM74 791l96 114h111l-126 -114h-81z" />
    <glyph glyph-name="uni013B" unicode="&#x13b;" horiz-adv-x="553" 
d="M87 0v726h98v-644h355v-82h-453zM266 -254l38 98h-40v93h101v-91l-48 -100h-51z" />
    <glyph glyph-name="uni013C" unicode="&#x13c;" horiz-adv-x="242" 
d="M75 0v726h92v-726h-92zM75 -253l35 98h-36v91h95v-91l-46 -98h-48z" />
    <glyph glyph-name="Lcaron" unicode="&#x13d;" horiz-adv-x="553" 
d="M87 0v726h98v-644h355v-82h-453zM318 574l8 152h84v-22l-30 -130h-62z" />
    <glyph glyph-name="lcaron" unicode="&#x13e;" horiz-adv-x="258" 
d="M75 0v726h92v-726h-92zM232 574l8 152h84v-22l-30 -130h-62z" />
    <glyph glyph-name="Ldot" unicode="&#x13f;" horiz-adv-x="554" 
d="M87 0v726h98v-644h355v-82h-453zM362 338v100h93v-100h-93z" />
    <glyph glyph-name="ldot" unicode="&#x140;" horiz-adv-x="318" 
d="M75 0v726h92v-726h-92zM234 338v100h92v-100h-92z" />
    <glyph glyph-name="Lslash" unicode="&#x141;" horiz-adv-x="595" 
d="M38 193v87l91 57v389h98v-336l196 128v-91l-196 -125v-220h355v-82h-453v251z" />
    <glyph glyph-name="lslash" unicode="&#x142;" horiz-adv-x="318" 
d="M34 246v83l83 63v334h92v-275l83 66v-85l-83 -63v-369h-92v310z" />
    <glyph glyph-name="Nacute" unicode="&#x143;" horiz-adv-x="749" 
d="M87 0v726h134q305 -529 351 -624h5q-6 158 -6 262v362h91v-726h-132q-310 544 -355 633h-5q7 -189 7 -271v-362h-90zM325 791l96 114h111l-126 -114h-81z" />
    <glyph glyph-name="nacute" unicode="&#x144;" horiz-adv-x="575" 
d="M75 0v516h85v-66q58 77 164 77q128 0 164 -92q18 -45 18 -126v-309h-92v291q0 35 -3.5 60t-14 50.5t-34 39t-58.5 13.5q-66 0 -101.5 -46.5t-35.5 -137.5v-270h-92zM244 600l89 126h104l-116 -126h-77z" />
    <glyph glyph-name="uni0145" unicode="&#x145;" horiz-adv-x="749" 
d="M87 0v726h134q305 -529 351 -624h5q-6 158 -6 262v362h91v-726h-132q-310 544 -355 633h-5q7 -189 7 -271v-362h-90zM325 -254l38 98h-40v93h101v-91l-48 -100h-51z" />
    <glyph glyph-name="uni0146" unicode="&#x146;" horiz-adv-x="575" 
d="M75 0v516h85v-66q58 77 164 77q128 0 164 -92q18 -45 18 -126v-309h-92v291q0 35 -3.5 60t-14 50.5t-34 39t-58.5 13.5q-66 0 -101.5 -46.5t-35.5 -137.5v-270h-92zM242 -253l35 98h-36v91h95v-91l-46 -98h-48z" />
    <glyph glyph-name="Ncaron" unicode="&#x147;" horiz-adv-x="749" 
d="M87 0v726h134q305 -529 351 -624h5q-6 158 -6 262v362h91v-726h-132q-310 544 -355 633h-5q7 -189 7 -271v-362h-90zM317 791l-95 114h88l65 -75l66 75h86l-96 -114h-114z" />
    <glyph glyph-name="ncaron" unicode="&#x148;" horiz-adv-x="575" 
d="M75 0v516h85v-66q58 77 164 77q128 0 164 -92q18 -45 18 -126v-309h-92v291q0 35 -3.5 60t-14 50.5t-34 39t-58.5 13.5q-66 0 -101.5 -46.5t-35.5 -137.5v-270h-92zM233 600l-93 126h84l66 -89l67 89h84l-93 -126h-115z" />
    <glyph glyph-name="napostrophe" unicode="&#x149;" horiz-adv-x="672" 
d="M172 0v516h85v-66q58 77 164 77q128 0 164 -92q18 -45 18 -126v-309h-92v291q0 35 -3.5 60t-14 50.5t-34 39t-58.5 13.5q-66 0 -101.5 -46.5t-35.5 -137.5v-270h-92zM121 630l-48 -98h-48l38 97h-39v94h97v-93z" />
    <glyph glyph-name="Eng" unicode="&#x14a;" horiz-adv-x="749" 
d="M490 -205q-34 0 -75 7v74q28 -6 61 -6q93 0 93 130l-394 633h-5l1 -29q6 -164 6 -242v-362h-90v726h134l351 -567h5q-6 184 -6 267v300h91v-701q0 -117 -40 -173.5t-132 -56.5z" />
    <glyph glyph-name="eng" unicode="&#x14b;" horiz-adv-x="573" 
d="M378 -205q-25 0 -68 5v78q15 -5 45 -5q35 0 46.5 27t11.5 86v300q0 86 -25 126.5t-84 40.5q-137 0 -137 -187v-266h-92v516h85v-67q59 78 162 78q100 0 141 -55t41 -163v-311q0 -116 -26.5 -159.5t-99.5 -43.5z" />
    <glyph glyph-name="Omacron" unicode="&#x14c;" horiz-adv-x="763" 
d="M381 -15q-151 0 -242.5 104.5t-91.5 273.5q0 168 91.5 273t242.5 105t243 -105t92 -273q0 -171 -91.5 -274.5t-243.5 -103.5zM381 63q105 0 169 84.5t64 215.5t-64 215.5t-169 84.5q-104 0 -168 -84.5t-64 -215.5t64 -215.5t168 -84.5zM249 809v70h266v-70h-266z" />
    <glyph glyph-name="omacron" unicode="&#x14d;" horiz-adv-x="580" 
d="M288 -15q-114 0 -181 75.5t-67 197.5q0 121 67.5 197t181.5 76t182.5 -76t68.5 -197q0 -122 -68 -197.5t-184 -75.5zM288 58q72 0 114.5 54.5t42.5 144.5t-42.5 145t-113.5 55q-70 0 -112 -54t-42 -144q0 -91 41.5 -146t111.5 -55zM158 633v70h264v-70h-264z" />
    <glyph glyph-name="Obreve" unicode="&#x14e;" horiz-adv-x="763" 
d="M381 -15q-151 0 -242.5 104.5t-91.5 273.5q0 168 91.5 273t242.5 105t243 -105t92 -273q0 -171 -91.5 -274.5t-243.5 -103.5zM381 63q105 0 169 84.5t64 215.5t-64 215.5t-169 84.5q-104 0 -168 -84.5t-64 -215.5t64 -215.5t168 -84.5zM383 784q-66 0 -104.5 34t-41.5 86
h82q7 -60 64 -60t64 60h82q-3 -52 -41.5 -86t-104.5 -34z" />
    <glyph glyph-name="obreve" unicode="&#x14f;" horiz-adv-x="580" 
d="M288 -15q-114 0 -181 75.5t-67 197.5q0 121 67.5 197t181.5 76t182.5 -76t68.5 -197q0 -122 -68 -197.5t-184 -75.5zM288 58q72 0 114.5 54.5t42.5 144.5t-42.5 145t-113.5 55q-70 0 -112 -54t-42 -144q0 -91 41.5 -146t111.5 -55zM291 597q-64 0 -103.5 33t-39.5 96h76
q0 -73 67 -73q66 0 66 73h76q0 -64 -39.5 -96.5t-102.5 -32.5z" />
    <glyph glyph-name="Ohungarumlaut" unicode="&#x150;" horiz-adv-x="763" 
d="M381 -15q-151 0 -242.5 104.5t-91.5 273.5q0 168 91.5 273t242.5 105t243 -105t92 -273q0 -171 -91.5 -274.5t-243.5 -103.5zM381 63q105 0 169 84.5t64 215.5t-64 215.5t-169 84.5q-104 0 -168 -84.5t-64 -215.5t64 -215.5t168 -84.5zM436 791l99 114h105l-126 -114h-78
zM250 791l85 114h104l-115 -114h-74z" />
    <glyph glyph-name="ohungarumlaut" unicode="&#x151;" horiz-adv-x="580" 
d="M288 -15q-114 0 -181 75.5t-67 197.5q0 121 67.5 197t181.5 76t182.5 -76t68.5 -197q0 -122 -68 -197.5t-184 -75.5zM288 58q72 0 114.5 54.5t42.5 144.5t-42.5 145t-113.5 55q-70 0 -112 -54t-42 -144q0 -91 41.5 -146t111.5 -55zM337 600l91 126h99l-117 -126h-73z
M152 600l83 126h98l-111 -126h-70z" />
    <glyph glyph-name="OE" unicode="&#x152;" horiz-adv-x="982" 
d="M410 0q-160 0 -250 72q-113 90 -113 291q0 196 139 296q93 67 228 67h514v-81h-324v-230h301v-81h-301v-253h334v-81h-528zM422 81h83v564h-78q-278 0 -278 -282q0 -166 80 -231q65 -51 193 -51z" />
    <glyph glyph-name="oe" unicode="&#x153;" horiz-adv-x="929" 
d="M282 -15q-107 0 -175 76t-68 197q0 119 67.5 196t172.5 77q64 0 116.5 -30.5t81.5 -85.5q69 116 192 116q108 0 163.5 -74.5t57.5 -212.5v-10h-364q0 -46 12.5 -83.5t46.5 -65t85 -27.5q50 0 79.5 22.5t45.5 70.5h89q-36 -166 -215 -166q-62 0 -116 31t-75 89
q-26 -55 -79 -87.5t-117 -32.5zM287 58q68 0 108 54t40 146t-40.5 145.5t-109.5 53.5t-108 -53.5t-39 -145.5q0 -93 39 -146.5t110 -53.5zM528 306h271q-5 69 -39.5 110t-92.5 41t-96 -42t-43 -109z" />
    <glyph glyph-name="Racute" unicode="&#x154;" horiz-adv-x="648" 
d="M87 0v726h215q91 0 141 -15q62 -19 99 -66.5t37 -122.5q0 -65 -43.5 -115.5t-114.5 -66.5v-3q90 -5 122 -104l76 -233h-105l-65 206q-11 34 -26.5 54t-42.5 28.5t-48.5 10.5t-65.5 2h-81v-301h-98zM185 381h83q44 0 76 4t65.5 16.5t51.5 40.5t18 71q0 106 -108 127
q-31 6 -103 6h-83v-265zM257 791l96 114h111l-126 -114h-81z" />
    <glyph glyph-name="racute" unicode="&#x155;" horiz-adv-x="378" 
d="M75 0v516h87v-76q53 82 145 82q29 0 58 -6v-81q-40 7 -61 7q-78 0 -107.5 -51.5t-29.5 -153.5v-237h-92zM172 600l89 126h104l-116 -126h-77z" />
    <glyph glyph-name="uni0156" unicode="&#x156;" horiz-adv-x="648" 
d="M87 0v726h215q91 0 141 -15q62 -19 99 -66.5t37 -122.5q0 -65 -43.5 -115.5t-114.5 -66.5v-3q90 -5 122 -104l76 -233h-105l-65 206q-11 34 -26.5 54t-42.5 28.5t-48.5 10.5t-65.5 2h-81v-301h-98zM185 381h83q44 0 76 4t65.5 16.5t51.5 40.5t18 71q0 106 -108 127
q-31 6 -103 6h-83v-265zM283 -254l38 98h-40v93h101v-91l-48 -100h-51z" />
    <glyph glyph-name="uni0157" unicode="&#x157;" horiz-adv-x="378" 
d="M75 0v516h87v-76q53 82 145 82q29 0 58 -6v-81q-40 7 -61 7q-78 0 -107.5 -51.5t-29.5 -153.5v-237h-92zM76 -253l35 98h-36v91h95v-91l-46 -98h-48z" />
    <glyph glyph-name="Rcaron" unicode="&#x158;" horiz-adv-x="648" 
d="M87 0v726h215q91 0 141 -15q62 -19 99 -66.5t37 -122.5q0 -65 -43.5 -115.5t-114.5 -66.5v-3q90 -5 122 -104l76 -233h-105l-65 206q-11 34 -26.5 54t-42.5 28.5t-48.5 10.5t-65.5 2h-81v-301h-98zM185 381h83q44 0 76 4t65.5 16.5t51.5 40.5t18 71q0 106 -108 127
q-31 6 -103 6h-83v-265zM249 791l-95 114h88l65 -75l66 75h86l-96 -114h-114z" />
    <glyph glyph-name="rcaron" unicode="&#x159;" horiz-adv-x="378" 
d="M75 0v516h87v-76q53 82 145 82q29 0 58 -6v-81q-40 7 -61 7q-78 0 -107.5 -51.5t-29.5 -153.5v-237h-92zM161 600l-93 126h84l66 -89l67 89h84l-93 -126h-115z" />
    <glyph glyph-name="Sacute" unicode="&#x15a;" horiz-adv-x="623" 
d="M315 -15q-129 0 -201.5 66t-72.5 187h99q0 -85 45 -130t130 -45q76 0 119.5 34t43.5 91q0 26 -11.5 47.5t-26 34.5t-43.5 25.5t-49 18.5t-58 16q-43 12 -69 20.5t-62 26t-55.5 38t-34 53t-14.5 74.5q0 88 72 143.5t185 55.5q119 0 187 -61.5t68 -169.5h-96q0 75 -47 114
t-114 39q-62 0 -107 -30t-45 -85q0 -26 10.5 -46t23.5 -32.5t41.5 -25t47 -18t56.5 -16.5q45 -12 71 -20.5t64 -27t58.5 -39t36 -54t15.5 -75.5q0 -94 -74 -151.5t-193 -57.5zM262 791l96 114h111l-126 -114h-81z" />
    <glyph glyph-name="sacute" unicode="&#x15b;" horiz-adv-x="505" 
d="M260 -15q-107 0 -165.5 47.5t-59.5 133.5h93q0 -54 35 -82t99 -28q53 0 81.5 20t28.5 57q0 18 -8 32t-18 22.5t-30.5 15.5t-35 10.5t-41.5 8.5q-29 6 -39.5 8t-37 9t-37.5 13t-29.5 18.5t-27 27t-15 36t-6.5 47.5q0 66 55.5 108t146.5 42q98 0 151.5 -44.5t54.5 -128.5
h-91q-1 101 -117 101q-47 0 -75.5 -19.5t-28.5 -52.5q0 -39 31.5 -55.5t95.5 -28.5q30 -6 41 -8t38 -9.5t39 -14.5t31.5 -19.5t28 -27.5t15.5 -36.5t7 -48.5q0 -69 -59 -111.5t-151 -42.5zM203 600l89 126h104l-116 -126h-77z" />
    <glyph glyph-name="Scircumflex" unicode="&#x15c;" horiz-adv-x="623" 
d="M315 -15q-129 0 -201.5 66t-72.5 187h99q0 -85 45 -130t130 -45q76 0 119.5 34t43.5 91q0 26 -11.5 47.5t-26 34.5t-43.5 25.5t-49 18.5t-58 16q-43 12 -69 20.5t-62 26t-55.5 38t-34 53t-14.5 74.5q0 88 72 143.5t185 55.5q119 0 187 -61.5t68 -169.5h-96q0 75 -47 114
t-114 39q-62 0 -107 -30t-45 -85q0 -26 10.5 -46t23.5 -32.5t41.5 -25t47 -18t56.5 -16.5q45 -12 71 -20.5t64 -27t58.5 -39t36 -54t15.5 -75.5q0 -94 -74 -151.5t-193 -57.5zM159 791l96 114h114l95 -114h-88l-65 75l-66 -75h-86z" />
    <glyph glyph-name="scircumflex" unicode="&#x15d;" horiz-adv-x="505" 
d="M260 -15q-107 0 -165.5 47.5t-59.5 133.5h93q0 -54 35 -82t99 -28q53 0 81.5 20t28.5 57q0 18 -8 32t-18 22.5t-30.5 15.5t-35 10.5t-41.5 8.5q-29 6 -39.5 8t-37 9t-37.5 13t-29.5 18.5t-27 27t-15 36t-6.5 47.5q0 66 55.5 108t146.5 42q98 0 151.5 -44.5t54.5 -128.5
h-91q-1 101 -117 101q-47 0 -75.5 -19.5t-28.5 -52.5q0 -39 31.5 -55.5t95.5 -28.5q30 -6 41 -8t38 -9.5t39 -14.5t31.5 -19.5t28 -27.5t15.5 -36.5t7 -48.5q0 -69 -59 -111.5t-151 -42.5zM97 600l93 126h122l93 -126h-89l-66 88l-67 -88h-86z" />
    <glyph glyph-name="Scedilla" unicode="&#x15e;" horiz-adv-x="623" 
d="M297 -205q-30 0 -44 5v53q12 -3 23 -3q59 0 59 40q0 17 -11 29t-33 12q-12 0 -18 -1v57q-110 11 -171 75.5t-61 175.5h99q0 -85 45 -130t130 -45q76 0 119.5 34t43.5 91q0 26 -11.5 47.5t-26 34.5t-43.5 25.5t-49 18.5t-58 16q-43 12 -69 20.5t-62 26t-55.5 38t-34 53
t-14.5 74.5q0 88 72 143.5t185 55.5q119 0 187 -61.5t68 -169.5h-96q0 75 -47 114t-114 39q-62 0 -107 -30t-45 -85q0 -26 10.5 -46t23.5 -32.5t41.5 -25t47 -18t56.5 -16.5q45 -12 71 -20.5t64 -27t58.5 -39t36 -54t15.5 -75.5q0 -89 -66.5 -145.5t-176.5 -62.5v-17
q31 -1 48.5 -26t17.5 -56q0 -38 -28.5 -65t-79.5 -27z" />
    <glyph glyph-name="scedilla" unicode="&#x15f;" horiz-adv-x="505" 
d="M237 -205q-30 0 -44 5v53q12 -3 23 -3q59 0 59 40q0 17 -11 29t-33 12q-12 0 -18 -1v58q-85 10 -131 56t-47 122h93q0 -54 35 -82t99 -28q53 0 81.5 20t28.5 57q0 18 -8 32t-18 22.5t-30.5 15.5t-35 10.5t-41.5 8.5q-29 6 -39.5 8t-37 9t-37.5 13t-29.5 18.5t-27 27
t-15 36t-6.5 47.5q0 66 55.5 108t146.5 42q98 0 151.5 -44.5t54.5 -128.5h-91q-1 101 -117 101q-47 0 -75.5 -19.5t-28.5 -52.5q0 -39 31.5 -55.5t95.5 -28.5q30 -6 41 -8t38 -9.5t39 -14.5t31.5 -19.5t28 -27.5t15.5 -36.5t7 -48.5q0 -65 -53.5 -106.5t-137.5 -46.5v-17
q31 -1 48.5 -26t17.5 -56q0 -38 -28.5 -65t-79.5 -27z" />
    <glyph glyph-name="Scaron" unicode="&#x160;" horiz-adv-x="623" 
d="M315 -15q-129 0 -201.5 66t-72.5 187h99q0 -85 45 -130t130 -45q76 0 119.5 34t43.5 91q0 26 -11.5 47.5t-26 34.5t-43.5 25.5t-49 18.5t-58 16q-43 12 -69 20.5t-62 26t-55.5 38t-34 53t-14.5 74.5q0 88 72 143.5t185 55.5q119 0 187 -61.5t68 -169.5h-96q0 75 -47 114
t-114 39q-62 0 -107 -30t-45 -85q0 -26 10.5 -46t23.5 -32.5t41.5 -25t47 -18t56.5 -16.5q45 -12 71 -20.5t64 -27t58.5 -39t36 -54t15.5 -75.5q0 -94 -74 -151.5t-193 -57.5zM254 791l-95 114h88l65 -75l66 75h86l-96 -114h-114z" />
    <glyph glyph-name="scaron" unicode="&#x161;" horiz-adv-x="505" 
d="M260 -15q-107 0 -165.5 47.5t-59.5 133.5h93q0 -54 35 -82t99 -28q53 0 81.5 20t28.5 57q0 18 -8 32t-18 22.5t-30.5 15.5t-35 10.5t-41.5 8.5q-29 6 -39.5 8t-37 9t-37.5 13t-29.5 18.5t-27 27t-15 36t-6.5 47.5q0 66 55.5 108t146.5 42q98 0 151.5 -44.5t54.5 -128.5
h-91q-1 101 -117 101q-47 0 -75.5 -19.5t-28.5 -52.5q0 -39 31.5 -55.5t95.5 -28.5q30 -6 41 -8t38 -9.5t39 -14.5t31.5 -19.5t28 -27.5t15.5 -36.5t7 -48.5q0 -69 -59 -111.5t-151 -42.5zM192 600l-93 126h84l66 -89l67 89h84l-93 -126h-115z" />
    <glyph glyph-name="uni0162" unicode="&#x162;" horiz-adv-x="599" 
d="M250 0v645h-239v81h577v-81h-239v-645h-16v-31q31 -1 48.5 -26t17.5 -56q0 -38 -28.5 -65t-79.5 -27q-30 0 -44 5v53q12 -3 23 -3q59 0 59 40q0 17 -11 29t-33 12q-12 0 -18 -1v70h-17z" />
    <glyph glyph-name="uni0163" unicode="&#x163;" horiz-adv-x="333" 
d="M191 -205q-30 0 -44 5v53q12 -3 23 -3q59 0 59 40q0 17 -11 29t-33 12q-12 0 -18 -1v75q-59 29 -59 135v300h-95v76h95v125h92v-125h112v-76h-112v-257q0 -63 10.5 -88.5t51.5 -25.5q31 0 52 5v-74q-40 -9 -76 -9h-5v-22q31 -1 48.5 -26t17.5 -56q0 -38 -28.5 -65
t-79.5 -27z" />
    <glyph glyph-name="Tcaron" unicode="&#x164;" horiz-adv-x="599" 
d="M250 0v645h-239v81h577v-81h-239v-645h-99zM243 791l-95 114h88l65 -75l66 75h86l-96 -114h-114z" />
    <glyph glyph-name="tcaron" unicode="&#x165;" horiz-adv-x="333" 
d="M238 -9q-64 0 -97 34t-33 115v300h-95v76h95v125h92v-125h112v-76h-112v-257q0 -63 10.5 -88.5t51.5 -25.5q31 0 52 5v-74q-40 -9 -76 -9zM265 574l8 152h84v-22l-30 -130h-62z" />
    <glyph glyph-name="Tbar" unicode="&#x166;" horiz-adv-x="617" 
d="M259 0v329h-166v77h166v239h-239v81h577v-81h-239v-239h165v-77h-165v-329h-99z" />
    <glyph glyph-name="tbar" unicode="&#x167;" horiz-adv-x="346" 
d="M247 -9q-88 0 -115 62q-15 33 -15 87v108h-95v72h95v124h-95v72h95v125h92v-125h112v-72h-112v-124h107v-72h-107v-65q0 -63 10.5 -88.5t51.5 -25.5q31 0 52 5v-74q-41 -9 -76 -9z" />
    <glyph glyph-name="Utilde" unicode="&#x168;" horiz-adv-x="704" 
d="M351 -15q-183 0 -243 133q-28 63 -28 188v420h98v-418q0 -75 9 -116.5t32 -70.5q48 -59 132 -59q41 0 77.5 16.5t56.5 42.5q41 54 41 187v418h98v-420q0 -145 -42 -211q-33 -52 -93 -81t-138 -29zM197 796q6 50 29.5 78.5t62.5 28.5q20 0 67.5 -20t66.5 -20q32 0 41 38
h54q-6 -50 -29.5 -78.5t-62.5 -28.5q-20 0 -67.5 20t-66.5 20q-33 0 -41 -38h-54z" />
    <glyph glyph-name="utilde" unicode="&#x169;" horiz-adv-x="572" 
d="M249 -11q-118 0 -163 92q-17 35 -17 135v300h91v-291q0 -35 3.5 -59.5t13.5 -50.5t33.5 -39.5t58.5 -13.5q66 0 101.5 46t35.5 137v271h91v-516h-85v66q-57 -77 -163 -77zM120 612q6 50 29.5 78.5t62.5 28.5q20 0 67.5 -20t66.5 -20q32 0 41 38h54q-6 -50 -29.5 -78.5
t-62.5 -28.5q-20 0 -67.5 20t-66.5 20q-33 0 -41 -38h-54z" />
    <glyph glyph-name="Umacron" unicode="&#x16a;" horiz-adv-x="704" 
d="M351 -15q-183 0 -243 133q-28 63 -28 188v420h98v-418q0 -75 9 -116.5t32 -70.5q48 -59 132 -59q41 0 77.5 16.5t56.5 42.5q41 54 41 187v418h98v-420q0 -145 -42 -211q-33 -52 -93 -81t-138 -29zM220 809v70h266v-70h-266z" />
    <glyph glyph-name="umacron" unicode="&#x16b;" horiz-adv-x="572" 
d="M249 -11q-118 0 -163 92q-17 35 -17 135v300h91v-291q0 -35 3.5 -59.5t13.5 -50.5t33.5 -39.5t58.5 -13.5q66 0 101.5 46t35.5 137v271h91v-516h-85v66q-57 -77 -163 -77zM153 633v70h264v-70h-264z" />
    <glyph glyph-name="Ubreve" unicode="&#x16c;" horiz-adv-x="704" 
d="M351 -15q-183 0 -243 133q-28 63 -28 188v420h98v-418q0 -75 9 -116.5t32 -70.5q48 -59 132 -59q41 0 77.5 16.5t56.5 42.5q41 54 41 187v418h98v-420q0 -145 -42 -211q-33 -52 -93 -81t-138 -29zM354 784q-66 0 -104.5 34t-41.5 86h82q7 -60 64 -60t64 60h82
q-3 -52 -41.5 -86t-104.5 -34z" />
    <glyph glyph-name="ubreve" unicode="&#x16d;" horiz-adv-x="572" 
d="M249 -11q-118 0 -163 92q-17 35 -17 135v300h91v-291q0 -35 3.5 -59.5t13.5 -50.5t33.5 -39.5t58.5 -13.5q66 0 101.5 46t35.5 137v271h91v-516h-85v66q-57 -77 -163 -77zM286 597q-64 0 -103.5 33t-39.5 96h76q0 -73 67 -73q66 0 66 73h76q0 -64 -39.5 -96.5
t-102.5 -32.5z" />
    <glyph glyph-name="Uring" unicode="&#x16e;" horiz-adv-x="704" 
d="M351 -15q-183 0 -243 133q-28 63 -28 188v420h98v-418q0 -75 9 -116.5t32 -70.5q48 -59 132 -59q41 0 77.5 16.5t56.5 42.5q41 54 41 187v418h98v-420q0 -145 -42 -211q-33 -52 -93 -81t-138 -29zM352 723q-51 0 -81 31t-30 73t30 73.5t81 31.5t81 -31t30 -74
q0 -42 -30 -73t-81 -31zM352 768q30 0 44.5 17t14.5 42t-15 42t-44 17q-28 0 -43 -17t-15 -42q0 -24 15 -41.5t43 -17.5z" />
    <glyph glyph-name="uring" unicode="&#x16f;" horiz-adv-x="572" 
d="M249 -11q-118 0 -163 92q-17 35 -17 135v300h91v-291q0 -35 3.5 -59.5t13.5 -50.5t33.5 -39.5t58.5 -13.5q66 0 101.5 46t35.5 137v271h91v-516h-85v66q-57 -77 -163 -77zM283 563q-49 0 -79 31t-30 71q0 41 30 72t79 31q50 0 79.5 -31t29.5 -72q0 -40 -29.5 -71
t-79.5 -31zM283 607q29 0 43.5 17t14.5 41t-15 41t-43 17q-27 0 -42 -17t-15 -41q0 -23 15 -40.5t42 -17.5z" />
    <glyph glyph-name="Uhungarumlaut" unicode="&#x170;" horiz-adv-x="704" 
d="M351 -15q-183 0 -243 133q-28 63 -28 188v420h98v-418q0 -75 9 -116.5t32 -70.5q48 -59 132 -59q41 0 77.5 16.5t56.5 42.5q41 54 41 187v418h98v-420q0 -145 -42 -211q-33 -52 -93 -81t-138 -29zM407 791l99 114h105l-126 -114h-78zM221 791l85 114h104l-115 -114h-74z
" />
    <glyph glyph-name="uhungarumlaut" unicode="&#x171;" horiz-adv-x="572" 
d="M249 -11q-118 0 -163 92q-17 35 -17 135v300h91v-291q0 -35 3.5 -59.5t13.5 -50.5t33.5 -39.5t58.5 -13.5q66 0 101.5 46t35.5 137v271h91v-516h-85v66q-57 -77 -163 -77zM332 600l91 126h99l-117 -126h-73zM147 600l83 126h98l-111 -126h-70z" />
    <glyph glyph-name="Uogonek" unicode="&#x172;" horiz-adv-x="704" 
d="M438 -205q-50 0 -81 27t-31 69q0 48 54 95q-10 -1 -29 -1q-89 0 -151.5 34.5t-91.5 98.5q-28 60 -28 188v420h98v-418q0 -75 9 -117t32 -70q48 -59 132 -59q41 0 77.5 16.5t56.5 42.5q41 54 41 187v418h98v-420q0 -78 -9 -126t-33 -85q-23 -36 -75 -72
q-104 -73 -104 -119q0 -19 12.5 -31t34.5 -12q26 0 42 8v-65q-19 -9 -54 -9z" />
    <glyph glyph-name="uogonek" unicode="&#x173;" horiz-adv-x="572" 
d="M448 -205q-46 0 -77.5 27t-31.5 69q0 61 73 116v59q-57 -77 -163 -77q-118 0 -163 92q-17 35 -17 135v300h91v-291q0 -35 3.5 -59.5t13.5 -50.5t33.5 -39.5t58.5 -13.5q66 0 101.5 46t35.5 137v271h91v-516q-84 -45 -84 -96q0 -19 13 -31t37 -12q18 0 34 6v-65
q-17 -7 -49 -7z" />
    <glyph glyph-name="Wcircumflex" unicode="&#x174;" horiz-adv-x="948" 
d="M195 0l-180 726h101l108 -468q17 -73 30 -146h5q17 94 32 146l127 468h122l123 -468q0 -2 32 -146h6q20 101 31 146l110 468h90l-179 -726h-117l-125 482q-10 42 -33 146h-5q-24 -112 -33 -146l-129 -482h-116zM322 791l96 114h114l95 -114h-88l-65 75l-66 -75h-86z" />
    <glyph glyph-name="wcircumflex" unicode="&#x175;" horiz-adv-x="792" 
d="M158 0l-144 516h95l70 -258q15 -56 39 -178h6q10 51 44 178l70 258h123l73 -258q23 -79 42 -178h6q17 97 39 178l70 258h86l-143 -516h-119l-71 258q-17 65 -44 188h-6q-29 -124 -46 -188l-71 -258h-119zM244 600l93 126h122l93 -126h-89l-66 88l-67 -88h-86z" />
    <glyph glyph-name="Ycircumflex" unicode="&#x176;" horiz-adv-x="617" 
d="M259 0v307l-251 419h114l189 -343l198 343h104l-256 -419v-307h-98zM158 791l96 114h114l95 -114h-88l-65 75l-66 -75h-86z" />
    <glyph glyph-name="ycircumflex" unicode="&#x177;" horiz-adv-x="511" 
d="M107 -205q-33 0 -60 5v77q24 -6 44 -6q48 0 74 30.5t42 87.5l-196 527h102l90 -258q12 -35 30.5 -100t22.5 -77h5q28 101 55 177l91 258h93l-192 -516q-40 -105 -83 -155t-118 -50zM103 600l93 126h122l93 -126h-89l-66 88l-67 -88h-86z" />
    <glyph glyph-name="Ydieresis" unicode="&#x178;" horiz-adv-x="617" 
d="M259 0v307l-251 419h114l189 -343l198 343h104l-256 -419v-307h-98zM365 795v105h90v-105h-90zM167 795v105h90v-105h-90z" />
    <glyph glyph-name="Zacute" unicode="&#x179;" horiz-adv-x="569" 
d="M33 0v83l387 564q-82 -2 -124 -2h-253v81h482v-81l-389 -567q86 4 149 4h259v-82h-511zM239 791l96 114h111l-126 -114h-81z" />
    <glyph glyph-name="zacute" unicode="&#x17a;" horiz-adv-x="452" 
d="M27 0v75l287 370q-34 -5 -113 -5h-160v76h375v-76l-284 -369q40 4 120 4h176v-75h-401zM186 600l89 126h104l-116 -126h-77z" />
    <glyph glyph-name="Zdotaccent" unicode="&#x17b;" horiz-adv-x="569" 
d="M33 0v83l387 564q-82 -2 -124 -2h-253v81h482v-81l-389 -567q86 4 149 4h259v-82h-511zM242 798v100h94v-100h-94z" />
    <glyph glyph-name="zdotaccent" unicode="&#x17c;" horiz-adv-x="452" 
d="M27 0v75l287 370q-34 -5 -113 -5h-160v76h375v-76l-284 -369q40 4 120 4h176v-75h-401zM187 626v100h92v-100h-92z" />
    <glyph glyph-name="Zcaron" unicode="&#x17d;" horiz-adv-x="569" 
d="M33 0v83l387 564q-82 -2 -124 -2h-253v81h482v-81l-389 -567q86 4 149 4h259v-82h-511zM231 791l-95 114h88l65 -75l66 75h86l-96 -114h-114z" />
    <glyph glyph-name="zcaron" unicode="&#x17e;" horiz-adv-x="452" 
d="M27 0v75l287 370q-34 -5 -113 -5h-160v76h375v-76l-284 -369q40 4 120 4h176v-75h-401zM175 600l-93 126h84l66 -89l67 89h84l-93 -126h-115z" />
    <glyph glyph-name="longs" unicode="&#x17f;" horiz-adv-x="242" 
d="M75 0v542q0 78 15 113q32 77 130 77q36 0 61 -6v-76q-21 4 -44 4q-44 0 -57 -26t-13 -91v-537h-92z" />
    <glyph glyph-name="uni018F" unicode="&#x18f;" horiz-adv-x="712" 
d="M355 -15q-149 0 -228 97.5t-79 268.5v26h513q-3 130 -56.5 208t-153.5 78q-148 0 -184 -155h-106q19 113 99.5 173t190.5 60q150 0 231.5 -103t81.5 -275q0 -174 -79.5 -276t-229.5 -102zM355 63q89 0 139.5 62.5t62.5 170.5h-404q8 -110 59 -171.5t143 -61.5z" />
    <glyph glyph-name="uni0190" unicode="&#x190;" horiz-adv-x="606" 
d="M305 -15q-115 0 -185.5 53.5t-70.5 152.5q0 69 38.5 116t107.5 62v5q-57 14 -94.5 59t-37.5 104q0 94 68.5 147.5t178.5 53.5q114 0 176 -57.5t66 -163.5h-99q-5 145 -145 145q-67 0 -108 -34t-41 -91q0 -63 45 -96.5t128 -33.5h35v-77h-45q-81 0 -128 -35t-47 -98
q0 -60 42.5 -98t115.5 -38t117.5 43.5t44.5 119.5h101q0 -110 -69 -174.5t-194 -64.5z" />
    <glyph glyph-name="florin" unicode="&#x192;" 
d="M141 -159q-38 0 -77 12v80q32 -12 57 -12q45 0 68.5 32.5t37.5 101.5l46 232h-114v77h124l29 154q33 179 174 179q32 0 76 -11v-77q-30 13 -57 13q-45 0 -68 -34.5t-35 -104.5l-21 -119h121v-77h-133l-48 -263q-16 -86 -61.5 -134.5t-118.5 -48.5z" />
    <glyph glyph-name="uni0194" unicode="&#x194;" horiz-adv-x="620" 
d="M310 -205q-62 0 -99 40t-37 100q0 26 8.5 56t18.5 52t28.5 60t28.5 60l7 16l-251 547h100l196 -449l196 449h100l-252 -547l8 -16q5 -11 20 -40t21 -41t16.5 -36t14.5 -38.5t8 -34.5t4 -38q0 -60 -37 -100t-99 -40zM310 -129q26 0 39 18.5t13 45.5q0 39 -52 151
q-52 -108 -52 -151q0 -27 13 -45.5t39 -18.5z" />
    <glyph glyph-name="uni0197" unicode="&#x197;" horiz-adv-x="356" 
d="M13 336v75h116v315h98v-315h116v-75h-116v-336h-98v336h-116z" />
    <glyph glyph-name="uni019D" unicode="&#x19d;" horiz-adv-x="749" 
d="M571 726h91v-726h-132q-310 544 -355 633h-5q7 -189 7 -271v-372q0 -111 -31.5 -153t-100.5 -42q-25 0 -63 5v78q20 -5 41 -5q37 0 50.5 26.5t13.5 86.5v740h134q305 -529 351 -624h5q-6 158 -6 262v362z" />
    <glyph glyph-name="uni01B5" unicode="&#x1b5;" horiz-adv-x="586" 
d="M60 320v77h197l172 250q-82 -2 -124 -2h-253v81h482v-81l-170 -248h159v-77h-212l-166 -242q86 4 149 4h259v-82h-511v83l162 237h-144z" />
    <glyph glyph-name="uni01B6" unicode="&#x1b6;" horiz-adv-x="461" 
d="M51 223v70h150l118 152q-34 -5 -113 -5h-160v76h375v-76l-113 -147h99v-70h-153l-117 -152q40 4 120 4h176v-75h-401v75l115 148h-96z" />
    <glyph glyph-name="uni01CD" unicode="&#x1cd;" horiz-adv-x="696" 
d="M3 0l295 726h99l298 -726h-107l-84 211h-318l-79 -211h-104zM218 291h257l-69 187q-6 15 -26.5 69.5t-30.5 83.5h-4q-35 -102 -54 -151zM291 791l-95 114h88l65 -75l66 75h86l-96 -114h-114z" />
    <glyph glyph-name="uni01CE" unicode="&#x1ce;" horiz-adv-x="540" 
d="M218 -11q-84 0 -131.5 43t-47.5 113q0 31 10 55.5t25 41.5t40.5 30t48 20t56 12.5t56.5 8t57.5 5.5t50.5 5v18q0 121 -114 121q-55 0 -87.5 -27t-32.5 -78h-91q0 79 58.5 126.5t152.5 47.5q56 0 96 -15t60.5 -36.5t31.5 -56.5t13.5 -61t2.5 -65v-141q0 -95 13 -156h-86
q-6 29 -7 70q-61 -81 -175 -81zM239 56q144 0 144 167v29q-12 -2 -45 -4.5t-55.5 -5t-53.5 -9.5t-50 -17t-33 -29t-14 -44q0 -38 29 -62.5t78 -24.5zM214 600l-93 126h84l66 -89l67 89h84l-93 -126h-115z" />
    <glyph glyph-name="uni01CF" unicode="&#x1cf;" horiz-adv-x="272" 
d="M87 0v726h98v-726h-98zM78 791l-95 114h88l65 -75l66 75h86l-96 -114h-114z" />
    <glyph glyph-name="uni01D0" unicode="&#x1d0;" horiz-adv-x="242" 
d="M75 0v516h92v-516h-92zM258 726l-83 -126h-109l-82 126h78l59 -85l60 85h77z" />
    <glyph glyph-name="uni01D1" unicode="&#x1d1;" horiz-adv-x="763" 
d="M381 -15q-151 0 -242.5 104.5t-91.5 273.5q0 168 91.5 273t242.5 105t243 -105t92 -273q0 -171 -91.5 -274.5t-243.5 -103.5zM381 63q105 0 169 84.5t64 215.5t-64 215.5t-169 84.5q-104 0 -168 -84.5t-64 -215.5t64 -215.5t168 -84.5zM324 791l-95 114h88l65 -75l66 75
h86l-96 -114h-114z" />
    <glyph glyph-name="uni01D2" unicode="&#x1d2;" horiz-adv-x="580" 
d="M288 -15q-114 0 -181 75.5t-67 197.5q0 121 67.5 197t181.5 76t182.5 -76t68.5 -197q0 -122 -68 -197.5t-184 -75.5zM288 58q72 0 114.5 54.5t42.5 144.5t-42.5 145t-113.5 55q-70 0 -112 -54t-42 -144q0 -91 41.5 -146t111.5 -55zM232 600l-93 126h84l66 -89l67 89h84
l-93 -126h-115z" />
    <glyph glyph-name="uni01D3" unicode="&#x1d3;" horiz-adv-x="704" 
d="M351 -15q-183 0 -243 133q-28 63 -28 188v420h98v-418q0 -75 9 -116.5t32 -70.5q48 -59 132 -59q41 0 77.5 16.5t56.5 42.5q41 54 41 187v418h98v-420q0 -145 -42 -211q-33 -52 -93 -81t-138 -29zM295 791l-95 114h88l65 -75l66 75h86l-96 -114h-114z" />
    <glyph glyph-name="uni01D4" unicode="&#x1d4;" horiz-adv-x="572" 
d="M249 -11q-118 0 -163 92q-17 35 -17 135v300h91v-291q0 -35 3.5 -59.5t13.5 -50.5t33.5 -39.5t58.5 -13.5q66 0 101.5 46t35.5 137v271h91v-516h-85v66q-57 -77 -163 -77zM227 600l-93 126h84l66 -89l67 89h84l-93 -126h-115z" />
    <glyph glyph-name="Gcaron" unicode="&#x1e6;" horiz-adv-x="722" 
d="M358 -12q-154 0 -232.5 104t-78.5 271q0 163 89 270.5t241 107.5q121 0 195.5 -62t88.5 -164h-101q-13 70 -61.5 109t-121.5 39q-102 0 -165 -82.5t-63 -217.5t59.5 -216t160.5 -81q89 0 143.5 63t55.5 165h-178v82h273v-376h-86v30q0 44 3 63l-5 2q-74 -107 -217 -107z
M319 791l-95 114h88l65 -75l66 75h86l-96 -114h-114z" />
    <glyph glyph-name="gcaron" unicode="&#x1e7;" horiz-adv-x="576" 
d="M276 -205q-96 0 -151 41t-62 121h95q6 -93 120 -93q70 0 103.5 40.5t33.5 139.5v51q-32 -43 -69.5 -60.5t-93.5 -17.5q-95 0 -153 70t-58 181q0 106 59 182.5t157 76.5q115 0 160 -83v72h85v-442q0 -140 -50 -209.5t-176 -69.5zM275 88q65 0 103 51t38 138q0 79 -39 129
t-102 50q-66 0 -103 -48.5t-37 -129.5q0 -89 37.5 -139.5t102.5 -50.5zM227 600l-93 126h84l66 -89l67 89h84l-93 -126h-115z" />
    <glyph glyph-name="uni01E8" unicode="&#x1e8;" horiz-adv-x="620" 
d="M87 0v726h98v-324l300 324h116l-318 -334l344 -392h-126l-316 369v-369h-98zM267 791l-95 114h88l65 -75l66 75h86l-96 -114h-114z" />
    <glyph glyph-name="uni01E9" unicode="&#x1e9;" horiz-adv-x="500" 
d="M75 0v726h92v-422l209 212h109l-228 -226l251 -290h-116l-225 270v-270h-92zM68 791l-87 114h83l59 -75l60 75h82l-88 -114h-109z" />
    <glyph glyph-name="uni01EA" unicode="&#x1ea;" horiz-adv-x="763" 
d="M463 -205q-51 0 -82 27t-31 69q0 47 54 95q-7 -1 -23 -1q-151 0 -242.5 104.5t-91.5 273.5q0 168 91.5 273t242.5 105t243 -105t92 -273q0 -242 -178 -342q-110 -61 -110 -117q0 -19 12.5 -31t34.5 -12q26 0 42 8v-65q-19 -9 -54 -9zM381 63q105 0 169 84.5t64 215.5
t-64 215.5t-169 84.5q-104 0 -168 -84.5t-64 -215.5t64 -215.5t168 -84.5z" />
    <glyph glyph-name="uni01EB" unicode="&#x1eb;" horiz-adv-x="580" 
d="M349 -205q-49 0 -80.5 27t-31.5 67q0 51 54 96h-3q-114 0 -181 75.5t-67 197.5q0 121 67.5 197t181.5 76t182.5 -76t68.5 -197q0 -158 -109 -230q-39 -25 -54 -37q-20 -17 -30.5 -26.5t-21.5 -27t-11 -33.5q0 -19 12.5 -31t34.5 -12q24 0 40 8v-65q-19 -9 -52 -9zM288 58
q72 0 114.5 54.5t42.5 144.5t-42.5 145t-113.5 55q-70 0 -112 -54t-42 -144q0 -91 41.5 -146t111.5 -55z" />
    <glyph glyph-name="uni01F8" unicode="&#x1f8;" horiz-adv-x="749" 
d="M87 0v726h134q305 -529 351 -624h5q-6 158 -6 262v362h91v-726h-132q-310 544 -355 633h-5q7 -189 7 -271v-362h-90zM348 791l-125 114h111l96 -114h-82z" />
    <glyph glyph-name="uni01F9" unicode="&#x1f9;" horiz-adv-x="575" 
d="M75 0v516h85v-66q58 77 164 77q128 0 164 -92q18 -45 18 -126v-309h-92v291q0 35 -3.5 60t-14 50.5t-34 39t-58.5 13.5q-66 0 -101.5 -46.5t-35.5 -137.5v-270h-92zM272 600l-116 126h105l88 -126h-77z" />
    <glyph glyph-name="Aringacute" unicode="&#x1fa;" horiz-adv-x="696" 
d="M3 0l291 717q-27 13 -42 38.5t-15 54.5q0 35 21 63.5t58 37.5l75 104h103l-101 -108q31 -12 48.5 -39t17.5 -58q0 -30 -15.5 -55t-43.5 -38l295 -717h-107l-84 211h-318l-79 -211h-104zM218 291h257l-69 187q-6 15 -26.5 69.5t-30.5 83.5h-4q-35 -102 -54 -151zM348 751
q30 0 44.5 17t14.5 42t-15 42t-44 17q-28 0 -43 -17t-15 -42q0 -24 15 -41.5t43 -17.5z" />
    <glyph glyph-name="aringacute" unicode="&#x1fb;" horiz-adv-x="540" 
d="M218 -11q-84 0 -131.5 43t-47.5 113q0 31 10 55.5t25 41.5t40.5 30t48 20t56 12.5t56.5 8t57.5 5.5t50.5 5v18q0 121 -114 121q-55 0 -87.5 -27t-32.5 -78h-91q0 79 58.5 126.5t152.5 47.5q56 0 96 -15t60.5 -36.5t31.5 -56.5t13.5 -61t2.5 -65v-141q0 -95 13 -156h-86
q-6 29 -7 70q-61 -81 -175 -81zM270 563q-49 0 -79 31t-30 71q0 31 18 57.5t50 38.5l85 118h103l-111 -117q34 -10 53.5 -37.5t19.5 -59.5q0 -40 -29.5 -71t-79.5 -31zM239 56q144 0 144 167v29q-12 -2 -45 -4.5t-55.5 -5t-53.5 -9.5t-50 -17t-33 -29t-14 -44
q0 -38 29 -62.5t78 -24.5zM270 607q29 0 43.5 17t14.5 41t-15 41t-43 17t-42.5 -17t-14.5 -41q0 -23 15 -40.5t42 -17.5z" />
    <glyph glyph-name="AEacute" unicode="&#x1fc;" horiz-adv-x="957" 
d="M3 0l370 726h509v-81h-346l32 -227h306v-81h-295l37 -256h311v-81h-397l-33 227h-275l-112 -227h-107zM263 308h223l-47 340h-10zM450 791l96 114h111l-126 -114h-81z" />
    <glyph glyph-name="aeacute" unicode="&#x1fd;" horiz-adv-x="878" 
d="M224 -15q-83 0 -133.5 40t-50.5 116q0 171 282 171h60v2q-9 148 -118 148q-105 0 -118 -103h-89q4 81 61.5 126.5t145.5 45.5q126 0 172 -94q71 94 181 94q107 0 163.5 -74t56.5 -209v-16h-363q0 -73 34.5 -124.5t109.5 -51.5q50 0 79 23.5t45 71.5h90q-16 -86 -75 -126
t-137 -40q-65 0 -116.5 27t-76.5 76q-62 -103 -203 -103zM234 53q71 0 109.5 42t39.5 142v4h-59q-189 0 -189 -98q0 -40 25.5 -65t73.5 -25zM476 306h271q-5 69 -40 111t-93 42q-57 0 -95.5 -43t-42.5 -110zM397 600l89 126h104l-116 -126h-77z" />
    <glyph glyph-name="Oslashacute" unicode="&#x1fe;" horiz-adv-x="763" 
d="M134 -37l-60 45l61 83q-88 105 -88 271q0 168 91.5 273t242.5 105q108 0 190 -58l50 68l59 -45l-54 -73q90 -106 90 -270q0 -171 -91.5 -274.5t-243.5 -103.5q-110 0 -190 57zM381 62q105 0 169 84.5t64 215.5q0 110 -47 190l-323 -440q58 -50 137 -50zM195 172l323 439
q-59 51 -137 51q-104 0 -168 -84.5t-64 -215.5q0 -112 46 -190zM332 791l96 114h111l-126 -114h-81z" />
    <glyph glyph-name="oslashacute" unicode="&#x1ff;" horiz-adv-x="588" 
d="M107 -53l-54 42l55 74q-64 75 -64 195q0 121 67.5 197t181.5 76q77 0 137 -38l52 69l54 -41l-55 -73q63 -76 63 -190q0 -122 -68 -197.5t-184 -75.5q-73 0 -131 34zM292 58q72 0 114.5 54.5t42.5 144.5q0 65 -25 115l-215 -288q35 -26 83 -26zM164 138l217 289
q-38 30 -88 30q-70 0 -112 -54t-42 -144q0 -69 25 -121zM247 600l89 126h104l-116 -126h-77z" />
    <glyph glyph-name="uni0218" unicode="&#x218;" horiz-adv-x="623" 
d="M315 -15q-129 0 -201.5 66t-72.5 187h99q0 -85 45 -130t130 -45q76 0 119.5 34t43.5 91q0 26 -11.5 47.5t-26 34.5t-43.5 25.5t-49 18.5t-58 16q-43 12 -69 20.5t-62 26t-55.5 38t-34 53t-14.5 74.5q0 88 72 143.5t185 55.5q119 0 187 -61.5t68 -169.5h-96q0 75 -47 114
t-114 39q-62 0 -107 -30t-45 -85q0 -26 10.5 -46t23.5 -32.5t41.5 -25t47 -18t56.5 -16.5q45 -12 71 -20.5t64 -27t58.5 -39t36 -54t15.5 -75.5q0 -94 -74 -151.5t-193 -57.5zM272 -254l38 98h-40v93h101v-91l-48 -100h-51z" />
    <glyph glyph-name="uni0219" unicode="&#x219;" horiz-adv-x="505" 
d="M260 -15q-107 0 -165.5 47.5t-59.5 133.5h93q0 -54 35 -82t99 -28q53 0 81.5 20t28.5 57q0 18 -8 32t-18 22.5t-30.5 15.5t-35 10.5t-41.5 8.5q-29 6 -39.5 8t-37 9t-37.5 13t-29.5 18.5t-27 27t-15 36t-6.5 47.5q0 66 55.5 108t146.5 42q98 0 151.5 -44.5t54.5 -128.5
h-91q-1 101 -117 101q-47 0 -75.5 -19.5t-28.5 -52.5q0 -39 31.5 -55.5t95.5 -28.5q30 -6 41 -8t38 -9.5t39 -14.5t31.5 -19.5t28 -27.5t15.5 -36.5t7 -48.5q0 -69 -59 -111.5t-151 -42.5zM216 -253l35 98h-36v91h95v-91l-46 -98h-48z" />
    <glyph glyph-name="uni021A" unicode="&#x21a;" horiz-adv-x="599" 
d="M250 0v645h-239v81h577v-81h-239v-645h-99zM251 -254l38 98h-40v93h101v-91l-48 -100h-51z" />
    <glyph glyph-name="uni021B" unicode="&#x21b;" horiz-adv-x="333" 
d="M238 -9q-64 0 -97 34t-33 115v300h-95v76h95v125h92v-125h112v-76h-112v-257q0 -63 10.5 -88.5t51.5 -25.5q31 0 52 5v-74q-40 -9 -76 -9zM177 -253l35 98h-36v91h95v-91l-46 -98h-48z" />
    <glyph glyph-name="uni021E" unicode="&#x21e;" horiz-adv-x="745" 
d="M87 0v726h98v-311h374v311h99v-726h-99v334h-374v-334h-98zM315 791l-95 114h88l65 -75l66 75h86l-96 -114h-114z" />
    <glyph glyph-name="uni021F" unicode="&#x21f;" horiz-adv-x="575" 
d="M75 0v726h92v-275q48 76 157 76q125 0 165 -92q17 -39 17 -126v-309h-92v290q0 35 -3.5 60t-14 51t-34 39.5t-58.5 13.5q-66 0 -101.5 -46.5t-35.5 -137.5v-270h-92zM68 791l-87 114h83l59 -75l60 75h82l-88 -114h-109z" />
    <glyph glyph-name="uni022E" unicode="&#x22e;" horiz-adv-x="763" 
d="M381 -15q-151 0 -242.5 104.5t-91.5 273.5q0 168 91.5 273t242.5 105t243 -105t92 -273q0 -171 -91.5 -274.5t-243.5 -103.5zM381 63q105 0 169 84.5t64 215.5t-64 215.5t-169 84.5q-104 0 -168 -84.5t-64 -215.5t64 -215.5t168 -84.5zM334 798v100h94v-100h-94z" />
    <glyph glyph-name="uni022F" unicode="&#x22f;" horiz-adv-x="580" 
d="M288 -15q-114 0 -181 75.5t-67 197.5q0 121 67.5 197t181.5 76t182.5 -76t68.5 -197q0 -122 -68 -197.5t-184 -75.5zM288 58q72 0 114.5 54.5t42.5 144.5t-42.5 145t-113.5 55q-70 0 -112 -54t-42 -144q0 -91 41.5 -146t111.5 -55zM243 626v100h92v-100h-92z" />
    <glyph glyph-name="uni0232" unicode="&#x232;" horiz-adv-x="617" 
d="M259 0v307l-251 419h114l189 -343l198 343h104l-256 -419v-307h-98zM177 809v70h266v-70h-266z" />
    <glyph glyph-name="uni0233" unicode="&#x233;" horiz-adv-x="511" 
d="M107 -205q-33 0 -60 5v77q24 -6 44 -6q48 0 74 30.5t42 87.5l-196 527h102l90 -258q12 -35 30.5 -100t22.5 -77h5q28 101 55 177l91 258h93l-192 -516q-40 -105 -83 -155t-118 -50zM126 633v70h264v-70h-264z" />
    <glyph glyph-name="uni0237" unicode="&#x237;" horiz-adv-x="242" 
d="M41 -205q-25 0 -68 5v78q15 -5 45 -5q35 0 46 27t11 86v530h92v-518q0 -116 -27 -159.5t-99 -43.5z" />
    <glyph glyph-name="uni0244" unicode="&#x244;" horiz-adv-x="747" 
d="M20 336v75h82v315h98v-315h348v315h98v-315h82v-75h-82v-30q0 -145 -42 -211q-33 -52 -93 -81t-138 -29q-180 0 -243 133q-28 60 -28 188v30h-82zM241 121q47 -59 132 -59q41 0 77.5 16.5t56.5 42.5q41 56 41 187v28h-348v-28q0 -75 9 -116.5t32 -70.5z" />
    <glyph glyph-name="uni0259" unicode="&#x259;" horiz-adv-x="565" 
d="M277 -15q-234 0 -234 301h385q-4 77 -46.5 124t-106.5 47q-107 0 -134 -95h-97q16 81 80 125t155 44q118 0 181.5 -72t63.5 -201q0 -120 -67.5 -196.5t-179.5 -76.5zM281 58q59 0 97 39t48 115h-285q7 -76 45 -115t95 -39z" />
    <glyph glyph-name="uni025B" unicode="&#x25b;" horiz-adv-x="511" 
d="M263 -15q-99 0 -161.5 38.5t-62.5 108.5q0 108 120 132v4q-47 10 -75.5 44t-28.5 76q0 64 56 103.5t144 39.5q100 0 156 -46.5t60 -128.5h-92q-2 48 -33.5 76t-86.5 28q-51 0 -79.5 -21.5t-28.5 -58.5q0 -41 32.5 -62.5t91.5 -21.5h20v-68h-32q-128 0 -128 -88
q0 -39 35.5 -61.5t92.5 -22.5t89 31.5t35 84.5h92q0 -83 -58.5 -135t-157.5 -52z" />
    <glyph glyph-name="uni0263" unicode="&#x263;" horiz-adv-x="474" 
d="M237 -205q-69 0 -102.5 40t-33.5 99q0 54 40 126l52 95l-200 361h96l149 -278l151 278h92l-199 -360l51 -96q40 -75 40 -126q0 -59 -33.5 -99t-102.5 -40zM181 -64q0 -27 13 -50t43 -23t43 23t13 50q0 37 -28 88l-28 51l-28 -51q-28 -51 -28 -88z" />
    <glyph glyph-name="uni0268" unicode="&#x268;" horiz-adv-x="351" 
d="M29 249v72h100v195h92v-195h101v-72h-101v-249h-92v249h-100zM129 626v100h92v-100h-92z" />
    <glyph glyph-name="uni0272" unicode="&#x272;" horiz-adv-x="575" 
d="M488 435q18 -43 18 -126v-309h-92v291q0 35 -3.5 60t-14 50.5t-34 39t-58.5 13.5q-66 0 -101.5 -46.5t-35.5 -137.5v-280q0 -29 -1 -46.5t-8 -49.5t-20 -50.5t-40 -33.5t-65 -15q-25 0 -63 5v78q20 -5 38 -5q24 0 38.5 9.5t20 29.5t7 34t1.5 40v530h85v-66q58 77 164 77
q124 0 164 -92z" />
    <glyph glyph-name="uni0289" unicode="&#x289;" horiz-adv-x="610" 
d="M17 249v72h72v195h91v-195h246v195h91v-195h73v-72h-73v-249h-85v66q-57 -77 -163 -77q-118 0 -163 92q-17 35 -17 135v33h-72zM289 62q66 0 101.5 46t35.5 137v4h-246v-24q0 -35 3.5 -59.5t13.5 -50.5t33.5 -39.5t58.5 -13.5z" />
    <glyph glyph-name="uni02BC" unicode="&#x2bc;" horiz-adv-x="187" 
d="M147 630l-48 -98h-48l38 97h-39v94h97v-93z" />
    <glyph glyph-name="circumflex" unicode="&#x2c6;" horiz-adv-x="585" 
d="M138 600l93 126h122l93 -126h-89l-66 88l-67 -88h-86z" />
    <glyph glyph-name="caron" unicode="&#x2c7;" horiz-adv-x="578" 
d="M231 600l-93 126h84l66 -89l67 89h84l-93 -126h-115z" />
    <glyph glyph-name="uni02C9" unicode="&#x2c9;" horiz-adv-x="556" 
d="M146 633v70h264v-70h-264z" />
    <glyph glyph-name="breve" unicode="&#x2d8;" horiz-adv-x="558" 
d="M279 597q-64 0 -103.5 33t-39.5 96h76q0 -73 67 -73q66 0 66 73h76q0 -64 -39.5 -96.5t-102.5 -32.5z" />
    <glyph glyph-name="dotaccent" unicode="&#x2d9;" horiz-adv-x="576" 
d="M242 626v100h92v-100h-92z" />
    <glyph glyph-name="ring" unicode="&#x2da;" horiz-adv-x="586" 
d="M292 563q-49 0 -79 31t-30 71q0 41 30 72t79 31q50 0 79.5 -31t29.5 -72q0 -40 -29.5 -71t-79.5 -31zM292 607q29 0 43.5 17t14.5 41t-15 41t-43 17t-42.5 -17t-14.5 -41q0 -23 15 -40.5t42 -17.5z" />
    <glyph glyph-name="ogonek" unicode="&#x2db;" horiz-adv-x="544" 
d="M298 -205q-46 0 -77.5 27t-31.5 69q0 65 91 130l67 -21q-84 -45 -84 -96q0 -19 13 -31t37 -12q18 0 34 6v-65q-17 -7 -49 -7z" />
    <glyph glyph-name="tilde" unicode="&#x2dc;" horiz-adv-x="605" 
d="M141 612q6 50 29.5 78.5t62.5 28.5q20 0 67.5 -20t66.5 -20q32 0 41 38h54q-6 -50 -29.5 -78.5t-62.5 -28.5q-20 0 -67.5 20t-66.5 20q-33 0 -41 -38h-54z" />
    <glyph glyph-name="hungarumlaut" unicode="&#x2dd;" horiz-adv-x="604" 
d="M345 600l91 126h99l-117 -126h-73zM160 600l83 126h98l-111 -126h-70z" />
    <glyph glyph-name="gravecomb" unicode="&#x300;" horiz-adv-x="0" 
d="M-228 600l-116 126h105l88 -126h-77z" />
    <glyph glyph-name="acutecomb" unicode="&#x301;" horiz-adv-x="0" 
d="M-351 600l89 126h104l-116 -126h-77z" />
    <glyph glyph-name="uni0302" unicode="&#x302;" horiz-adv-x="0" 
d="M-402 600l93 126h122l93 -126h-89l-66 88l-67 -88h-86z" />
    <glyph glyph-name="tildecomb" unicode="&#x303;" horiz-adv-x="0" 
d="M-414 612q6 50 29.5 78.5t62.5 28.5q20 0 67.5 -20t66.5 -20q32 0 41 38h54q-6 -50 -29.5 -78.5t-62.5 -28.5q-20 0 -67.5 20t-66.5 20q-33 0 -41 -38h-54z" />
    <glyph glyph-name="uni0304" unicode="&#x304;" horiz-adv-x="0" 
d="M-382 633v70h264v-70h-264z" />
    <glyph glyph-name="uni0306" unicode="&#x306;" horiz-adv-x="0" 
d="M-248 597q-64 0 -103.5 33t-39.5 96h76q0 -73 67 -73q66 0 66 73h76q0 -64 -39.5 -96.5t-102.5 -32.5z" />
    <glyph glyph-name="uni0307" unicode="&#x307;" horiz-adv-x="0" 
d="M-296 626v100h92v-100h-92z" />
    <glyph glyph-name="uni0308" unicode="&#x308;" horiz-adv-x="0" 
d="M-197 621v105h90v-105h-90zM-393 621v105h90v-105h-90z" />
    <glyph glyph-name="uni030A" unicode="&#x30a;" horiz-adv-x="0" 
d="M-251 563q-49 0 -79 31t-30 71q0 41 30 72t79 31q50 0 79.5 -31t29.5 -72q0 -40 -29.5 -71t-79.5 -31zM-251 607q29 0 43.5 17t14.5 41t-15 41t-43 17q-27 0 -42 -17t-15 -41q0 -23 15 -40.5t42 -17.5z" />
    <glyph glyph-name="uni030B" unicode="&#x30b;" horiz-adv-x="0" 
d="M-248 600l91 126h99l-117 -126h-73zM-433 600l83 126h98l-111 -126h-70z" />
    <glyph glyph-name="uni030C" unicode="&#x30c;" horiz-adv-x="0" 
d="M-307 600l-93 126h84l66 -89l67 89h84l-93 -126h-115z" />
    <glyph glyph-name="uni0312" unicode="&#x312;" horiz-adv-x="0" 
d="M-202 774l-35 -98h36v-91h-95v91l46 98h48z" />
    <glyph glyph-name="uni0313" unicode="&#x313;" horiz-adv-x="0" 
d="M-201 630l-48 -98h-48l38 97h-39v94h97v-93z" />
    <glyph glyph-name="dotbelowcomb" unicode="&#x323;" horiz-adv-x="0" 
d="M-296 -172v100h92v-100h-92z" />
    <glyph glyph-name="uni0326" unicode="&#x326;" horiz-adv-x="0" 
d="M-297 -253l35 98h-36v91h95v-91l-46 -98h-48z" />
    <glyph glyph-name="uni0327" unicode="&#x327;" horiz-adv-x="0" 
d="M-245 -205q-30 0 -44 5v53q12 -3 23 -3q59 0 59 40q0 17 -11 29t-33 12q-12 0 -18 -1v100h66v-61q31 -1 48.5 -26t17.5 -56q0 -38 -28.5 -65t-79.5 -27z" />
    <glyph glyph-name="uni0328" unicode="&#x328;" horiz-adv-x="0" 
d="M-241 -205q-46 0 -77.5 27t-31.5 69q0 65 91 130l67 -21q-84 -45 -84 -96q0 -19 13 -31t37 -12q18 0 34 6v-65q-18 -7 -49 -7z" />
    <glyph glyph-name="uni032E" unicode="&#x32e;" horiz-adv-x="0" 
d="M-249 -186q-64 0 -103.5 33t-39.5 96h76q0 -73 67 -73q66 0 66 73h76q0 -64 -39.5 -96.5t-102.5 -32.5z" />
    <glyph glyph-name="uni0331" unicode="&#x331;" horiz-adv-x="0" 
d="M-382 -157v70h264v-70h-264z" />
    <glyph glyph-name="uni037E" unicode="&#x37e;" horiz-adv-x="241" 
d="M122 -138h-60l47 147h-47v110h117v-119zM64 516h115v-119h-115v119z" />
    <glyph glyph-name="dieresistonos" unicode="&#x385;" horiz-adv-x="650" 
d="M280 600l1 146h103l-42 -146h-62zM147 621v105h90v-105h-90zM413 621v105h90v-105h-90z" />
    <glyph glyph-name="anoteleia" unicode="&#x387;" horiz-adv-x="225" 
d="M55 516h115v-119h-115v119z" />
    <glyph glyph-name="uni0394" unicode="&#x394;" horiz-adv-x="694" 
d="M18 71l278 655h99l282 -655v-71h-659v71zM568 81l-169 419q-43 104 -52 131h-4q-31 -92 -44 -124l-177 -426h446z" />
    <glyph glyph-name="Sigma" unicode="&#x3a3;" horiz-adv-x="594" 
d="M32 0v84l294 276l-284 286v80h512v-81h-323q-22 0 -74 2l272 -271v-25l-295 -274q34 5 145 5h284v-82h-531z" />
    <glyph glyph-name="uni03A9" unicode="&#x3a9;" horiz-adv-x="780" 
d="M62 82h137q-77 66 -112 143.5t-35 177.5q0 144 91.5 241t245.5 97q155 0 247 -97t92 -241q0 -100 -35 -177.5t-112 -143.5h137v-82h-259v80q85 47 127 131t42 191q0 119 -63 190.5t-176 71.5t-175 -71.5t-62 -190.5q0 -107 42 -191t127 -131v-80h-259v82z" />
    <glyph glyph-name="uni03BC" unicode="&#x3bc;" horiz-adv-x="598" 
d="M75 516h91v-275q0 -179 126 -179q68 0 94 47.5t26 135.5v271h91v-400q0 -29 10.5 -40.5t37.5 -11.5q16 0 38 6v-69q-27 -9 -59 -9q-90 0 -107 64l-2 8q-42 -74 -129 -74q-43 0 -76.5 18.5t-48.5 49.5v-259h-92v717z" />
    <glyph glyph-name="pi" unicode="&#x3c0;" horiz-adv-x="610" 
d="M504 -8q-50 0 -78 29t-28 85v329h-199v-435h-89v435h-92v81h560v-81h-91v-311q0 -29 8 -44t30 -15q21 0 41 6v-71q-30 -8 -62 -8z" />
    <glyph glyph-name="uni1E02" unicode="&#x1e02;" horiz-adv-x="646" 
d="M87 0v726h214q48 0 79.5 -2t73 -13t66.5 -30t43 -56.5t18 -89.5q0 -56 -33 -101t-92 -61v-2q72 -16 108 -56.5t36 -114.5q0 -51 -19 -88.5t-48 -58.5t-72 -33.5t-81.5 -16t-86.5 -3.5h-206zM185 79h109q48 0 80 3.5t63 15.5t46.5 38t15.5 66q0 74 -49 100t-169 26h-96
v-249zM185 407h91q24 0 37.5 0.5t38.5 2.5t40.5 6.5t34.5 13t30 21t18.5 31.5t7.5 44q0 32 -10.5 55t-26.5 35.5t-43.5 19.5t-52.5 8.5t-63 1.5h-102v-239zM267 798v100h94v-100h-94z" />
    <glyph glyph-name="uni1E03" unicode="&#x1e03;" horiz-adv-x="585" 
d="M324 -11q-108 0 -161 77v-66h-88v726h92v-271q58 72 161 72q99 0 157.5 -74.5t58.5 -194.5q0 -123 -61.5 -196t-158.5 -73zM310 62q64 0 102 52t38 144t-38 144t-102 52q-65 0 -105 -54.5t-40 -141.5q0 -83 40.5 -139.5t104.5 -56.5zM283 626v100h92v-100h-92z" />
    <glyph glyph-name="uni1E0A" unicode="&#x1e0a;" horiz-adv-x="710" 
d="M87 0v726h210q148 0 225 -53q68 -48 104.5 -128.5t36.5 -181.5q0 -99 -38.5 -179t-108.5 -128q-82 -56 -219 -56h-210zM185 80h99q130 0 192 55q40 34 62 95t22 133q0 73 -20.5 134.5t-59.5 95.5q-60 53 -196 53h-99v-566zM302 798v100h94v-100h-94z" />
    <glyph glyph-name="uni1E0B" unicode="&#x1e0b;" horiz-adv-x="585" 
d="M262 -11q-103 0 -162 70.5t-59 198.5q0 117 61 193t160 76q110 0 156 -71v270h92v-726h-88v68q-53 -79 -160 -79zM275 62q66 0 105.5 53t39.5 143q0 91 -39.5 143.5t-105.5 52.5q-64 0 -101.5 -52t-37.5 -144q0 -90 37.5 -143t101.5 -53zM210 626v100h92v-100h-92z" />
    <glyph glyph-name="uni1E0C" unicode="&#x1e0c;" horiz-adv-x="710" 
d="M87 0v726h210q148 0 225 -53q68 -48 104.5 -128.5t36.5 -181.5q0 -99 -38.5 -179t-108.5 -128q-82 -56 -219 -56h-210zM185 80h99q130 0 192 55q40 34 62 95t22 133q0 73 -20.5 134.5t-59.5 95.5q-60 53 -196 53h-99v-566zM282 -172v100h94v-100h-94z" />
    <glyph glyph-name="uni1E0D" unicode="&#x1e0d;" horiz-adv-x="585" 
d="M262 -11q-103 0 -162 70.5t-59 198.5q0 117 61 193t160 76q110 0 156 -71v270h92v-726h-88v68q-53 -79 -160 -79zM275 62q66 0 105.5 53t39.5 143q0 91 -39.5 143.5t-105.5 52.5q-64 0 -101.5 -52t-37.5 -144q0 -90 37.5 -143t101.5 -53zM226 -172v100h92v-100h-92z" />
    <glyph glyph-name="uni1E0E" unicode="&#x1e0e;" horiz-adv-x="710" 
d="M87 0v726h210q148 0 225 -53q68 -48 104.5 -128.5t36.5 -181.5q0 -99 -38.5 -179t-108.5 -128q-82 -56 -219 -56h-210zM185 80h99q130 0 192 55q40 34 62 95t22 133q0 73 -20.5 134.5t-59.5 95.5q-60 53 -196 53h-99v-566zM160 -157v70h264v-70h-264z" />
    <glyph glyph-name="uni1E0F" unicode="&#x1e0f;" horiz-adv-x="585" 
d="M262 -11q-103 0 -162 70.5t-59 198.5q0 117 61 193t160 76q110 0 156 -71v270h92v-726h-88v68q-53 -79 -160 -79zM275 62q66 0 105.5 53t39.5 143q0 91 -39.5 143.5t-105.5 52.5q-64 0 -101.5 -52t-37.5 -144q0 -90 37.5 -143t101.5 -53zM140 -157v70h264v-70h-264z" />
    <glyph glyph-name="uni1E10" unicode="&#x1e10;" horiz-adv-x="710" 
d="M87 0v726h210q148 0 225 -53q68 -48 104.5 -128.5t36.5 -181.5q0 -99 -38.5 -179t-108.5 -128q-82 -56 -219 -56h-210zM185 80h99q130 0 192 55q40 34 62 95t22 133q0 73 -20.5 134.5t-59.5 95.5q-60 53 -196 53h-99v-566zM277 -254l38 98h-40v93h101v-91l-48 -100h-51z
" />
    <glyph glyph-name="uni1E11" unicode="&#x1e11;" horiz-adv-x="585" 
d="M262 -11q-103 0 -162 70.5t-59 198.5q0 117 61 193t160 76q110 0 156 -71v270h92v-726h-88v68q-53 -79 -160 -79zM275 62q66 0 105.5 53t39.5 143q0 91 -39.5 143.5t-105.5 52.5q-64 0 -101.5 -52t-37.5 -144q0 -90 37.5 -143t101.5 -53zM225 -253l35 98h-36v91h95v-91
l-46 -98h-48z" />
    <glyph glyph-name="uni1E1E" unicode="&#x1e1e;" horiz-adv-x="575" 
d="M87 0v726h459v-81h-361v-245h337v-81h-337v-319h-98zM269 798v100h94v-100h-94z" />
    <glyph glyph-name="uni1E1F" unicode="&#x1e1f;" horiz-adv-x="326" 
d="M109 0v440h-95v76h95v26q0 77 14 113q31 77 130 77q36 0 61 -6v-76q-20 4 -44 4q-44 0 -56.5 -25.5t-12.5 -91.5v-21h113v-76h-113v-440h-92zM187 798v100h92v-100h-92z" />
    <glyph glyph-name="uni1E20" unicode="&#x1e20;" horiz-adv-x="722" 
d="M358 -12q-154 0 -232.5 104t-78.5 271q0 163 89 270.5t241 107.5q121 0 195.5 -62t88.5 -164h-101q-13 70 -61.5 109t-121.5 39q-102 0 -165 -82.5t-63 -217.5t59.5 -216t160.5 -81q89 0 143.5 63t55.5 165h-178v82h273v-376h-86v30q0 44 3 63l-5 2q-74 -107 -217 -107z
M243 809v70h266v-70h-266z" />
    <glyph glyph-name="uni1E21" unicode="&#x1e21;" horiz-adv-x="576" 
d="M276 -205q-96 0 -151 41t-62 121h95q6 -93 120 -93q70 0 103.5 40.5t33.5 139.5v51q-32 -43 -69.5 -60.5t-93.5 -17.5q-95 0 -153 70t-58 181q0 106 59 182.5t157 76.5q115 0 160 -83v72h85v-442q0 -140 -50 -209.5t-176 -69.5zM275 88q65 0 103 51t38 138q0 79 -39 129
t-102 50q-66 0 -103 -48.5t-37 -129.5q0 -89 37.5 -139.5t102.5 -50.5zM145 633v70h264v-70h-264z" />
    <glyph glyph-name="uni1E22" unicode="&#x1e22;" horiz-adv-x="745" 
d="M87 0v726h98v-311h374v311h99v-726h-99v334h-374v-334h-98zM325 798v100h94v-100h-94z" />
    <glyph glyph-name="uni1E23" unicode="&#x1e23;" horiz-adv-x="575" 
d="M75 0v726h92v-275q48 76 157 76q125 0 165 -92q17 -39 17 -126v-309h-92v290q0 35 -3.5 60t-14 51t-34 39.5t-58.5 13.5q-66 0 -101.5 -46.5t-35.5 -137.5v-270h-92zM278 626v100h92v-100h-92z" />
    <glyph glyph-name="uni1E24" unicode="&#x1e24;" horiz-adv-x="745" 
d="M87 0v726h98v-311h374v311h99v-726h-99v334h-374v-334h-98zM325 -172v100h94v-100h-94z" />
    <glyph glyph-name="uni1E25" unicode="&#x1e25;" horiz-adv-x="575" 
d="M75 0v726h92v-275q48 76 157 76q125 0 165 -92q17 -39 17 -126v-309h-92v290q0 35 -3.5 60t-14 51t-34 39.5t-58.5 13.5q-66 0 -101.5 -46.5t-35.5 -137.5v-270h-92zM244 -172v100h92v-100h-92z" />
    <glyph glyph-name="uni1E2A" unicode="&#x1e2a;" horiz-adv-x="745" 
d="M87 0v726h98v-311h374v311h99v-726h-99v334h-374v-334h-98zM374 -186q-67 0 -105 35.5t-39 93.5h80q6 -69 64 -69t64 69h80q-1 -58 -39 -93.5t-105 -35.5z" />
    <glyph glyph-name="uni1E2B" unicode="&#x1e2b;" horiz-adv-x="575" 
d="M75 0v726h92v-275q48 76 157 76q125 0 165 -92q17 -39 17 -126v-309h-92v290q0 35 -3.5 60t-14 51t-34 39.5t-58.5 13.5q-66 0 -101.5 -46.5t-35.5 -137.5v-270h-92zM291 -186q-64 0 -103.5 33t-39.5 96h76q0 -73 67 -73q66 0 66 73h76q0 -64 -39.5 -96.5t-102.5 -32.5z
" />
    <glyph glyph-name="uni1E36" unicode="&#x1e36;" horiz-adv-x="553" 
d="M87 0v726h98v-644h355v-82h-453zM268 -172v100h94v-100h-94z" />
    <glyph glyph-name="uni1E37" unicode="&#x1e37;" horiz-adv-x="242" 
d="M75 0v726h92v-726h-92zM75 -172v100h92v-100h-92z" />
    <glyph glyph-name="uni1E38" unicode="&#x1e38;" horiz-adv-x="553" 
d="M87 0v726h98v-644h355v-82h-453zM268 -172v100h94v-100h-94zM0 809v70h266v-70h-266z" />
    <glyph glyph-name="uni1E39" unicode="&#x1e39;" horiz-adv-x="242" 
d="M75 0v726h92v-726h-92zM75 -172v100h92v-100h-92zM-1 809v70h244v-70h-244z" />
    <glyph glyph-name="uni1E3A" unicode="&#x1e3a;" horiz-adv-x="553" 
d="M87 0v726h98v-644h355v-82h-453zM183 -157v70h264v-70h-264z" />
    <glyph glyph-name="uni1E3B" unicode="&#x1e3b;" horiz-adv-x="242" 
d="M75 0v726h92v-726h-92zM-1 -157v70h244v-70h-244z" />
    <glyph glyph-name="uni1E3E" unicode="&#x1e3e;" horiz-adv-x="928" 
d="M87 0v726h151l178 -468q32 -83 51 -151h5q14 62 46 151l171 468h152v-726h-92v415q0 37 2 110.5t2 107.5h-5l-232 -633h-106l-233 633h-5q0 -8 2.5 -95.5t2.5 -122.5v-415h-90zM421 791l96 114h111l-126 -114h-81z" />
    <glyph glyph-name="uni1E3F" unicode="&#x1e3f;" horiz-adv-x="875" 
d="M75 0v516h86v-66q48 77 155 77q47 0 85.5 -23.5t55.5 -71.5q61 95 183 95q166 0 166 -191v-336h-92v286q0 35 -3 59t-12 52t-31 42.5t-56 14.5q-125 0 -125 -199v-255h-92v286q0 35 -3 59t-12.5 52t-31.5 42.5t-56 14.5q-125 0 -125 -199v-255h-92zM405 600l89 126h104
l-116 -126h-77z" />
    <glyph glyph-name="uni1E40" unicode="&#x1e40;" horiz-adv-x="928" 
d="M87 0v726h151l178 -468q32 -83 51 -151h5q14 62 46 151l171 468h152v-726h-92v415q0 37 2 110.5t2 107.5h-5l-232 -633h-106l-233 633h-5q0 -8 2.5 -95.5t2.5 -122.5v-415h-90zM421 798v100h94v-100h-94z" />
    <glyph glyph-name="uni1E41" unicode="&#x1e41;" horiz-adv-x="875" 
d="M75 0v516h86v-66q48 77 155 77q47 0 85.5 -23.5t55.5 -71.5q61 95 183 95q166 0 166 -191v-336h-92v286q0 35 -3 59t-12 52t-31 42.5t-56 14.5q-125 0 -125 -199v-255h-92v286q0 35 -3 59t-12.5 52t-31.5 42.5t-56 14.5q-125 0 -125 -199v-255h-92zM402 626v100h92v-100
h-92z" />
    <glyph glyph-name="uni1E42" unicode="&#x1e42;" horiz-adv-x="928" 
d="M87 0v726h151l178 -468q32 -83 51 -151h5q14 62 46 151l171 468h152v-726h-92v415q0 37 2 110.5t2 107.5h-5l-232 -633h-106l-233 633h-5q0 -8 2.5 -95.5t2.5 -122.5v-415h-90zM417 -172v100h94v-100h-94z" />
    <glyph glyph-name="uni1E43" unicode="&#x1e43;" horiz-adv-x="875" 
d="M75 0v516h86v-66q48 77 155 77q47 0 85.5 -23.5t55.5 -71.5q61 95 183 95q166 0 166 -191v-336h-92v286q0 35 -3 59t-12 52t-31 42.5t-56 14.5q-125 0 -125 -199v-255h-92v286q0 35 -3 59t-12.5 52t-31.5 42.5t-56 14.5q-125 0 -125 -199v-255h-92zM394 -172v100h92v-100
h-92z" />
    <glyph glyph-name="uni1E44" unicode="&#x1e44;" horiz-adv-x="749" 
d="M87 0v726h134q305 -529 351 -624h5q-6 158 -6 262v362h91v-726h-132q-310 544 -355 633h-5q7 -189 7 -271v-362h-90zM337 798v100h94v-100h-94z" />
    <glyph glyph-name="uni1E45" unicode="&#x1e45;" horiz-adv-x="575" 
d="M75 0v516h85v-66q58 77 164 77q128 0 164 -92q18 -45 18 -126v-309h-92v291q0 35 -3.5 60t-14 50.5t-34 39t-58.5 13.5q-66 0 -101.5 -46.5t-35.5 -137.5v-270h-92zM264 626v100h92v-100h-92z" />
    <glyph glyph-name="uni1E46" unicode="&#x1e46;" horiz-adv-x="749" 
d="M87 0v726h134q305 -529 351 -624h5q-6 158 -6 262v362h91v-726h-132q-310 544 -355 633h-5q7 -189 7 -271v-362h-90zM317 -172v100h94v-100h-94z" />
    <glyph glyph-name="uni1E47" unicode="&#x1e47;" horiz-adv-x="575" 
d="M75 0v516h85v-66q58 77 164 77q128 0 164 -92q18 -45 18 -126v-309h-92v291q0 35 -3.5 60t-14 50.5t-34 39t-58.5 13.5q-66 0 -101.5 -46.5t-35.5 -137.5v-270h-92zM242 -172v100h92v-100h-92z" />
    <glyph glyph-name="uni1E48" unicode="&#x1e48;" horiz-adv-x="749" 
d="M87 0v726h134q305 -529 351 -624h5q-6 158 -6 262v362h91v-726h-132q-310 544 -355 633h-5q7 -189 7 -271v-362h-90zM232 -157v70h264v-70h-264z" />
    <glyph glyph-name="uni1E49" unicode="&#x1e49;" horiz-adv-x="575" 
d="M75 0v516h85v-66q58 77 164 77q128 0 164 -92q18 -45 18 -126v-309h-92v291q0 35 -3.5 60t-14 50.5t-34 39t-58.5 13.5q-66 0 -101.5 -46.5t-35.5 -137.5v-270h-92zM156 -157v70h264v-70h-264z" />
    <glyph glyph-name="uni1E56" unicode="&#x1e56;" horiz-adv-x="625" 
d="M87 0v726h220q132 0 194 -32q47 -24 72 -74t25 -113q0 -128 -98 -186q-57 -35 -199 -35h-116v-286h-98zM185 366h126q87 0 117 15q33 17 51 51t18 75t-18 74.5t-51 50.5q-27 14 -117 14h-126v-280zM280 798v100h94v-100h-94z" />
    <glyph glyph-name="uni1E57" unicode="&#x1e57;" horiz-adv-x="585" 
d="M75 -201v717h88v-70q55 81 165 81q101 0 158.5 -74.5t57.5 -194.5q0 -124 -61.5 -196.5t-158.5 -72.5q-112 0 -157 69v-259h-92zM310 62q64 0 102 52t38 144t-38 144t-102 52q-65 0 -105 -54.5t-40 -141.5q0 -88 40 -142t105 -54zM262 626v100h92v-100h-92z" />
    <glyph glyph-name="uni1E5A" unicode="&#x1e5a;" horiz-adv-x="648" 
d="M87 0v726h215q91 0 141 -15q62 -19 99 -66.5t37 -122.5q0 -65 -43.5 -115.5t-114.5 -66.5v-3q90 -5 122 -104l76 -233h-105l-65 206q-11 34 -26.5 54t-42.5 28.5t-48.5 10.5t-65.5 2h-81v-301h-98zM185 381h83q44 0 76 4t65.5 16.5t51.5 40.5t18 71q0 106 -108 127
q-31 6 -103 6h-83v-265zM295 -172v100h94v-100h-94z" />
    <glyph glyph-name="uni1E5B" unicode="&#x1e5b;" horiz-adv-x="378" 
d="M75 0v516h87v-76q53 82 145 82q29 0 58 -6v-81q-40 7 -61 7q-78 0 -107.5 -51.5t-29.5 -153.5v-237h-92zM76 -172v100h92v-100h-92z" />
    <glyph glyph-name="uni1E5C" unicode="&#x1e5c;" horiz-adv-x="648" 
d="M87 0v726h215q91 0 141 -15q62 -19 99 -66.5t37 -122.5q0 -65 -43.5 -115.5t-114.5 -66.5v-3q90 -5 122 -104l76 -233h-105l-65 206q-11 34 -26.5 54t-42.5 28.5t-48.5 10.5t-65.5 2h-81v-301h-98zM185 381h83q44 0 76 4t65.5 16.5t51.5 40.5t18 71q0 106 -108 127
q-31 6 -103 6h-83v-265zM295 -172v100h94v-100h-94zM183 809v70h266v-70h-266z" />
    <glyph glyph-name="uni1E5D" unicode="&#x1e5d;" horiz-adv-x="378" 
d="M75 0v516h87v-76q53 82 145 82q29 0 58 -6v-81q-40 7 -61 7q-78 0 -107.5 -51.5t-29.5 -153.5v-237h-92zM76 -172v100h92v-100h-92zM86 633v70h264v-70h-264z" />
    <glyph glyph-name="uni1E5E" unicode="&#x1e5e;" horiz-adv-x="648" 
d="M87 0v726h215q91 0 141 -15q62 -19 99 -66.5t37 -122.5q0 -65 -43.5 -115.5t-114.5 -66.5v-3q90 -5 122 -104l76 -233h-105l-65 206q-11 34 -26.5 54t-42.5 28.5t-48.5 10.5t-65.5 2h-81v-301h-98zM185 381h83q44 0 76 4t65.5 16.5t51.5 40.5t18 71q0 106 -108 127
q-31 6 -103 6h-83v-265zM210 -157v70h264v-70h-264z" />
    <glyph glyph-name="uni1E5F" unicode="&#x1e5f;" horiz-adv-x="378" 
d="M75 0v516h87v-76q53 82 145 82q29 0 58 -6v-81q-40 7 -61 7q-78 0 -107.5 -51.5t-29.5 -153.5v-237h-92zM0 -157v70h244v-70h-244z" />
    <glyph glyph-name="uni1E60" unicode="&#x1e60;" horiz-adv-x="623" 
d="M315 -15q-129 0 -201.5 66t-72.5 187h99q0 -85 45 -130t130 -45q76 0 119.5 34t43.5 91q0 26 -11.5 47.5t-26 34.5t-43.5 25.5t-49 18.5t-58 16q-43 12 -69 20.5t-62 26t-55.5 38t-34 53t-14.5 74.5q0 88 72 143.5t185 55.5q119 0 187 -61.5t68 -169.5h-96q0 75 -47 114
t-114 39q-62 0 -107 -30t-45 -85q0 -26 10.5 -46t23.5 -32.5t41.5 -25t47 -18t56.5 -16.5q45 -12 71 -20.5t64 -27t58.5 -39t36 -54t15.5 -75.5q0 -94 -74 -151.5t-193 -57.5zM264 798v100h94v-100h-94z" />
    <glyph glyph-name="uni1E61" unicode="&#x1e61;" horiz-adv-x="505" 
d="M260 -15q-107 0 -165.5 47.5t-59.5 133.5h93q0 -54 35 -82t99 -28q53 0 81.5 20t28.5 57q0 18 -8 32t-18 22.5t-30.5 15.5t-35 10.5t-41.5 8.5q-29 6 -39.5 8t-37 9t-37.5 13t-29.5 18.5t-27 27t-15 36t-6.5 47.5q0 66 55.5 108t146.5 42q98 0 151.5 -44.5t54.5 -128.5
h-91q-1 101 -117 101q-47 0 -75.5 -19.5t-28.5 -52.5q0 -39 31.5 -55.5t95.5 -28.5q30 -6 41 -8t38 -9.5t39 -14.5t31.5 -19.5t28 -27.5t15.5 -36.5t7 -48.5q0 -69 -59 -111.5t-151 -42.5zM203 626v100h92v-100h-92z" />
    <glyph glyph-name="uni1E62" unicode="&#x1e62;" horiz-adv-x="623" 
d="M315 -15q-129 0 -201.5 66t-72.5 187h99q0 -85 45 -130t130 -45q76 0 119.5 34t43.5 91q0 26 -11.5 47.5t-26 34.5t-43.5 25.5t-49 18.5t-58 16q-43 12 -69 20.5t-62 26t-55.5 38t-34 53t-14.5 74.5q0 88 72 143.5t185 55.5q119 0 187 -61.5t68 -169.5h-96q0 75 -47 114
t-114 39q-62 0 -107 -30t-45 -85q0 -26 10.5 -46t23.5 -32.5t41.5 -25t47 -18t56.5 -16.5q45 -12 71 -20.5t64 -27t58.5 -39t36 -54t15.5 -75.5q0 -94 -74 -151.5t-193 -57.5zM269 -172v100h94v-100h-94z" />
    <glyph glyph-name="uni1E63" unicode="&#x1e63;" horiz-adv-x="505" 
d="M260 -15q-107 0 -165.5 47.5t-59.5 133.5h93q0 -54 35 -82t99 -28q53 0 81.5 20t28.5 57q0 18 -8 32t-18 22.5t-30.5 15.5t-35 10.5t-41.5 8.5q-29 6 -39.5 8t-37 9t-37.5 13t-29.5 18.5t-27 27t-15 36t-6.5 47.5q0 66 55.5 108t146.5 42q98 0 151.5 -44.5t54.5 -128.5
h-91q-1 101 -117 101q-47 0 -75.5 -19.5t-28.5 -52.5q0 -39 31.5 -55.5t95.5 -28.5q30 -6 41 -8t38 -9.5t39 -14.5t31.5 -19.5t28 -27.5t15.5 -36.5t7 -48.5q0 -69 -59 -111.5t-151 -42.5zM216 -172v100h92v-100h-92z" />
    <glyph glyph-name="uni1E6A" unicode="&#x1e6a;" horiz-adv-x="599" 
d="M250 0v645h-239v81h577v-81h-239v-645h-99zM253 798v100h94v-100h-94z" />
    <glyph glyph-name="uni1E6B" unicode="&#x1e6b;" horiz-adv-x="333" 
d="M238 -9q-64 0 -97 34t-33 115v300h-95v76h95v125h92v-125h112v-76h-112v-257q0 -63 10.5 -88.5t51.5 -25.5q31 0 52 5v-74q-40 -9 -76 -9zM108 718v100h92v-100h-92z" />
    <glyph glyph-name="uni1E6C" unicode="&#x1e6c;" horiz-adv-x="599" 
d="M250 0v645h-239v81h577v-81h-239v-645h-99zM253 -172v100h94v-100h-94z" />
    <glyph glyph-name="uni1E6D" unicode="&#x1e6d;" horiz-adv-x="333" 
d="M238 -9q-64 0 -97 34t-33 115v300h-95v76h95v125h92v-125h112v-76h-112v-257q0 -63 10.5 -88.5t51.5 -25.5q31 0 52 5v-74q-40 -9 -76 -9zM157 -172v100h92v-100h-92z" />
    <glyph glyph-name="uni1E6E" unicode="&#x1e6e;" horiz-adv-x="599" 
d="M250 0v645h-239v81h577v-81h-239v-645h-99zM168 -157v70h264v-70h-264z" />
    <glyph glyph-name="uni1E6F" unicode="&#x1e6f;" horiz-adv-x="333" 
d="M238 -9q-64 0 -97 34t-33 115v300h-95v76h95v125h92v-125h112v-76h-112v-257q0 -63 10.5 -88.5t51.5 -25.5q31 0 52 5v-74q-40 -9 -76 -9zM81 -157v70h244v-70h-244z" />
    <glyph glyph-name="uni1E7C" unicode="&#x1e7c;" horiz-adv-x="642" 
d="M265 0l-256 726h109l158 -468q9 -26 23.5 -76t22.5 -74h6q24 73 47 150l163 468h99l-264 -726h-108zM168 796q6 50 29.5 78.5t62.5 28.5q20 0 67.5 -20t66.5 -20q32 0 41 38h54q-6 -50 -29.5 -78.5t-62.5 -28.5q-20 0 -67.5 20t-66.5 20q-33 0 -41 -38h-54z" />
    <glyph glyph-name="uni1E7D" unicode="&#x1e7d;" horiz-adv-x="511" 
d="M202 0l-191 516h101l91 -258q28 -81 53 -178h6q20 81 53 178l91 258h94l-191 -516h-107zM94 612q6 50 29.5 78.5t62.5 28.5q20 0 67.5 -20t66.5 -20q32 0 41 38h54q-6 -50 -29.5 -78.5t-62.5 -28.5q-20 0 -67.5 20t-66.5 20q-33 0 -41 -38h-54z" />
    <glyph glyph-name="Wgrave" unicode="&#x1e80;" horiz-adv-x="948" 
d="M195 0l-180 726h101l108 -468q17 -73 30 -146h5q17 94 32 146l127 468h122l123 -468q0 -2 32 -146h6q20 101 31 146l110 468h90l-179 -726h-117l-125 482q-10 42 -33 146h-5q-24 -112 -33 -146l-129 -482h-116zM443 791l-125 114h111l96 -114h-82z" />
    <glyph glyph-name="wgrave" unicode="&#x1e81;" horiz-adv-x="792" 
d="M158 0l-144 516h95l70 -258q15 -56 39 -178h6q10 51 44 178l70 258h123l73 -258q23 -79 42 -178h6q17 97 39 178l70 258h86l-143 -516h-119l-71 258q-17 65 -44 188h-6q-29 -124 -46 -188l-71 -258h-119zM365 600l-116 126h105l88 -126h-77z" />
    <glyph glyph-name="Wacute" unicode="&#x1e82;" horiz-adv-x="948" 
d="M195 0l-180 726h101l108 -468q17 -73 30 -146h5q17 94 32 146l127 468h122l123 -468q0 -2 32 -146h6q20 101 31 146l110 468h90l-179 -726h-117l-125 482q-10 42 -33 146h-5q-24 -112 -33 -146l-129 -482h-116zM425 791l96 114h111l-126 -114h-81z" />
    <glyph glyph-name="wacute" unicode="&#x1e83;" horiz-adv-x="792" 
d="M158 0l-144 516h95l70 -258q15 -56 39 -178h6q10 51 44 178l70 258h123l73 -258q23 -79 42 -178h6q17 97 39 178l70 258h86l-143 -516h-119l-71 258q-17 65 -44 188h-6q-29 -124 -46 -188l-71 -258h-119zM350 600l89 126h104l-116 -126h-77z" />
    <glyph glyph-name="Wdieresis" unicode="&#x1e84;" horiz-adv-x="948" 
d="M195 0l-180 726h101l108 -468q17 -73 30 -146h5q17 94 32 146l127 468h122l123 -468q0 -2 32 -146h6q20 101 31 146l110 468h90l-179 -726h-117l-125 482q-10 42 -33 146h-5q-24 -112 -33 -146l-129 -482h-116zM529 795v105h90v-105h-90zM331 795v105h90v-105h-90z" />
    <glyph glyph-name="wdieresis" unicode="&#x1e85;" horiz-adv-x="792" 
d="M158 0l-144 516h95l70 -258q15 -56 39 -178h6q10 51 44 178l70 258h123l73 -258q23 -79 42 -178h6q17 97 39 178l70 258h86l-143 -516h-119l-71 258q-17 65 -44 188h-6q-29 -124 -46 -188l-71 -258h-119zM450 621v105h90v-105h-90zM254 621v105h90v-105h-90z" />
    <glyph glyph-name="uni1E8A" unicode="&#x1e8a;" horiz-adv-x="622" 
d="M2 0l251 378l-238 348h116l183 -281l185 281h107l-238 -348l254 -378h-115l-199 305l-197 -305h-109zM263 798v100h94v-100h-94z" />
    <glyph glyph-name="uni1E8B" unicode="&#x1e8b;" horiz-adv-x="492" 
d="M3 0l189 267l-175 249h114l118 -189l126 189h100l-177 -249l192 -267h-113l-135 202l-135 -202h-104zM205 626v100h92v-100h-92z" />
    <glyph glyph-name="uni1E92" unicode="&#x1e92;" horiz-adv-x="569" 
d="M33 0v83l387 564q-82 -2 -124 -2h-253v81h482v-81l-389 -567q86 4 149 4h259v-82h-511zM241 -172v100h94v-100h-94z" />
    <glyph glyph-name="uni1E93" unicode="&#x1e93;" horiz-adv-x="452" 
d="M27 0v75l287 370q-34 -5 -113 -5h-160v76h375v-76l-284 -369q40 4 120 4h176v-75h-401zM181 -172v100h92v-100h-92z" />
    <glyph glyph-name="uni1E97" unicode="&#x1e97;" horiz-adv-x="333" 
d="M238 -9q-64 0 -97 34t-33 115v300h-95v76h95v125h92v-125h112v-76h-112v-257q0 -63 10.5 -88.5t51.5 -25.5q31 0 52 5v-74q-40 -9 -76 -9zM189 713v105h89v-105h-89zM30 713v105h89v-105h-89z" />
    <glyph glyph-name="Germandbls" unicode="&#x1e9e;" horiz-adv-x="747" 
d="M346 507q0 47 27.5 81.5t76.5 52.5v4h-265v-645h-98v726h512v-75q-88 -34 -119 -67t-31 -77q0 -22 10.5 -41t32.5 -36t37.5 -26t45.5 -25q28 -15 42.5 -23t37.5 -27t34.5 -37.5t21 -49.5t9.5 -68q0 -84 -57.5 -136.5t-159.5 -52.5q-109 0 -170.5 48.5t-61.5 144.5h97
q0 -115 135 -115q58 0 86.5 30t28.5 75q0 28 -8 50t-25 38t-32 26t-40 24q-7 4 -11 6q-3 2 -21 12t-22.5 13t-20.5 13t-21.5 15t-18.5 16t-18 19t-13.5 21t-11.5 25t-6 28t-3 33z" />
    <glyph glyph-name="uni1EA0" unicode="&#x1ea0;" horiz-adv-x="696" 
d="M3 0l295 726h99l298 -726h-107l-84 211h-318l-79 -211h-104zM218 291h257l-69 187q-6 15 -26.5 69.5t-30.5 83.5h-4q-35 -102 -54 -151zM300 -172v100h94v-100h-94z" />
    <glyph glyph-name="uni1EA1" unicode="&#x1ea1;" horiz-adv-x="540" 
d="M218 -11q-84 0 -131.5 43t-47.5 113q0 31 10 55.5t25 41.5t40.5 30t48 20t56 12.5t56.5 8t57.5 5.5t50.5 5v18q0 121 -114 121q-55 0 -87.5 -27t-32.5 -78h-91q0 79 58.5 126.5t152.5 47.5q56 0 96 -15t60.5 -36.5t31.5 -56.5t13.5 -61t2.5 -65v-141q0 -95 13 -156h-86
q-6 29 -7 70q-61 -81 -175 -81zM239 56q144 0 144 167v29q-12 -2 -45 -4.5t-55.5 -5t-53.5 -9.5t-50 -17t-33 -29t-14 -44q0 -38 29 -62.5t78 -24.5zM206 -172v100h92v-100h-92z" />
    <glyph glyph-name="uni1EB8" unicode="&#x1eb8;" horiz-adv-x="598" 
d="M87 0v726h452v-81h-354v-233h338v-82h-338v-249h371v-81h-469zM267 -172v100h94v-100h-94z" />
    <glyph glyph-name="uni1EB9" unicode="&#x1eb9;" horiz-adv-x="562" 
d="M285 -15q-118 0 -181.5 72t-63.5 201q0 119 67.5 196t179.5 77q234 0 234 -302h-385q4 -76 46.5 -123.5t105.5 -47.5q107 0 135 96h97q-16 -81 -80 -125t-155 -44zM138 304h285q-7 76 -44.5 114.5t-95.5 38.5q-60 0 -97.5 -38.5t-47.5 -114.5zM238 -172v100h92v-100h-92z
" />
    <glyph glyph-name="uni1EBC" unicode="&#x1ebc;" horiz-adv-x="598" 
d="M87 0v726h452v-81h-354v-233h338v-82h-338v-249h371v-81h-469zM169 796q6 50 29.5 78.5t62.5 28.5q20 0 67.5 -20t66.5 -20q32 0 41 38h54q-6 -50 -29.5 -78.5t-62.5 -28.5q-20 0 -67.5 20t-66.5 20q-33 0 -41 -38h-54z" />
    <glyph glyph-name="uni1EBD" unicode="&#x1ebd;" horiz-adv-x="562" 
d="M285 -15q-118 0 -181.5 72t-63.5 201q0 119 67.5 196t179.5 77q234 0 234 -302h-385q4 -76 46.5 -123.5t105.5 -47.5q107 0 135 96h97q-16 -81 -80 -125t-155 -44zM138 304h285q-7 76 -44.5 114.5t-95.5 38.5q-60 0 -97.5 -38.5t-47.5 -114.5zM124 612q6 50 29.5 78.5
t62.5 28.5q20 0 67.5 -20t66.5 -20q32 0 41 38h54q-6 -50 -29.5 -78.5t-62.5 -28.5q-20 0 -67.5 20t-66.5 20q-33 0 -41 -38h-54z" />
    <glyph glyph-name="uni1ECA" unicode="&#x1eca;" horiz-adv-x="272" 
d="M87 0v726h98v-726h-98zM88 -172v100h94v-100h-94z" />
    <glyph glyph-name="uni1ECB" unicode="&#x1ecb;" horiz-adv-x="242" 
d="M75 0v516h92v-516h-92zM75 626v100h92v-100h-92zM75 -172v100h92v-100h-92z" />
    <glyph glyph-name="uni1ECC" unicode="&#x1ecc;" horiz-adv-x="763" 
d="M381 -15q-151 0 -242.5 104.5t-91.5 273.5q0 168 91.5 273t242.5 105t243 -105t92 -273q0 -171 -91.5 -274.5t-243.5 -103.5zM381 63q105 0 169 84.5t64 215.5t-64 215.5t-169 84.5q-104 0 -168 -84.5t-64 -215.5t64 -215.5t168 -84.5zM334 -172v100h94v-100h-94z" />
    <glyph glyph-name="uni1ECD" unicode="&#x1ecd;" horiz-adv-x="580" 
d="M288 -15q-114 0 -181 75.5t-67 197.5q0 121 67.5 197t181.5 76t182.5 -76t68.5 -197q0 -122 -68 -197.5t-184 -75.5zM288 58q72 0 114.5 54.5t42.5 144.5t-42.5 145t-113.5 55q-70 0 -112 -54t-42 -144q0 -91 41.5 -146t111.5 -55zM242 -172v100h92v-100h-92z" />
    <glyph glyph-name="uni1EE4" unicode="&#x1ee4;" horiz-adv-x="704" 
d="M351 -15q-183 0 -243 133q-28 63 -28 188v420h98v-418q0 -75 9 -116.5t32 -70.5q48 -59 132 -59q41 0 77.5 16.5t56.5 42.5q41 54 41 187v418h98v-420q0 -145 -42 -211q-33 -52 -93 -81t-138 -29zM305 -172v100h94v-100h-94z" />
    <glyph glyph-name="uni1EE5" unicode="&#x1ee5;" horiz-adv-x="572" 
d="M249 -11q-118 0 -163 92q-17 35 -17 135v300h91v-291q0 -35 3.5 -59.5t13.5 -50.5t33.5 -39.5t58.5 -13.5q66 0 101.5 46t35.5 137v271h91v-516h-85v66q-57 -77 -163 -77zM222 -172v100h92v-100h-92z" />
    <glyph glyph-name="Ygrave" unicode="&#x1ef2;" horiz-adv-x="617" 
d="M259 0v307l-251 419h114l189 -343l198 343h104l-256 -419v-307h-98zM279 791l-125 114h111l96 -114h-82z" />
    <glyph glyph-name="ygrave" unicode="&#x1ef3;" horiz-adv-x="511" 
d="M107 -205q-33 0 -60 5v77q24 -6 44 -6q48 0 74 30.5t42 87.5l-196 527h102l90 -258q12 -35 30.5 -100t22.5 -77h5q28 101 55 177l91 258h93l-192 -516q-40 -105 -83 -155t-118 -50zM224 600l-116 126h105l88 -126h-77z" />
    <glyph glyph-name="uni1EF8" unicode="&#x1ef8;" horiz-adv-x="617" 
d="M259 0v307l-251 419h114l189 -343l198 343h104l-256 -419v-307h-98zM155 796q6 50 29.5 78.5t62.5 28.5q20 0 67.5 -20t66.5 -20q32 0 41 38h54q-6 -50 -29.5 -78.5t-62.5 -28.5q-20 0 -67.5 20t-66.5 20q-33 0 -41 -38h-54z" />
    <glyph glyph-name="uni1EF9" unicode="&#x1ef9;" horiz-adv-x="511" 
d="M107 -205q-33 0 -60 5v77q24 -6 44 -6q48 0 74 30.5t42 87.5l-196 527h102l90 -258q12 -35 30.5 -100t22.5 -77h5q28 101 55 177l91 258h93l-192 -516q-40 -105 -83 -155t-118 -50zM94 612q6 50 29.5 78.5t62.5 28.5q20 0 67.5 -20t66.5 -20q32 0 41 38h54
q-6 -50 -29.5 -78.5t-62.5 -28.5q-20 0 -67.5 20t-66.5 20q-33 0 -41 -38h-54z" />
    <glyph glyph-name="uni2000" unicode="&#x2000;" horiz-adv-x="500" 
 />
    <glyph glyph-name="uni2001" unicode="&#x2001;" horiz-adv-x="1000" 
 />
    <glyph glyph-name="uni2002" unicode="&#x2002;" horiz-adv-x="500" 
 />
    <glyph glyph-name="uni2003" unicode="&#x2003;" horiz-adv-x="1000" 
 />
    <glyph glyph-name="uni2004" unicode="&#x2004;" horiz-adv-x="333" 
 />
    <glyph glyph-name="uni2005" unicode="&#x2005;" horiz-adv-x="250" 
 />
    <glyph glyph-name="uni2006" unicode="&#x2006;" horiz-adv-x="167" 
 />
    <glyph glyph-name="uni2007" unicode="&#x2007;" 
 />
    <glyph glyph-name="uni2008" unicode="&#x2008;" horiz-adv-x="225" 
 />
    <glyph glyph-name="uni2009" unicode="&#x2009;" horiz-adv-x="125" 
 />
    <glyph glyph-name="uni200A" unicode="&#x200a;" horiz-adv-x="42" 
 />
    <glyph glyph-name="uni200B" unicode="&#x200b;" horiz-adv-x="0" 
 />
    <glyph glyph-name="figuredash" unicode="&#x2012;" 
d="M95 319h439v-72h-439v72z" />
    <glyph glyph-name="endash" unicode="&#x2013;" horiz-adv-x="561" 
d="M61 319h439v-72h-439v72z" />
    <glyph glyph-name="emdash" unicode="&#x2014;" horiz-adv-x="813" 
d="M61 319h691v-72h-691v72z" />
    <glyph glyph-name="uni2015" unicode="&#x2015;" horiz-adv-x="813" 
d="M61 319h691v-72h-691v72z" />
    <glyph glyph-name="quoteleft" unicode="&#x2018;" horiz-adv-x="214" 
d="M165 726l-49 -150h44v-107h-111v119l57 138h59z" />
    <glyph glyph-name="quoteright" unicode="&#x2019;" horiz-adv-x="208" 
d="M109 469h-59l48 150h-43v107h111v-119z" />
    <glyph glyph-name="quotesinglbase" unicode="&#x201a;" horiz-adv-x="220" 
d="M108 -138h-59l48 150h-43v107h111v-119z" />
    <glyph glyph-name="quotereversed" unicode="&#x201b;" horiz-adv-x="208" 
d="M153 619h-44l49 -150h-59l-57 138v119h111v-107z" />
    <glyph glyph-name="quotedblleft" unicode="&#x201c;" horiz-adv-x="385" 
d="M336 726l-49 -150h44v-107h-112v119l58 138h59zM166 726l-49 -150h44v-107h-112v119l58 138h59z" />
    <glyph glyph-name="quotedblright" unicode="&#x201d;" horiz-adv-x="379" 
d="M109 469h-59l48 150h-43v107h112v-119zM279 469h-59l48 150h-43v107h112v-119z" />
    <glyph glyph-name="quotedblbase" unicode="&#x201e;" horiz-adv-x="391" 
d="M108 -138h-59l48 150h-43v107h112v-119zM278 -138h-59l48 150h-43v107h112v-119z" />
    <glyph glyph-name="uni201F" unicode="&#x201f;" horiz-adv-x="379" 
d="M324 619h-44l49 -150h-59l-58 138v119h112v-107zM154 619h-44l49 -150h-59l-58 138v119h112v-107z" />
    <glyph glyph-name="dagger" unicode="&#x2020;" horiz-adv-x="494" 
d="M203 457h-178v76h178v193h87v-193h179v-76h-179v-457h-87v457z" />
    <glyph glyph-name="daggerdbl" unicode="&#x2021;" horiz-adv-x="548" 
d="M230 159v298h-178v76h178v193h87v-193h179v-76h-179v-298h179v-76h-179v-198h-87v198h-178v76h178z" />
    <glyph glyph-name="bullet" unicode="&#x2022;" horiz-adv-x="353" 
d="M283 354q0 -47 -30 -77.5t-76 -30.5q-47 0 -77 30.5t-30 77.5q0 46 30 76t77 30q46 0 76 -30t30 -76z" />
    <glyph glyph-name="ellipsis" unicode="&#x2026;" horiz-adv-x="663" 
d="M55 119h115v-119h-115v119zM274 119h115v-119h-115v119zM493 119h115v-119h-115v119z" />
    <glyph glyph-name="perthousand" unicode="&#x2030;" horiz-adv-x="1279" 
d="M191 694q72 0 112.5 -55t40.5 -155q0 -98 -43 -151t-113 -53q-71 0 -112 53t-41 151t43 154t113 56zM191 644q-40 0 -61 -42t-21 -118q0 -74 21 -114.5t61 -40.5q38 0 59 40.5t21 114.5q0 75 -21 117.5t-59 42.5zM599 697h65l-369 -711h-64zM712 403q72 0 112.5 -55
t40.5 -155q0 -98 -43 -151t-113 -53q-71 0 -112 53t-41 151t43 154t113 56zM712 353q-40 0 -61 -42t-21 -118q0 -74 21 -114.5t61 -40.5q38 0 59 40.5t21 114.5q0 75 -21 117.5t-59 42.5zM1091 403q72 0 112.5 -55t40.5 -155q0 -98 -43 -151t-113 -53q-71 0 -112 53t-41 151
t43 154t113 56zM1091 353q-40 0 -61 -42t-21 -118q0 -74 21 -114.5t61 -40.5q38 0 59 40.5t21 114.5q0 75 -21 117.5t-59 42.5z" />
    <glyph glyph-name="minute" unicode="&#x2032;" horiz-adv-x="214" 
d="M47 683h120l-28 -285h-63z" />
    <glyph glyph-name="second" unicode="&#x2033;" horiz-adv-x="384" 
d="M47 683h120l-28 -285h-63zM217 683h120l-28 -285h-63z" />
    <glyph glyph-name="guilsinglleft" unicode="&#x2039;" horiz-adv-x="274" 
d="M34 272l103 200h93l-93 -200l93 -202h-93z" />
    <glyph glyph-name="guilsinglright" unicode="&#x203a;" horiz-adv-x="274" 
d="M240 269l-103 -199h-93l93 199l-93 203h93z" />
    <glyph glyph-name="fraction" unicode="&#x2044;" horiz-adv-x="142" 
d="M220 697h65l-369 -711h-64z" />
    <glyph glyph-name="uni2070" unicode="&#x2070;" horiz-adv-x="379" 
d="M191 881q72 0 112.5 -55t40.5 -155q0 -98 -43 -151t-113 -53q-71 0 -112 53t-41 151t43 154t113 56zM191 831q-40 0 -61 -42t-21 -118q0 -74 21 -114.5t61 -40.5q38 0 59 40.5t21 114.5q0 75 -21 117.5t-59 42.5z" />
    <glyph glyph-name="uni2074" unicode="&#x2074;" horiz-adv-x="359" 
d="M336 580h-69v-102h-66v102h-179v54l144 236h101v-237h69v-53zM201 633q0 44 2 178h-7q-7 -13 -47 -78l-62 -100h114z" />
    <glyph glyph-name="uni2075" unicode="&#x2075;" horiz-adv-x="345" 
d="M59 870h235v-53h-180l-10 -104q31 27 85 27q57 0 92 -37.5t35 -96.5q0 -62 -40 -100.5t-104 -38.5q-58 0 -96 30t-45 84h68q5 -31 24 -49t49 -18q33 0 54.5 25t21.5 64t-21 63.5t-53 24.5q-52 0 -68 -55l-69 6z" />
    <glyph glyph-name="uni2076" unicode="&#x2076;" horiz-adv-x="358" 
d="M251 772q-7 59 -61 59q-39 0 -62 -37.5t-25 -97.5q34 39 91 39t94.5 -36t37.5 -96q0 -61 -40 -98.5t-102 -37.5q-149 0 -149 200q0 98 41 156t114 58q57 0 91.5 -28t39.5 -81h-70zM186 686q-32 0 -53.5 -24.5t-21.5 -59.5q0 -37 21.5 -61.5t53.5 -24.5q30 0 50.5 24
t20.5 61t-20 61t-51 24z" />
    <glyph glyph-name="uni2077" unicode="&#x2077;" horiz-adv-x="305" 
d="M75 478q37 176 138 339h-195v53h267v-48q-107 -186 -137 -344h-73z" />
    <glyph glyph-name="uni2078" unicode="&#x2078;" horiz-adv-x="358" 
d="M179 467q-64 0 -104 31t-40 84q0 36 19 63.5t53 36.5v3q-63 24 -63 87q0 48 37.5 78.5t97.5 30.5t97.5 -30.5t37.5 -78.5q0 -63 -63 -87v-3q34 -9 53 -36.5t19 -63.5q0 -53 -40 -84t-104 -31zM179 658q-33 0 -54.5 -21t-21.5 -52q0 -29 21.5 -48.5t54.5 -19.5t54.5 19.5
t21.5 48.5q0 31 -21.5 52t-54.5 21zM179 831q-31 0 -49 -16.5t-18 -44.5t18.5 -45.5t48.5 -17.5t48.5 17.5t18.5 45.5t-18 44.5t-49 16.5z" />
    <glyph glyph-name="uni2079" unicode="&#x2079;" horiz-adv-x="358" 
d="M102 581q8 -65 70 -65q39 0 60.5 39t21.5 105q-32 -36 -86 -36q-59 0 -96 34.5t-37 90.5q0 58 39 95t103 37q145 0 145 -200q0 -102 -38 -158t-112 -56q-63 0 -99 30.5t-38 83.5h67zM174 831q-31 0 -51.5 -23.5t-20.5 -57.5q0 -32 20.5 -55t49.5 -23q33 0 53.5 22
t20.5 55q0 35 -20.5 58.5t-51.5 23.5z" />
    <glyph glyph-name="uni2080" unicode="&#x2080;" horiz-adv-x="379" 
d="M191 255q72 0 112.5 -55t40.5 -155q0 -98 -43 -151t-113 -53q-71 0 -112 53t-41 151t43 154t113 56zM191 205q-40 0 -61 -42t-21 -118q0 -74 21 -114.5t61 -40.5q38 0 59 40.5t21 114.5q0 75 -21 117.5t-59 42.5z" />
    <glyph glyph-name="uni2081" unicode="&#x2081;" horiz-adv-x="236" 
d="M114 130h-93v42q94 6 102 72h58v-392h-67v278z" />
    <glyph glyph-name="uni2082" unicode="&#x2082;" horiz-adv-x="342" 
d="M35 -148v21q0 59 27 95.5t93 74.5q46 26 64 48t18 50q0 30 -17.5 47.5t-46.5 17.5q-68 0 -71 -90h-67q1 65 39 102t101 37q58 0 94.5 -32t36.5 -84q0 -42 -25 -71t-84 -65q-22 -13 -31.5 -19.5t-25 -19.5t-23 -27t-10.5 -31h201v-54h-273z" />
    <glyph glyph-name="uni2083" unicode="&#x2083;" horiz-adv-x="351" 
d="M100 -21q0 -41 20 -65t55 -24q34 0 53 20t19 50t-20 48.5t-55 18.5h-25v50h20q36 0 55.5 17.5t19.5 48.5q0 29 -17.5 45.5t-48.5 16.5q-33 0 -51.5 -22t-19.5 -61h-68q3 62 40.5 97.5t101.5 35.5q58 0 94.5 -30.5t36.5 -78.5q0 -29 -16.5 -55.5t-47.5 -35.5v-3
q33 -10 51 -35.5t18 -60.5q0 -51 -38.5 -83t-104.5 -32q-64 0 -102.5 37.5t-38.5 100.5h69z" />
    <glyph glyph-name="uni2084" unicode="&#x2084;" horiz-adv-x="359" 
d="M336 -46h-69v-102h-66v102h-179v54l144 236h101v-237h69v-53zM201 7q0 44 2 178h-7q-7 -13 -47 -78l-62 -100h114z" />
    <glyph glyph-name="uni2085" unicode="&#x2085;" horiz-adv-x="345" 
d="M59 244h235v-53h-180l-10 -104q31 27 85 27q57 0 92 -37.5t35 -96.5q0 -62 -40 -100.5t-104 -38.5q-58 0 -96 30t-45 84h68q5 -31 24 -49t49 -18q33 0 54.5 25t21.5 64t-21 63.5t-53 24.5q-52 0 -68 -55l-69 6z" />
    <glyph glyph-name="uni2086" unicode="&#x2086;" horiz-adv-x="358" 
d="M251 146q-7 59 -61 59q-39 0 -62 -37.5t-25 -97.5q34 39 91 39t94.5 -36t37.5 -96q0 -61 -40 -98.5t-102 -37.5q-149 0 -149 200q0 98 41 156t114 58q57 0 91.5 -28t39.5 -81h-70zM186 60q-32 0 -53.5 -24.5t-21.5 -59.5q0 -37 21.5 -61.5t53.5 -24.5q30 0 50.5 24
t20.5 61t-20 61t-51 24z" />
    <glyph glyph-name="uni2087" unicode="&#x2087;" horiz-adv-x="305" 
d="M76 -148q37 176 138 339h-195v53h267v-48q-107 -186 -137 -344h-73z" />
    <glyph glyph-name="uni2088" unicode="&#x2088;" horiz-adv-x="358" 
d="M179 -159q-64 0 -104 31t-40 84q0 36 19 63.5t53 36.5v3q-63 24 -63 87q0 48 37.5 78.5t97.5 30.5t97.5 -30.5t37.5 -78.5q0 -63 -63 -87v-3q34 -9 53 -36.5t19 -63.5q0 -53 -40 -84t-104 -31zM179 32q-33 0 -54.5 -21t-21.5 -52q0 -29 21.5 -48.5t54.5 -19.5t54.5 19.5
t21.5 48.5q0 31 -21.5 52t-54.5 21zM179 205q-31 0 -49 -16.5t-18 -44.5t18.5 -45.5t48.5 -17.5t48.5 17.5t18.5 45.5t-18 44.5t-49 16.5z" />
    <glyph glyph-name="uni2089" unicode="&#x2089;" horiz-adv-x="358" 
d="M102 -45q8 -65 70 -65q39 0 60.5 39t21.5 105q-32 -36 -86 -36q-59 0 -96 34.5t-37 90.5q0 58 39 95t103 37q145 0 145 -200q0 -102 -38 -158t-112 -56q-63 0 -99 30.5t-38 83.5h67zM174 205q-31 0 -51.5 -23.5t-20.5 -57.5q0 -32 20.5 -55t49.5 -23q33 0 53.5 22
t20.5 55q0 35 -20.5 58.5t-51.5 23.5z" />
    <glyph glyph-name="colonmonetary" unicode="&#x20a1;" horiz-adv-x="625" 
d="M410 772h66l-12 -108q111 -56 127 -207h-91q-12 75 -47 112l-54 -497q83 30 103 153h92q-16 -95 -67.5 -158t-136.5 -77l-10 -90h-66l9 86q-36 1 -69 9l-10 -95h-66l13 120q-73 42 -110 126t-37 193q0 133 56.5 227.5t163.5 118.5l10 87h66l-9 -79h4q30 0 65 -7zM263 76
q33 -14 69 -14l60 546q-27 8 -57 8q-2 0 -6 -0.5t-6 -0.5zM136 339q0 -144 66 -218l53 477q-58 -28 -88.5 -95t-30.5 -164z" />
    <glyph glyph-name="uni20A6" unicode="&#x20a6;" horiz-adv-x="676" 
d="M628 293v-67h-66v-226h-132l-89 226h-139v-226h-88v226h-66v67h66v85h-66v67h66v238h132l94 -238h134v238h88v-238h66v-67h-66v-85h66zM202 317v-24h113l-33 85h-80v-61zM474 293v81v4h-108l34 -85h74zM198 585q0 -48 2 -140h56l-54 140h-4zM478 105l-2 121h-50l48 -121
h4z" />
    <glyph glyph-name="Euro" unicode="&#x20ac;" horiz-adv-x="655" 
d="M37 439h67q20 117 87 185.5t183 68.5q108 0 169.5 -58t72.5 -158h-91q-12 71 -48 105t-103 34q-73 0 -117.5 -46t-59.5 -131h266l-6 -64h-267q-1 -12 -1 -36q0 -28 1 -41h256l-6 -64h-243q32 -172 173 -172q64 0 98.5 34.5t51.5 102.5h92q-48 -214 -242 -214
q-117 0 -182 66.5t-83 182.5h-74l6 64h61q-1 13 -1 41q0 24 1 36h-67z" />
    <glyph glyph-name="uni20B2" unicode="&#x20b2;" horiz-adv-x="634" 
d="M485 492q-16 62 -47.5 90.5t-83.5 33.5v-256h223v-360h-80l-4 79q-43 -72 -139 -85v-95h-66v93q-125 9 -184 102t-59 251q0 145 63.5 236.5t179.5 107.5v83h66v-81q90 -5 146 -53t81 -146h-96zM145 345q0 -117 35.5 -189.5t107.5 -86.5v543q-143 -33 -143 -267zM485 284
h-131v-215q61 12 96 65t35 131v19z" />
    <glyph glyph-name="uni20B4" unicode="&#x20b4;" horiz-adv-x="627" 
d="M349 333l-55 -31h290v-66h-373q-38 -36 -38 -81q0 -47 39.5 -73t101.5 -26q140 0 161 125h91q-14 -94 -78 -145t-170 -51q-103 0 -168 42t-65 120q0 46 33 89h-78v66h148q26 18 96 56l41 23h-285v66h372q40 38 40 79q0 45 -35.5 73t-95.5 28q-127 0 -144 -122h-89
q13 95 77.5 144t158.5 49q100 0 158 -45t58 -120q0 -44 -32 -86h76v-66h-152q-30 -20 -83 -48z" />
    <glyph glyph-name="uni20B5" unicode="&#x20b5;" horiz-adv-x="625" 
d="M298 772h66v-80q101 -9 159 -72t68 -163h-91q-23 143 -136 157v-550q111 14 138 161h92q-16 -102 -74 -166t-156 -73v-87h-66v88q-125 14 -189.5 110.5t-64.5 241.5q0 144 65.5 241t188.5 111v81zM140 339q0 -114 41 -186t117 -88v548q-76 -15 -117 -87t-41 -187z" />
    <glyph glyph-name="uni20B8" unicode="&#x20b8;" horiz-adv-x="654" 
d="M35 533h584v-75h-243v-458h-98v458h-243v75zM35 683h584v-75h-584v75z" />
    <glyph glyph-name="uni20B9" unicode="&#x20b9;" horiz-adv-x="588" 
d="M40 521h323q-16 52 -65 70t-121 18h-141v74h512v-70h-140q42 -32 53 -92h84v-70h-85q-11 -50 -52.5 -87t-101.5 -47v-3q92 -7 122 -96l76 -218h-105l-65 191q-18 53 -59.5 71t-111.5 18h-71v75h77q36 0 63.5 3t59 12t51 29.5t25.5 51.5h-328v70z" />
    <glyph glyph-name="uni20BA" unicode="&#x20ba;" horiz-adv-x="607" 
d="M50 352v70l84 49v212h98v-154l169 99v-71l-169 -99v-73l169 99v-71l-169 -99v-236h26q96 0 164 62.5t68 183.5h90q0 -146 -86.5 -235t-235.5 -89h-124v257l-84 -49v70l84 49v74z" />
    <glyph glyph-name="uni20BD" unicode="&#x20bd;" horiz-adv-x="622" 
d="M50 369h65v314h236q243 0 243 -195q0 -101 -65 -148t-178 -47h-138v-75h251v-76h-251v-142h-98v142h-65v76h65v75h-65v76zM213 603v-234h126q157 0 157 119q0 115 -157 115h-126z" />
    <glyph glyph-name="uni20BF" unicode="&#x20bf;" horiz-adv-x="583" 
d="M78 683h88v88h62v-88h4q57 0 102 -4v92h62v-103q124 -34 124 -162q0 -53 -32.5 -95t-91.5 -57v-4q64 -12 104 -52.5t40 -107.5q0 -134 -144 -173v-118h-62v106q-42 -5 -102 -5h-4v-101h-62v101h-88v683zM232 76q39 0 65 1.5t55.5 8t47 18.5t29 33.5t11.5 52.5
q0 72 -41.5 96t-158.5 24h-66v-234h58zM236 386q87 0 137.5 23.5t50.5 85.5q0 31 -10.5 52t-26.5 32.5t-44 18t-52.5 8t-62.5 1.5h-54v-221h62z" />
    <glyph glyph-name="uni2113" unicode="&#x2113;" horiz-adv-x="441" 
d="M422 58q-28 -29 -70.5 -47.5t-85.5 -18.5q-82 0 -121 63t-39 167l-68 -42l-15 59q23 12 83 54v212q0 95 40 140.5t108 45.5q59 0 93 -33t34 -88q0 -43 -11.5 -78t-41.5 -73t-59 -66.5t-87 -80.5v-17q0 -201 87 -201q32 0 69.5 21.5t62.5 52.5zM181 350l33 32q53 51 75 87
t22 90q0 76 -61 76q-69 0 -69 -114v-171z" />
    <glyph glyph-name="uni2116" unicode="&#x2116;" horiz-adv-x="1202" 
d="M798 272h346v-56h-346v56zM856 531q0 -70 28.5 -112.5t86.5 -42.5t86.5 42.5t28.5 112.5t-28.5 112.5t-86.5 42.5t-86.5 -42.5t-28.5 -112.5zM782 531q0 99 50.5 153t138.5 54t138.5 -54t50.5 -153t-50.5 -153t-138.5 -54t-138.5 54t-50.5 153zM530 0q-310 544 -355 633
h-5q7 -189 7 -271v-362h-90v726h134q305 -529 351 -624h5q-6 158 -6 262v362h91v-726h-132z" />
    <glyph glyph-name="uni2117" unicode="&#x2117;" horiz-adv-x="839" 
d="M44 363q0 160 109.5 269t265.5 109q157 0 266.5 -109t109.5 -269t-109.5 -269t-266.5 -109q-156 0 -265.5 109t-109.5 269zM741 363q0 133 -91 231t-231 98t-231 -98t-91 -231t91 -231.5t231 -98.5t231 98.5t91 231.5zM286 580h158q70 0 113.5 -36.5t43.5 -101.5
t-43.5 -101.5t-113.5 -36.5h-89v-156h-69v432zM530 442q0 82 -94 82h-81v-164h81q94 0 94 82z" />
    <glyph glyph-name="trademark" unicode="&#x2122;" horiz-adv-x="905" 
d="M161 670h-136v56h337v-56h-134v-336h-67v336zM766 334v311h-4l-108 -311h-69l-117 311h-4v-311h-62v392h103l116 -312h3l105 312h102v-392h-65z" />
    <glyph glyph-name="Omega" unicode="&#x2126;" horiz-adv-x="772" 
d="M58 82h137q-77 66 -112 143.5t-35 177.5q0 144 91.5 241t245.5 97q155 0 247 -97t92 -241q0 -100 -35 -177.5t-112 -143.5h137v-82h-259v80q85 47 127 131t42 191q0 119 -63 190.5t-176 71.5t-175 -71.5t-62 -190.5q0 -107 42 -191t127 -131v-80h-259v82z" />
    <glyph glyph-name="estimated" unicode="&#x212e;" horiz-adv-x="591" 
d="M146 249v-158q68 -75 165 -75q109 0 172 81l24 -22q-67 -87 -197 -87q-115 0 -190 77.5t-75 191.5t75 192t190 78q109 0 180 -79.5t71 -198.5h-415zM462 425q-61 73 -158 73q-91 0 -158 -73v-147h316v147z" />
    <glyph glyph-name="uni2150" unicode="&#x2150;" horiz-adv-x="683" 
d="M113 569h-93v42q94 6 102 72h58v-392h-67v278zM456 697h65l-369 -711h-64zM454 0q37 176 138 339h-195v53h267v-48q-107 -186 -137 -344h-73z" />
    <glyph glyph-name="uni2151" unicode="&#x2151;" horiz-adv-x="736" 
d="M113 569h-93v42q94 6 102 72h58v-392h-67v278zM456 697h65l-369 -711h-64zM480 103q8 -65 70 -65q39 0 60.5 39t21.5 105q-32 -36 -86 -36q-59 0 -96 34.5t-37 90.5q0 58 39 95t103 37q145 0 145 -200q0 -102 -38 -158t-112 -56q-63 0 -99 30.5t-38 83.5h67zM552 353
q-31 0 -51.5 -23.5t-20.5 -57.5q0 -32 20.5 -55t49.5 -23q33 0 53.5 22t20.5 55q0 35 -20.5 58.5t-51.5 23.5z" />
    <glyph glyph-name="uni2152" unicode="&#x2152;" horiz-adv-x="993" 
d="M113 569h-93v42q94 6 102 72h58v-392h-67v278zM456 697h65l-369 -711h-64zM492 278h-93v42q94 6 102 72h58v-392h-67v278zM805 403q72 0 112.5 -55t40.5 -155q0 -98 -43 -151t-113 -53q-71 0 -112 53t-41 151t43 154t113 56zM805 353q-40 0 -61 -42t-21 -118
q0 -74 21 -114.5t61 -40.5q38 0 59 40.5t21 114.5q0 75 -21 117.5t-59 42.5z" />
    <glyph glyph-name="onethird" unicode="&#x2153;" horiz-adv-x="729" 
d="M113 569h-93v42q94 6 102 72h58v-392h-67v278zM456 697h65l-369 -711h-64zM478 127q0 -41 20 -65t55 -24q34 0 53 20t19 50t-20 48.5t-55 18.5h-25v50h20q36 0 55.5 17.5t19.5 48.5q0 29 -17.5 45.5t-48.5 16.5q-33 0 -51.5 -22t-19.5 -61h-68q3 62 40.5 97.5t101.5 35.5
q58 0 94.5 -30.5t36.5 -78.5q0 -29 -16.5 -55.5t-47.5 -35.5v-3q33 -10 51 -35.5t18 -60.5q0 -51 -38.5 -83t-104.5 -32q-64 0 -102.5 37.5t-38.5 100.5h69z" />
    <glyph glyph-name="twothirds" unicode="&#x2154;" horiz-adv-x="835" 
d="M35 291v21q0 59 27 95.5t93 74.5q46 26 64 48t18 50q0 30 -17.5 47.5t-46.5 17.5q-68 0 -71 -90h-67q1 65 39 102t101 37q58 0 94.5 -32t36.5 -84q0 -42 -25 -71t-84 -65q-22 -13 -31.5 -19.5t-25 -19.5t-23 -27t-10.5 -31h201v-54h-273zM562 697h65l-369 -711h-64z
M584 127q0 -41 20 -65t55 -24q34 0 53 20t19 50t-20 48.5t-55 18.5h-25v50h20q36 0 55.5 17.5t19.5 48.5q0 29 -17.5 45.5t-48.5 16.5q-33 0 -51.5 -22t-19.5 -61h-68q3 62 40.5 97.5t101.5 35.5q58 0 94.5 -30.5t36.5 -78.5q0 -29 -16.5 -55.5t-47.5 -35.5v-3
q33 -10 51 -35.5t18 -60.5q0 -51 -38.5 -83t-104.5 -32q-64 0 -102.5 37.5t-38.5 100.5h69z" />
    <glyph glyph-name="uni2155" unicode="&#x2155;" horiz-adv-x="723" 
d="M113 569h-93v42q94 6 102 72h58v-392h-67v278zM456 697h65l-369 -711h-64zM437 392h235v-53h-180l-10 -104q31 27 85 27q57 0 92 -37.5t35 -96.5q0 -62 -40 -100.5t-104 -38.5q-58 0 -96 30t-45 84h68q5 -31 24 -49t49 -18q33 0 54.5 25t21.5 64t-21 63.5t-53 24.5
q-52 0 -68 -55l-69 6z" />
    <glyph glyph-name="uni2156" unicode="&#x2156;" horiz-adv-x="829" 
d="M35 291v21q0 59 27 95.5t93 74.5q46 26 64 48t18 50q0 30 -17.5 47.5t-46.5 17.5q-68 0 -71 -90h-67q1 65 39 102t101 37q58 0 94.5 -32t36.5 -84q0 -42 -25 -71t-84 -65q-22 -13 -31.5 -19.5t-25 -19.5t-23 -27t-10.5 -31h201v-54h-273zM562 697h65l-369 -711h-64z
M543 392h235v-53h-180l-10 -104q31 27 85 27q57 0 92 -37.5t35 -96.5q0 -62 -40 -100.5t-104 -38.5q-58 0 -96 30t-45 84h68q5 -31 24 -49t49 -18q33 0 54.5 25t21.5 64t-21 63.5t-53 24.5q-52 0 -68 -55l-69 6z" />
    <glyph glyph-name="uni2157" unicode="&#x2157;" horiz-adv-x="838" 
d="M100 418q0 -41 20 -65t55 -24q34 0 53 20t19 50t-20 48.5t-55 18.5h-25v50h20q36 0 55.5 17.5t19.5 48.5q0 29 -17.5 45.5t-48.5 16.5q-33 0 -51.5 -22t-19.5 -61h-68q3 62 40.5 97.5t101.5 35.5q58 0 94.5 -30.5t36.5 -78.5q0 -29 -16.5 -55.5t-47.5 -35.5v-3
q33 -10 51 -35.5t18 -60.5q0 -51 -38.5 -83t-104.5 -32q-64 0 -102.5 37.5t-38.5 100.5h69zM571 697h65l-369 -711h-64zM552 392h235v-53h-180l-10 -104q31 27 85 27q57 0 92 -37.5t35 -96.5q0 -62 -40 -100.5t-104 -38.5q-58 0 -96 30t-45 84h68q5 -31 24 -49t49 -18
q33 0 54.5 25t21.5 64t-21 63.5t-53 24.5q-52 0 -68 -55l-69 6z" />
    <glyph glyph-name="uni2158" unicode="&#x2158;" horiz-adv-x="846" 
d="M336 393h-69v-102h-66v102h-179v54l144 236h101v-237h69v-53zM201 446q0 44 2 178h-7q-7 -13 -47 -78l-62 -100h114zM579 697h65l-369 -711h-64zM560 392h235v-53h-180l-10 -104q31 27 85 27q57 0 92 -37.5t35 -96.5q0 -62 -40 -100.5t-104 -38.5q-58 0 -96 30t-45 84h68
q5 -31 24 -49t49 -18q33 0 54.5 25t21.5 64t-21 63.5t-53 24.5q-52 0 -68 -55l-69 6z" />
    <glyph glyph-name="uni2159" unicode="&#x2159;" horiz-adv-x="736" 
d="M113 569h-93v42q94 6 102 72h58v-392h-67v278zM456 697h65l-369 -711h-64zM629 294q-7 59 -61 59q-39 0 -62 -37.5t-25 -97.5q34 39 91 39t94.5 -36t37.5 -96q0 -61 -40 -98.5t-102 -37.5q-149 0 -149 200q0 98 41 156t114 58q57 0 91.5 -28t39.5 -81h-70zM564 208
q-32 0 -53.5 -24.5t-21.5 -59.5q0 -37 21.5 -61.5t53.5 -24.5q30 0 50.5 24t20.5 61t-20 61t-51 24z" />
    <glyph glyph-name="uni215A" unicode="&#x215a;" horiz-adv-x="845" 
d="M59 683h235v-53h-180l-10 -104q31 27 85 27q57 0 92 -37.5t35 -96.5q0 -62 -40 -100.5t-104 -38.5q-58 0 -96 30t-45 84h68q5 -31 24 -49t49 -18q33 0 54.5 25t21.5 64t-21 63.5t-53 24.5q-52 0 -68 -55l-69 6zM565 697h65l-369 -711h-64zM738 294q-7 59 -61 59
q-39 0 -62 -37.5t-25 -97.5q34 39 91 39t94.5 -36t37.5 -96q0 -61 -40 -98.5t-102 -37.5q-149 0 -149 200q0 98 41 156t114 58q57 0 91.5 -28t39.5 -81h-70zM673 208q-32 0 -53.5 -24.5t-21.5 -59.5q0 -37 21.5 -61.5t53.5 -24.5q30 0 50.5 24t20.5 61t-20 61t-51 24z" />
    <glyph glyph-name="oneeighth" unicode="&#x215b;" horiz-adv-x="736" 
d="M113 569h-93v42q94 6 102 72h58v-392h-67v278zM456 697h65l-369 -711h-64zM557 -11q-64 0 -104 31t-40 84q0 36 19 63.5t53 36.5v3q-63 24 -63 87q0 48 37.5 78.5t97.5 30.5t97.5 -30.5t37.5 -78.5q0 -63 -63 -87v-3q34 -9 53 -36.5t19 -63.5q0 -53 -40 -84t-104 -31z
M557 180q-33 0 -54.5 -21t-21.5 -52q0 -29 21.5 -48.5t54.5 -19.5t54.5 19.5t21.5 48.5q0 31 -21.5 52t-54.5 21zM557 353q-31 0 -49 -16.5t-18 -44.5t18.5 -45.5t48.5 -17.5t48.5 17.5t18.5 45.5t-18 44.5t-49 16.5z" />
    <glyph glyph-name="threeeighths" unicode="&#x215c;" horiz-adv-x="851" 
d="M100 418q0 -41 20 -65t55 -24q34 0 53 20t19 50t-20 48.5t-55 18.5h-25v50h20q36 0 55.5 17.5t19.5 48.5q0 29 -17.5 45.5t-48.5 16.5q-33 0 -51.5 -22t-19.5 -61h-68q3 62 40.5 97.5t101.5 35.5q58 0 94.5 -30.5t36.5 -78.5q0 -29 -16.5 -55.5t-47.5 -35.5v-3
q33 -10 51 -35.5t18 -60.5q0 -51 -38.5 -83t-104.5 -32q-64 0 -102.5 37.5t-38.5 100.5h69zM571 697h65l-369 -711h-64zM672 -11q-64 0 -104 31t-40 84q0 36 19 63.5t53 36.5v3q-63 24 -63 87q0 48 37.5 78.5t97.5 30.5t97.5 -30.5t37.5 -78.5q0 -63 -63 -87v-3
q34 -9 53 -36.5t19 -63.5q0 -53 -40 -84t-104 -31zM672 180q-33 0 -54.5 -21t-21.5 -52q0 -29 21.5 -48.5t54.5 -19.5t54.5 19.5t21.5 48.5q0 31 -21.5 52t-54.5 21zM672 353q-31 0 -49 -16.5t-18 -44.5t18.5 -45.5t48.5 -17.5t48.5 17.5t18.5 45.5t-18 44.5t-49 16.5z" />
    <glyph glyph-name="fiveeighths" unicode="&#x215d;" horiz-adv-x="845" 
d="M59 683h235v-53h-180l-10 -104q31 27 85 27q57 0 92 -37.5t35 -96.5q0 -62 -40 -100.5t-104 -38.5q-58 0 -96 30t-45 84h68q5 -31 24 -49t49 -18q33 0 54.5 25t21.5 64t-21 63.5t-53 24.5q-52 0 -68 -55l-69 6zM565 697h65l-369 -711h-64zM666 -11q-64 0 -104 31t-40 84
q0 36 19 63.5t53 36.5v3q-63 24 -63 87q0 48 37.5 78.5t97.5 30.5t97.5 -30.5t37.5 -78.5q0 -63 -63 -87v-3q34 -9 53 -36.5t19 -63.5q0 -53 -40 -84t-104 -31zM666 180q-33 0 -54.5 -21t-21.5 -52q0 -29 21.5 -48.5t54.5 -19.5t54.5 19.5t21.5 48.5q0 31 -21.5 52t-54.5 21
zM666 353q-31 0 -49 -16.5t-18 -44.5t18.5 -45.5t48.5 -17.5t48.5 17.5t18.5 45.5t-18 44.5t-49 16.5z" />
    <glyph glyph-name="seveneighths" unicode="&#x215e;" horiz-adv-x="769" 
d="M76 291q37 176 138 339h-195v53h267v-48q-107 -186 -137 -344h-73zM489 697h65l-369 -711h-64zM590 -11q-64 0 -104 31t-40 84q0 36 19 63.5t53 36.5v3q-63 24 -63 87q0 48 37.5 78.5t97.5 30.5t97.5 -30.5t37.5 -78.5q0 -63 -63 -87v-3q34 -9 53 -36.5t19 -63.5
q0 -53 -40 -84t-104 -31zM590 180q-33 0 -54.5 -21t-21.5 -52q0 -29 21.5 -48.5t54.5 -19.5t54.5 19.5t21.5 48.5q0 31 -21.5 52t-54.5 21zM590 353q-31 0 -49 -16.5t-18 -44.5t18.5 -45.5t48.5 -17.5t48.5 17.5t18.5 45.5t-18 44.5t-49 16.5z" />
    <glyph glyph-name="uni215F" unicode="&#x215f;" horiz-adv-x="378" 
d="M113 569h-93v42q94 6 102 72h58v-392h-67v278zM456 697h65l-369 -711h-64z" />
    <glyph glyph-name="uni2160" unicode="&#x2160;" horiz-adv-x="272" 
d="M87 0v726h98v-726h-98z" />
    <glyph glyph-name="uni2161" unicode="&#x2161;" horiz-adv-x="554" 
d="M87 0v726h98v-726h-98zM369 0v726h98v-726h-98z" />
    <glyph glyph-name="uni2162" unicode="&#x2162;" horiz-adv-x="836" 
d="M87 0v726h98v-726h-98zM369 0v726h98v-726h-98zM651 0v726h98v-726h-98z" />
    <glyph glyph-name="uni2163" unicode="&#x2163;" horiz-adv-x="914" 
d="M87 0v726h98v-726h-98zM537 0l-256 726h109l158 -468q9 -26 23.5 -76t22.5 -74h6q24 73 47 150l163 468h99l-264 -726h-108z" />
    <glyph glyph-name="uni2164" unicode="&#x2164;" horiz-adv-x="642" 
d="M265 0l-256 726h109l158 -468q9 -26 23.5 -76t22.5 -74h6q24 73 47 150l163 468h99l-264 -726h-108z" />
    <glyph glyph-name="uni2165" unicode="&#x2165;" horiz-adv-x="918" 
d="M265 0l-256 726h109l158 -468q9 -26 23.5 -76t22.5 -74h6q24 73 47 150l163 468h99l-264 -726h-108zM733 0v726h98v-726h-98z" />
    <glyph glyph-name="uni2166" unicode="&#x2166;" horiz-adv-x="1200" 
d="M265 0l-256 726h109l158 -468q9 -26 23.5 -76t22.5 -74h6q24 73 47 150l163 468h99l-264 -726h-108zM733 0v726h98v-726h-98zM1015 0v726h98v-726h-98z" />
    <glyph glyph-name="uni2167" unicode="&#x2167;" horiz-adv-x="1482" 
d="M265 0l-256 726h109l158 -468q9 -26 23.5 -76t22.5 -74h6q24 73 47 150l163 468h99l-264 -726h-108zM733 0v726h98v-726h-98zM1015 0v726h98v-726h-98zM1297 0v726h98v-726h-98z" />
    <glyph glyph-name="uni2168" unicode="&#x2168;" horiz-adv-x="901" 
d="M87 0v726h98v-726h-98zM281 0l251 378l-238 348h116l183 -281l185 281h107l-238 -348l254 -378h-115l-199 305l-197 -305h-109z" />
    <glyph glyph-name="uni2169" unicode="&#x2169;" horiz-adv-x="622" 
d="M2 0l251 378l-238 348h116l183 -281l185 281h107l-238 -348l254 -378h-115l-199 305l-197 -305h-109z" />
    <glyph glyph-name="uni216A" unicode="&#x216a;" horiz-adv-x="903" 
d="M2 0l251 378l-238 348h116l183 -281l185 281h107l-238 -348l254 -378h-115l-199 305l-197 -305h-109zM718 0v726h98v-726h-98z" />
    <glyph glyph-name="uni216B" unicode="&#x216b;" horiz-adv-x="1185" 
d="M2 0l251 378l-238 348h116l183 -281l185 281h107l-238 -348l254 -378h-115l-199 305l-197 -305h-109zM718 0v726h98v-726h-98zM1000 0v726h98v-726h-98z" />
    <glyph glyph-name="uni216C" unicode="&#x216c;" horiz-adv-x="553" 
d="M87 0v726h98v-644h355v-82h-453z" />
    <glyph glyph-name="uni216D" unicode="&#x216d;" horiz-adv-x="700" 
d="M375 -15q-104 0 -179.5 51t-112 135.5t-36.5 191.5q0 163 87 270.5t239 107.5q124 0 202.5 -70t89.5 -182h-101q-13 83 -62.5 128.5t-128.5 45.5q-101 0 -162.5 -82.5t-61.5 -217.5t62.5 -217.5t163.5 -82.5q77 0 127 47.5t64 130.5h102q-18 -113 -96 -184.5t-197 -71.5z
" />
    <glyph glyph-name="uni216E" unicode="&#x216e;" horiz-adv-x="710" 
d="M87 0v726h210q148 0 225 -53q68 -48 104.5 -128.5t36.5 -181.5q0 -99 -38.5 -179t-108.5 -128q-82 -56 -219 -56h-210zM185 80h99q130 0 192 55q40 34 62 95t22 133q0 73 -20.5 134.5t-59.5 95.5q-60 53 -196 53h-99v-566z" />
    <glyph glyph-name="uni216F" unicode="&#x216f;" horiz-adv-x="928" 
d="M87 0v726h151l178 -468q32 -83 51 -151h5q14 62 46 151l171 468h152v-726h-92v415q0 37 2 110.5t2 107.5h-5l-232 -633h-106l-233 633h-5q0 -8 2.5 -95.5t2.5 -122.5v-415h-90z" />
    <glyph glyph-name="uni2170" unicode="&#x2170;" horiz-adv-x="242" 
d="M75 0v516h92v-516h-92zM75 626v100h92v-100h-92z" />
    <glyph glyph-name="uni2171" unicode="&#x2171;" horiz-adv-x="486" 
d="M75 0v516h92v-516h-92zM75 626v100h92v-100h-92zM319 0v516h92v-516h-92zM319 626v100h92v-100h-92z" />
    <glyph glyph-name="uni2172" unicode="&#x2172;" horiz-adv-x="730" 
d="M75 0v516h92v-516h-92zM75 626v100h92v-100h-92zM319 0v516h92v-516h-92zM319 626v100h92v-100h-92zM563 0v516h92v-516h-92zM563 626v100h92v-100h-92z" />
    <glyph glyph-name="uni2173" unicode="&#x2173;" horiz-adv-x="747" 
d="M75 0v516h92v-516h-92zM75 626v100h92v-100h-92zM438 0l-191 516h101l91 -258q28 -81 53 -178h6q20 81 53 178l91 258h94l-191 -516h-107z" />
    <glyph glyph-name="uni2174" unicode="&#x2174;" horiz-adv-x="511" 
d="M202 0l-191 516h101l91 -258q28 -81 53 -178h6q20 81 53 178l91 258h94l-191 -516h-107z" />
    <glyph glyph-name="uni2175" unicode="&#x2175;" horiz-adv-x="747" 
d="M202 0l-191 516h101l91 -258q28 -81 53 -178h6q20 81 53 178l91 258h94l-191 -516h-107zM580 0v516h92v-516h-92zM580 626v100h92v-100h-92z" />
    <glyph glyph-name="uni2176" unicode="&#x2176;" horiz-adv-x="991" 
d="M202 0l-191 516h101l91 -258q28 -81 53 -178h6q20 81 53 178l91 258h94l-191 -516h-107zM580 0v516h92v-516h-92zM580 626v100h92v-100h-92zM824 0v516h92v-516h-92zM824 626v100h92v-100h-92z" />
    <glyph glyph-name="uni2177" unicode="&#x2177;" horiz-adv-x="1235" 
d="M202 0l-191 516h101l91 -258q28 -81 53 -178h6q20 81 53 178l91 258h94l-191 -516h-107zM580 0v516h92v-516h-92zM580 626v100h92v-100h-92zM824 0v516h92v-516h-92zM824 626v100h92v-100h-92zM1068 0v516h92v-516h-92zM1068 626v100h92v-100h-92z" />
    <glyph glyph-name="uni2178" unicode="&#x2178;" horiz-adv-x="736" 
d="M75 0v516h92v-516h-92zM75 626v100h92v-100h-92zM247 0l189 267l-175 249h114l118 -189l126 189h100l-177 -249l192 -267h-113l-135 202l-135 -202h-104z" />
    <glyph glyph-name="uni2179" unicode="&#x2179;" horiz-adv-x="492" 
d="M3 0l189 267l-175 249h114l118 -189l126 189h100l-177 -249l192 -267h-113l-135 202l-135 -202h-104z" />
    <glyph glyph-name="uni217A" unicode="&#x217a;" horiz-adv-x="737" 
d="M3 0l189 267l-175 249h114l118 -189l126 189h100l-177 -249l192 -267h-113l-135 202l-135 -202h-104zM570 0v516h92v-516h-92zM570 626v100h92v-100h-92z" />
    <glyph glyph-name="uni217B" unicode="&#x217b;" horiz-adv-x="981" 
d="M3 0l189 267l-175 249h114l118 -189l126 189h100l-177 -249l192 -267h-113l-135 202l-135 -202h-104zM570 0v516h92v-516h-92zM570 626v100h92v-100h-92zM814 0v516h92v-516h-92zM814 626v100h92v-100h-92z" />
    <glyph glyph-name="uni217C" unicode="&#x217c;" horiz-adv-x="242" 
d="M75 0v726h92v-726h-92z" />
    <glyph glyph-name="uni217D" unicode="&#x217d;" horiz-adv-x="531" 
d="M281 -15q-115 0 -178 74t-63 199q0 120 65 196.5t178 76.5q92 0 148.5 -48t68.5 -136h-96q-17 110 -122 110q-70 0 -108 -54t-38 -145t38.5 -145.5t107.5 -54.5q105 0 129 115h90q-33 -188 -220 -188z" />
    <glyph glyph-name="uni217E" unicode="&#x217e;" horiz-adv-x="585" 
d="M262 -11q-103 0 -162 70.5t-59 198.5q0 117 61 193t160 76q110 0 156 -71v270h92v-726h-88v68q-53 -79 -160 -79zM275 62q66 0 105.5 53t39.5 143q0 91 -39.5 143.5t-105.5 52.5q-64 0 -101.5 -52t-37.5 -144q0 -90 37.5 -143t101.5 -53z" />
    <glyph glyph-name="uni217F" unicode="&#x217f;" horiz-adv-x="875" 
d="M75 0v516h86v-66q48 77 155 77q47 0 85.5 -23.5t55.5 -71.5q61 95 183 95q166 0 166 -191v-336h-92v286q0 35 -3 59t-12 52t-31 42.5t-56 14.5q-125 0 -125 -199v-255h-92v286q0 35 -3 59t-12.5 52t-31.5 42.5t-56 14.5q-125 0 -125 -199v-255h-92z" />
    <glyph glyph-name="uni2189" unicode="&#x2189;" horiz-adv-x="872" 
d="M191 694q72 0 112.5 -55t40.5 -155q0 -98 -43 -151t-113 -53q-71 0 -112 53t-41 151t43 154t113 56zM191 644q-40 0 -61 -42t-21 -118q0 -74 21 -114.5t61 -40.5q38 0 59 40.5t21 114.5q0 75 -21 117.5t-59 42.5zM599 697h65l-369 -711h-64zM621 127q0 -41 20 -65t55 -24
q34 0 53 20t19 50t-20 48.5t-55 18.5h-25v50h20q36 0 55.5 17.5t19.5 48.5q0 29 -17.5 45.5t-48.5 16.5q-33 0 -51.5 -22t-19.5 -61h-68q3 62 40.5 97.5t101.5 35.5q58 0 94.5 -30.5t36.5 -78.5q0 -29 -16.5 -55.5t-47.5 -35.5v-3q33 -10 51 -35.5t18 -60.5q0 -51 -38.5 -83
t-104.5 -32q-64 0 -102.5 37.5t-38.5 100.5h69z" />
    <glyph glyph-name="arrowleft" unicode="&#x2190;" horiz-adv-x="602" 
d="M294 554l50 -50l-193 -184h421v-72h-421l193 -183l-50 -50l-270 269z" />
    <glyph glyph-name="arrowup" unicode="&#x2191;" horiz-adv-x="579" 
d="M290 548l269 -270l-50 -50l-183 193v-421h-72v421l-184 -193l-50 50z" />
    <glyph glyph-name="arrowright" unicode="&#x2192;" horiz-adv-x="602" 
d="M578 284l-270 -269l-50 50l193 183h-421v72h421l-193 184l50 50z" />
    <glyph glyph-name="arrowdown" unicode="&#x2193;" horiz-adv-x="579" 
d="M20 238l50 50l184 -193v421h72v-421l183 193l50 -50l-269 -270z" />
    <glyph glyph-name="uni2196" unicode="&#x2196;" horiz-adv-x="529" 
d="M449 466v-70l-266 6l297 -298l-51 -51l-297 298l7 -266h-71l-1 381h382z" />
    <glyph glyph-name="uni2197" unicode="&#x2197;" horiz-adv-x="529" 
d="M462 466l-1 -381h-71l7 266l-297 -298l-51 51l297 298l-266 -6v70h382z" />
    <glyph glyph-name="uni2198" unicode="&#x2198;" horiz-adv-x="528" 
d="M67 53l1 381h71l-7 -266l297 298l51 -51l-297 -298l266 6v-70h-382z" />
    <glyph glyph-name="uni2199" unicode="&#x2199;" horiz-adv-x="528" 
d="M79 53v70l266 -6l-297 298l51 51l297 -298l-7 266h71l1 -381h-382z" />
    <glyph glyph-name="partialdiff" unicode="&#x2202;" horiz-adv-x="527" 
d="M170 698q139 0 223.5 -102.5t84.5 -262.5q0 -168 -58 -257.5t-175 -89.5q-99 0 -158 61t-59 168q0 96 62.5 155t145.5 59q50 0 92.5 -20.5t64.5 -61.5v1q0 48 -13.5 95t-41 89t-76 68t-110.5 26zM249 54q53 0 89 44.5t36 113.5q0 63 -33.5 105.5t-92.5 42.5
q-57 0 -92 -43.5t-35 -106.5q0 -66 35 -111t93 -45z" />
    <glyph glyph-name="Delta" unicode="&#x2206;" horiz-adv-x="707" 
d="M24 71l278 655h99l282 -655v-71h-659v71zM574 81l-169 419q-43 104 -52 131h-4q-31 -92 -44 -124l-177 -426h446z" />
    <glyph glyph-name="product" unicode="&#x220f;" horiz-adv-x="723" 
d="M689 683v-76h-87v-720h-92v720h-297v-720h-91v720h-90v76h657z" />
    <glyph glyph-name="summation" unicode="&#x2211;" horiz-adv-x="578" 
d="M28 -50l305 344l-293 315v74h495v-74h-381v-4l288 -313l-302 -337v-5h409v-73h-521v73z" />
    <glyph glyph-name="minus" unicode="&#x2212;" 
d="M76 235v78h477v-78h-477z" />
    <glyph glyph-name="uni2215" unicode="&#x2215;" horiz-adv-x="142" 
d="M220 697h65l-369 -711h-64z" />
    <glyph glyph-name="uni2219" unicode="&#x2219;" 
d="M257 406h115v-119h-115v119z" />
    <glyph glyph-name="radical" unicode="&#x221a;" horiz-adv-x="614" 
d="M242 -11l-132 396l-89 -38l-26 62l171 72l119 -376l257 754h79l-299 -870h-80z" />
    <glyph glyph-name="infinity" unicode="&#x221e;" 
d="M186 186q40 0 97 75q-5 6 -19 24.5t-23 28.5t-24.5 19.5t-32.5 9.5q-25 0 -42 -22.5t-17 -53.5q0 -34 17 -57.5t44 -23.5zM439 124q-21 0 -40 10t-29.5 20.5t-29 32.5t-26.5 31q-66 -94 -131 -94q-49 0 -82 39.5t-33 103.5q0 59 36.5 102t87.5 43q26 0 50.5 -16.5
t38 -32.5t33.5 -45q22 28 38 45t42.5 33t52.5 16q50 0 83 -40t33 -104q0 -58 -36.5 -101t-87.5 -43zM445 350q-25 0 -47 -19.5t-49 -56.5q52 -80 97 -80q25 0 42.5 21.5t17.5 52.5q0 34 -17 58t-44 24z" />
    <glyph glyph-name="integral" unicode="&#x222b;" horiz-adv-x="393" 
d="M138 39l27 440q7 115 46.5 167t112.5 52q41 0 74 -15l-19 -67q-28 9 -49 9q-36 0 -54.5 -32.5t-23.5 -113.5l-27 -440q-7 -117 -46.5 -168t-112.5 -51q-41 0 -74 15l19 67q29 -9 49 -9q36 0 54.5 32.5t23.5 113.5z" />
    <glyph glyph-name="approxequal" unicode="&#x2248;" 
d="M315 128q-62 31 -102 31q-19 0 -36 -10t-26.5 -20.5t-26.5 -32.5l-48 50q35 48 64 69.5t69 21.5t106 -33q60 -30 102 -30q19 0 36 9.5t26.5 20t26.5 32.5l49 -50q-35 -48 -64 -69.5t-70 -21.5q-40 0 -106 33zM315 325q-62 31 -102 31q-19 0 -36 -10t-26.5 -20.5
t-26.5 -32.5l-48 50q35 48 64 69.5t69 21.5t106 -33q60 -30 102 -30q19 0 36 9.5t26.5 20t26.5 32.5l49 -50q-35 -48 -64 -69.5t-70 -21.5q-40 0 -106 33z" />
    <glyph glyph-name="notequal" unicode="&#x2260;" 
d="M555 408v-78h-175l-50 -110h225v-77h-261l-65 -143h-81l63 143h-135v77h171l50 110h-221v78h256l54 122h83l-53 -122h139z" />
    <glyph glyph-name="equivalence" unicode="&#x2261;" 
d="M76 83v72h477v-72h-477zM76 232v72h477v-72h-477zM76 382v72h477v-72h-477z" />
    <glyph glyph-name="lessequal" unicode="&#x2264;" 
d="M544 0h-462v74h462v-74zM544 521v-84l-365 -116l365 -123v-84l-462 165v78z" />
    <glyph glyph-name="greaterequal" unicode="&#x2265;" 
d="M86 74h462v-74h-462v74zM548 357v-78l-462 -165v84l366 123l-366 116v84z" />
    <glyph glyph-name="uni25AF" unicode="&#x25af;" horiz-adv-x="651" 
d="M564 0h-477v726h477v-726zM144 53h363v620h-363v-620z" />
    <glyph glyph-name="triagup" unicode="&#x25b2;" horiz-adv-x="581" 
d="M88 12v508l472 -252z" />
    <glyph glyph-name="triagrt" unicode="&#x25ba;" horiz-adv-x="547" 
d="M528 33h-508l252 504z" />
    <glyph glyph-name="triagdn" unicode="&#x25bc;" horiz-adv-x="547" 
d="M272 21l-252 504h508z" />
    <glyph glyph-name="triaglf" unicode="&#x25c4;" horiz-adv-x="581" 
d="M21 268l472 252v-508z" />
    <glyph glyph-name="lozenge" unicode="&#x25ca;" horiz-adv-x="517" 
d="M293 0h-69l-193 341l193 342h69l193 -342zM258 605l-146 -264l147 -262l146 262z" />
    <glyph glyph-name="uniFB00" unicode="&#xfb00;" horiz-adv-x="598" 
d="M109 0v440h-95v76h95v26q0 77 14 113q31 77 130 77q36 0 61 -6v-76q-20 4 -44 4q-44 0 -56.5 -25.5t-12.5 -91.5v-21h180v26q0 77 14 113q31 77 130 77q36 0 61 -6v-76q-20 4 -44 4q-44 0 -56.5 -25.5t-12.5 -91.5v-21h113v-76h-113v-440h-92v440h-180v-440h-92z" />
    <glyph glyph-name="fi" unicode="&#xfb01;" horiz-adv-x="543" 
d="M109 0v440h-95v76h95v26q0 77 14 113q31 77 130 77q36 0 61 -6v-76q-20 4 -44 4q-44 0 -56.5 -25.5t-12.5 -91.5v-21h113v-76h-113v-440h-92zM376 0v516h92v-516h-92zM376 626v100h92v-100h-92z" />
    <glyph glyph-name="fl" unicode="&#xfb02;" horiz-adv-x="543" 
d="M109 0v440h-95v76h95v26q0 77 14 113q31 77 130 77q36 0 61 -6v-76q-20 4 -44 4q-44 0 -56.5 -25.5t-12.5 -91.5v-21h113v-76h-113v-440h-92zM376 0v726h92v-726h-92z" />
    <glyph glyph-name="uniFB03" unicode="&#xfb03;" horiz-adv-x="819" 
d="M652 0v516h92v-516h-92zM652 626v100h92v-100h-92zM109 0v440h-95v76h95v26q0 77 14 113q31 77 130 77q36 0 61 -6v-76q-20 4 -44 4q-44 0 -56.5 -25.5t-12.5 -91.5v-21h180v26q0 77 14 113q31 77 130 77q36 0 61 -6v-76q-20 4 -44 4q-44 0 -56.5 -25.5t-12.5 -91.5v-21
h113v-76h-113v-440h-92v440h-180v-440h-92z" />
    <glyph glyph-name="uniFB04" unicode="&#xfb04;" horiz-adv-x="819" 
d="M652 0v726h92v-726h-92zM109 0v440h-95v76h95v26q0 77 14 113q31 77 130 77q36 0 61 -6v-76q-20 4 -44 4q-44 0 -56.5 -25.5t-12.5 -91.5v-21h180v26q0 77 14 113q31 77 130 77q36 0 61 -6v-76q-20 4 -44 4q-44 0 -56.5 -25.5t-12.5 -91.5v-21h113v-76h-113v-440h-92v440
h-180v-440h-92z" />
    <glyph glyph-name="uniFEFF" unicode="&#xfeff;" horiz-adv-x="0" 
 />
    <glyph glyph-name="i.latn_TRK" horiz-adv-x="242" 
d="M75 0v516h92v-516h-92zM75 626v100h92v-100h-92z" />
    <glyph glyph-name="Ldot.latn_CAT" horiz-adv-x="554" 
d="M87 0v726h98v-644h355v-82h-453zM362 338v100h93v-100h-93z" />
    <glyph glyph-name="ldot.latn_CAT" horiz-adv-x="318" 
d="M75 0v726h92v-726h-92zM234 338v100h92v-100h-92z" />
    <glyph glyph-name="uni0306.cyrl_dflt" horiz-adv-x="0" 
d="M-250 588q-69 0 -108.5 39.5t-42.5 108.5h79q0 -44 19 -67t53 -23t53 23t19 67h79q-3 -69 -42.5 -108.5t-108.5 -39.5z" />
    <glyph glyph-name="zero.numr" horiz-adv-x="379" 
d="M191 694q72 0 112.5 -55t40.5 -155q0 -98 -43 -151t-113 -53q-71 0 -112 53t-41 151t43 154t113 56zM191 644q-40 0 -61 -42t-21 -118q0 -74 21 -114.5t61 -40.5q38 0 59 40.5t21 114.5q0 75 -21 117.5t-59 42.5z" />
    <glyph glyph-name="one.numr" horiz-adv-x="236" 
d="M113 569h-93v42q94 6 102 72h58v-392h-67v278z" />
    <glyph glyph-name="two.numr" horiz-adv-x="342" 
d="M35 291v21q0 59 27 95.5t93 74.5q46 26 64 48t18 50q0 30 -17.5 47.5t-46.5 17.5q-68 0 -71 -90h-67q1 65 39 102t101 37q58 0 94.5 -32t36.5 -84q0 -42 -25 -71t-84 -65q-22 -13 -31.5 -19.5t-25 -19.5t-23 -27t-10.5 -31h201v-54h-273z" />
    <glyph glyph-name="three.numr" horiz-adv-x="351" 
d="M100 418q0 -41 20 -65t55 -24q34 0 53 20t19 50t-20 48.5t-55 18.5h-25v50h20q36 0 55.5 17.5t19.5 48.5q0 29 -17.5 45.5t-48.5 16.5q-33 0 -51.5 -22t-19.5 -61h-68q3 62 40.5 97.5t101.5 35.5q58 0 94.5 -30.5t36.5 -78.5q0 -29 -16.5 -55.5t-47.5 -35.5v-3
q33 -10 51 -35.5t18 -60.5q0 -51 -38.5 -83t-104.5 -32q-64 0 -102.5 37.5t-38.5 100.5h69z" />
    <glyph glyph-name="four.numr" horiz-adv-x="359" 
d="M336 393h-69v-102h-66v102h-179v54l144 236h101v-237h69v-53zM201 446q0 44 2 178h-7q-7 -13 -47 -78l-62 -100h114z" />
    <glyph glyph-name="five.numr" horiz-adv-x="345" 
d="M59 683h235v-53h-180l-10 -104q31 27 85 27q57 0 92 -37.5t35 -96.5q0 -62 -40 -100.5t-104 -38.5q-58 0 -96 30t-45 84h68q5 -31 24 -49t49 -18q33 0 54.5 25t21.5 64t-21 63.5t-53 24.5q-52 0 -68 -55l-69 6z" />
    <glyph glyph-name="six.numr" horiz-adv-x="358" 
d="M251 585q-7 59 -61 59q-39 0 -62 -37.5t-25 -97.5q34 39 91 39t94.5 -36t37.5 -96q0 -61 -40 -98.5t-102 -37.5q-149 0 -149 200q0 98 41 156t114 58q57 0 91.5 -28t39.5 -81h-70zM186 499q-32 0 -53.5 -24.5t-21.5 -59.5q0 -37 21.5 -61.5t53.5 -24.5q30 0 50.5 24
t20.5 61t-20 61t-51 24z" />
    <glyph glyph-name="seven.numr" horiz-adv-x="305" 
d="M76 291q37 176 138 339h-195v53h267v-48q-107 -186 -137 -344h-73z" />
    <glyph glyph-name="eight.numr" horiz-adv-x="358" 
d="M179 280q-64 0 -104 31t-40 84q0 36 19 63.5t53 36.5v3q-63 24 -63 87q0 48 37.5 78.5t97.5 30.5t97.5 -30.5t37.5 -78.5q0 -63 -63 -87v-3q34 -9 53 -36.5t19 -63.5q0 -53 -40 -84t-104 -31zM179 471q-33 0 -54.5 -21t-21.5 -52q0 -29 21.5 -48.5t54.5 -19.5t54.5 19.5
t21.5 48.5q0 31 -21.5 52t-54.5 21zM179 644q-31 0 -49 -16.5t-18 -44.5t18.5 -45.5t48.5 -17.5t48.5 17.5t18.5 45.5t-18 44.5t-49 16.5z" />
    <glyph glyph-name="nine.numr" horiz-adv-x="358" 
d="M102 394q8 -65 70 -65q39 0 60.5 39t21.5 105q-32 -36 -86 -36q-59 0 -96 34.5t-37 90.5q0 58 39 95t103 37q145 0 145 -200q0 -102 -38 -158t-112 -56q-63 0 -99 30.5t-38 83.5h67zM174 644q-31 0 -51.5 -23.5t-20.5 -57.5q0 -32 20.5 -55t49.5 -23q33 0 53.5 22
t20.5 55q0 35 -20.5 58.5t-51.5 23.5z" />
    <glyph glyph-name="zero.dnom" horiz-adv-x="379" 
d="M191 403q72 0 112.5 -55t40.5 -155q0 -98 -43 -151t-113 -53q-71 0 -112 53t-41 151t43 154t113 56zM191 353q-40 0 -61 -42t-21 -118q0 -74 21 -114.5t61 -40.5q38 0 59 40.5t21 114.5q0 75 -21 117.5t-59 42.5z" />
    <glyph glyph-name="one.dnom" horiz-adv-x="236" 
d="M114 278h-93v42q94 6 102 72h58v-392h-67v278z" />
    <glyph glyph-name="two.dnom" horiz-adv-x="342" 
d="M34 0v21q0 59 27 95.5t93 74.5q46 26 64 48t18 50q0 30 -17.5 47.5t-46.5 17.5q-68 0 -71 -90h-67q1 65 39 102t101 37q58 0 94.5 -32t36.5 -84q0 -42 -25 -71t-84 -65q-22 -13 -31.5 -19.5t-25 -19.5t-23 -27t-10.5 -31h201v-54h-273z" />
    <glyph glyph-name="three.dnom" horiz-adv-x="351" 
d="M100 127q0 -41 20 -65t55 -24q34 0 53 20t19 50t-20 48.5t-55 18.5h-25v50h20q36 0 55.5 17.5t19.5 48.5q0 29 -17.5 45.5t-48.5 16.5q-33 0 -51.5 -22t-19.5 -61h-68q3 62 40.5 97.5t101.5 35.5q58 0 94.5 -30.5t36.5 -78.5q0 -29 -16.5 -55.5t-47.5 -35.5v-3
q33 -10 51 -35.5t18 -60.5q0 -51 -38.5 -83t-104.5 -32q-64 0 -102.5 37.5t-38.5 100.5h69z" />
    <glyph glyph-name="four.dnom" horiz-adv-x="359" 
d="M337 102h-69v-102h-66v102h-179v54l144 236h101v-237h69v-53zM202 155q0 44 2 178h-7q-7 -13 -47 -78l-62 -100h114z" />
    <glyph glyph-name="five.dnom" horiz-adv-x="345" 
d="M59 392h235v-53h-180l-10 -104q31 27 85 27q57 0 92 -37.5t35 -96.5q0 -62 -40 -100.5t-104 -38.5q-58 0 -96 30t-45 84h68q5 -31 24 -49t49 -18q33 0 54.5 25t21.5 64t-21 63.5t-53 24.5q-52 0 -68 -55l-69 6z" />
    <glyph glyph-name="six.dnom" horiz-adv-x="358" 
d="M251 294q-7 59 -61 59q-39 0 -62 -37.5t-25 -97.5q34 39 91 39t94.5 -36t37.5 -96q0 -61 -40 -98.5t-102 -37.5q-149 0 -149 200q0 98 41 156t114 58q57 0 91.5 -28t39.5 -81h-70zM186 208q-32 0 -53.5 -24.5t-21.5 -59.5q0 -37 21.5 -61.5t53.5 -24.5q30 0 50.5 24
t20.5 61t-20 61t-51 24z" />
    <glyph glyph-name="seven.dnom" horiz-adv-x="305" 
d="M76 0q37 176 138 339h-195v53h267v-48q-107 -186 -137 -344h-73z" />
    <glyph glyph-name="eight.dnom" horiz-adv-x="358" 
d="M179 -11q-64 0 -104 31t-40 84q0 36 19 63.5t53 36.5v3q-63 24 -63 87q0 48 37.5 78.5t97.5 30.5t97.5 -30.5t37.5 -78.5q0 -63 -63 -87v-3q34 -9 53 -36.5t19 -63.5q0 -53 -40 -84t-104 -31zM179 180q-33 0 -54.5 -21t-21.5 -52q0 -29 21.5 -48.5t54.5 -19.5t54.5 19.5
t21.5 48.5q0 31 -21.5 52t-54.5 21zM179 353q-31 0 -49 -16.5t-18 -44.5t18.5 -45.5t48.5 -17.5t48.5 17.5t18.5 45.5t-18 44.5t-49 16.5z" />
    <glyph glyph-name="nine.dnom" horiz-adv-x="358" 
d="M102 103q8 -65 70 -65q39 0 60.5 39t21.5 105q-32 -36 -86 -36q-59 0 -96 34.5t-37 90.5q0 58 39 95t103 37q145 0 145 -200q0 -102 -38 -158t-112 -56q-63 0 -99 30.5t-38 83.5h67zM174 353q-31 0 -51.5 -23.5t-20.5 -57.5q0 -32 20.5 -55t49.5 -23q33 0 53.5 22
t20.5 55q0 35 -20.5 58.5t-51.5 23.5z" />
    <glyph glyph-name="space.frac" horiz-adv-x="40" 
 />
    <glyph glyph-name="space.tf" 
 />
    <glyph glyph-name="numbersign.tf" 
d="M329 204h-109l-58 -204h-72l58 204h-111l15 56h112l49 173h-114l15 56h115l56 194h73l-56 -194h109l57 194h71l-56 -194h110l-15 -56h-111l-50 -173h114l-15 -56h-115l-59 -204h-72zM236 260h109l50 173h-109z" />
    <glyph glyph-name="dollar.tf" 
d="M282 -101v94q-100 10 -157 69t-62 160h95q4 -64 36.5 -103t87.5 -47v234l-21 7q-41 13 -70 27t-57.5 36t-43 54t-14.5 73q0 78 58.5 129.5t152.5 57.5v82h62v-82q91 -8 146.5 -62t60.5 -145h-94q-5 55 -36.5 87t-76.5 40v-226l24 -8q45 -15 72 -27t59 -34.5t47.5 -55
t15.5 -76.5q0 -82 -60.5 -133.5t-162.5 -58.5v-92h-62zM171 509q0 -44 30 -69.5t86 -42.5v215q-49 -2 -82.5 -30t-33.5 -73zM469 177q0 81 -125 117v-223q58 2 91.5 30t33.5 76z" />
    <glyph glyph-name="percent.tf" 
d="M202 610q-53 0 -53 -77t53 -77t53 77t-53 77zM202 407q-52 0 -84.5 31t-32.5 95t32.5 95t84.5 31t84.5 -31t32.5 -95t-32.5 -95t-84.5 -31zM427 227q-53 0 -53 -77t53 -77t53 77t-53 77zM427 24q-52 0 -84.5 31t-32.5 95t32.5 95t84.5 31t84.5 -31t32.5 -95t-32.5 -95
t-84.5 -31zM160 24l-47 29l356 606l47 -29z" />
    <glyph glyph-name="comma.tf" 
d="M316 -138h-60l47 147h-47v110h117v-119z" />
    <glyph glyph-name="period.tf" 
d="M257 119h115v-119h-115v119z" />
    <glyph glyph-name="zero.tf" 
d="M314 698q117 0 183.5 -92.5t66.5 -263.5q0 -174 -66 -265.5t-184 -91.5q-117 0 -183 93t-66 264t66 263.5t183 92.5zM314 622q-151 0 -151 -280q0 -281 151 -281q75 0 113 72.5t38 208.5q0 280 -151 280z" />
    <glyph glyph-name="one.tf" 
d="M133 81h157v415h-151v65q85 5 122 31.5t44 90.5h77v-602h147v-81h-396v81z" />
    <glyph glyph-name="two.tf" 
d="M86 0v29q0 106 54 173q47 59 152 123q85 52 118.5 91t33.5 90q0 55 -34.5 85.5t-92.5 30.5q-132 0 -138 -156h-94q2 109 67.5 170.5t173.5 61.5q98 0 156.5 -55t58.5 -142q0 -67 -41.5 -120t-140.5 -116q-97 -61 -129 -97q-34 -37 -40 -87h354v-81h-458z" />
    <glyph glyph-name="three.tf" 
d="M164 216q0 -73 39.5 -114t108.5 -41q63 0 104 36t41 92q0 57 -40 89t-110 32h-33v77h23q73 0 112.5 31t39.5 87q0 54 -37 85.5t-99 31.5q-66 0 -103.5 -37.5t-39.5 -107.5h-95q4 105 68.5 163t175.5 58q101 0 163.5 -51.5t62.5 -133.5q0 -56 -35 -101t-89 -58v-5
q65 -16 99.5 -58.5t34.5 -107.5q0 -87 -70 -142.5t-177 -55.5q-111 0 -176 62.5t-65 168.5h97z" />
    <glyph glyph-name="four.tf" 
d="M578 173h-123v-173h-93v173h-313v76l299 434h107v-431h123v-79zM147 252h220v135q0 124 4 191l-6 1q-26 -47 -66 -105z" />
    <glyph glyph-name="five.tf" 
d="M123 683h394v-80h-317l-23 -217q36 38 72 55t86 17q98 0 161 -65.5t63 -166.5q0 -105 -69 -173t-176 -68q-98 0 -161.5 53t-76.5 144h96q7 -56 45 -88.5t96 -32.5q67 0 107.5 43.5t40.5 116.5q0 71 -40 116t-104 45q-104 0 -134 -95l-98 9z" />
    <glyph glyph-name="six.tf" 
d="M453 510q-12 112 -121 112q-77 0 -121 -68t-44 -183v-25q58 101 175 101q90 0 153 -61t63 -164q0 -109 -68.5 -173t-173.5 -64q-117 0 -180 91t-63 256q0 172 68 269t191 97q94 0 151.5 -49.5t67.5 -138.5h-98zM329 371q-63 0 -104.5 -43t-41.5 -108q0 -70 41.5 -115
t104.5 -45q60 0 97 44.5t37 113.5t-36 111t-98 42z" />
    <glyph glyph-name="seven.tf" 
d="M199 0q54 265 246 602h-360v81h462v-69q-191 -334 -245 -614h-103z" />
    <glyph glyph-name="eight.tf" 
d="M315 -15q-109 0 -177.5 55.5t-68.5 141.5q0 136 143 170v5q-59 13 -91.5 54.5t-32.5 100.5q0 83 62.5 134.5t164.5 51.5t164 -51.5t62 -134.5q0 -59 -32 -100.5t-92 -54.5v-5q144 -33 144 -170q0 -86 -69 -141.5t-177 -55.5zM315 59q66 0 106.5 36.5t40.5 92.5
q0 58 -40 92.5t-107 34.5t-107.5 -34.5t-40.5 -92.5q0 -56 41 -92.5t107 -36.5zM315 392q60 0 97 31.5t37 84.5q0 52 -36.5 84t-97.5 32t-98 -32t-37 -84q0 -53 37.5 -84.5t97.5 -31.5z" />
    <glyph glyph-name="nine.tf" 
d="M172 171q7 -53 42 -81.5t89 -28.5q76 0 115.5 65.5t39.5 184.5v39q-54 -94 -167 -94q-98 0 -159 60t-61 160q0 96 68.5 159t168.5 63q120 0 183 -90t63 -256q0 -176 -64 -271.5t-184 -95.5q-97 0 -158.5 49.5t-70.5 136.5h95zM301 623q-61 0 -100 -41.5t-39 -105.5
q0 -62 38.5 -103.5t97.5 -41.5q62 0 103 41t41 102q0 65 -40.5 107t-100.5 42z" />
    <glyph glyph-name="colon.tf" 
d="M257 119h115v-119h-115v119zM257 516h115v-119h-115v119z" />
    <glyph glyph-name="semicolon.tf" 
d="M316 -138h-60l47 147h-47v110h117v-119zM258 516h115v-119h-115v119z" />
    <glyph glyph-name="cent.tf" 
d="M301 -15v109q-99 8 -155 81.5t-56 190.5q0 113 56.5 188t154.5 84v103h64v-103q75 -7 124.5 -55t60.5 -128h-94q-16 91 -91 106v-391q75 16 98 111h88q-30 -173 -186 -187v-109h-64zM184 366q0 -81 31.5 -133t85.5 -62v390q-54 -10 -85.5 -62t-31.5 -133z" />
    <glyph glyph-name="sterling.tf" 
d="M66 76q54 7 73 40.5t19 114.5v89h-111v79h111v28q0 135 52 203.5t166 68.5q95 0 146.5 -46.5t51.5 -135.5h-96q0 107 -101 107q-74 0 -99.5 -49t-25.5 -152v-24h144v-79h-144v-79q0 -70 -14 -105.5t-50 -55.5v-6q106 6 150 6h236v-80h-508v76z" />
    <glyph glyph-name="currency.tf" 
d="M314 495q71 0 115 -39l72 72l45 -44l-79 -68q35 -44 35 -112q0 -73 -35 -117l75 -70l-44 -43l-70 73q-43 -40 -116 -40q-71 0 -115 38l-68 -71l-42 43l72 66q-37 48 -37 116q0 71 39 117l-76 68l44 44l69 -72q49 39 116 39zM313 435q-55 0 -88 -39t-33 -96
q0 -64 37 -98.5t83 -34.5q47 0 83 34t36 102q0 54 -31.5 93t-86.5 39z" />
    <glyph glyph-name="yen.tf" 
d="M97 379h125l-186 304h109l170 -297l175 297h104l-190 -304h125v-71h-168v-76h168v-71h-168v-161h-96v161h-168v71h168v76h-168v71z" />
    <glyph glyph-name="section.tf" 
d="M458 128q32 -33 41 -53.5t9 -48.5q0 -65 -55.5 -105.5t-143.5 -40.5q-94 0 -149 44.5t-60 124.5h96q6 -103 110 -103q45 0 73.5 22.5t28.5 58.5q0 17 -8.5 32.5t-19.5 25.5t-32.5 21.5t-35 17l-40.5 16.5q-44 18 -67.5 29t-56.5 34t-48.5 53.5t-15.5 69.5q0 93 94 133
q-47 46 -47 97q0 62 54.5 102t137.5 40q89 0 143 -45.5t55 -123.5h-89q-6 103 -104 103q-46 0 -73 -20.5t-27 -55.5t26 -57t104 -56q104 -44 145 -82.5t41 -107.5q0 -87 -86 -125zM410 163q45 37 45 81q0 45 -24 67.5t-88 52.5l-120 55q-47 -35 -47 -83q0 -71 98 -114z" />
    <glyph glyph-name="florin.tf" 
d="M141 -159q-38 0 -77 12v80q32 -12 57 -12q45 0 68.5 32.5t37.5 101.5l46 232h-114v77h124l29 154q33 179 174 179q32 0 76 -11v-77q-30 13 -57 13q-45 0 -68 -34.5t-35 -104.5l-21 -119h121v-77h-133l-48 -263q-16 -86 -61.5 -134.5t-118.5 -48.5z" />
    <glyph glyph-name="uni2007.tf" 
 />
    <glyph glyph-name="uni2008.tf" 
 />
    <glyph glyph-name="perthousand.tf" 
d="M467 -8q-63 0 -90 43q-27 -43 -90 -43q-52 0 -84.5 31t-32.5 95t32.5 95t84.5 31q63 0 90 -44q27 44 90 44q52 0 84.5 -31t32.5 -95t-32.5 -95t-84.5 -31zM193 407q-52 0 -84.5 31t-32.5 95t32.5 95t84.5 31t84.5 -31t32.5 -95t-32.5 -95t-84.5 -31zM48 169l-28 46
l544 312l28 -46zM467 195q-53 0 -53 -77t53 -77t53 77t-53 77zM193 610q-53 0 -53 -77t53 -77t53 77t-53 77zM287 195q-53 0 -53 -77t53 -77t53 77t-53 77z" />
    <glyph glyph-name="colonmonetary.tf" 
d="M412 772h66l-12 -108q111 -56 127 -207h-91q-12 75 -47 112l-54 -497q83 30 103 153h92q-16 -95 -67.5 -158t-136.5 -77l-10 -90h-66l9 86q-36 1 -69 9l-10 -95h-66l13 120q-73 42 -110 126t-37 193q0 133 56.5 227.5t163.5 118.5l10 87h66l-9 -79h4q30 0 65 -7zM265 76
q33 -14 69 -14l60 546q-27 8 -57 8q-2 0 -6 -0.5t-6 -0.5zM138 339q0 -144 66 -218l53 477q-58 -28 -88.5 -95t-30.5 -164z" />
    <glyph glyph-name="uni20A6.tf" 
d="M605 293v-67h-66v-226h-132l-89 226h-139v-226h-88v226h-66v67h66v85h-66v67h66v238h132l94 -238h134v238h88v-238h66v-67h-66v-85h66zM179 317v-24h113l-33 85h-80v-61zM451 293v81v4h-108l34 -85h74zM175 585q0 -48 2 -140h56l-54 140h-4zM455 105l-2 121h-50l48 -121
h4z" />
    <glyph glyph-name="Euro.tf" 
d="M24 439h67q20 117 87 185.5t183 68.5q108 0 169.5 -58t72.5 -158h-91q-12 71 -48 105t-103 34q-73 0 -117.5 -46t-59.5 -131h266l-6 -64h-267q-1 -12 -1 -36q0 -28 1 -41h256l-6 -64h-243q32 -172 173 -172q64 0 98.5 34.5t51.5 102.5h92q-48 -214 -242 -214
q-117 0 -182 66.5t-83 182.5h-74l6 64h61q-1 13 -1 41q0 24 1 36h-67z" />
    <glyph glyph-name="uni20B2.tf" 
d="M483 492q-16 62 -47.5 90.5t-83.5 33.5v-256h223v-360h-80l-4 79q-43 -72 -139 -85v-95h-66v93q-125 9 -184 102t-59 251q0 145 63.5 236.5t179.5 107.5v83h66v-81q90 -5 146 -53t81 -146h-96zM143 345q0 -117 35.5 -189.5t107.5 -86.5v543q-143 -33 -143 -267zM483 284
h-131v-215q61 12 96 65t35 131v19z" />
    <glyph glyph-name="uni20B4.tf" 
d="M353 333l-51 -31h258v-66h-332q-33 -36 -33 -81q0 -47 33.5 -73t87.5 -26q119 0 137 125h93q-12 -94 -71 -145t-155 -51t-156 42t-60 120q0 46 30 89h-68v66h133q3 2 90 57l37 23h-260v66h334q34 39 34 79q0 45 -30.5 72.5t-81.5 27.5q-108 0 -123 -121h-91
q12 95 70 143.5t147 48.5q91 0 144.5 -44.5t53.5 -119.5q0 -43 -28 -86h65v-66h-132q-27 -20 -75 -49z" />
    <glyph glyph-name="uni20B5.tf" 
d="M300 772h66v-80q101 -9 159 -72t68 -163h-91q-23 143 -136 157v-550q111 14 138 161h92q-16 -102 -74 -166t-156 -73v-87h-66v88q-125 14 -189.5 110.5t-64.5 241.5q0 144 65.5 241t188.5 111v81zM142 339q0 -114 41 -186t117 -88v548q-76 -15 -117 -87t-41 -187z" />
    <glyph glyph-name="uni20B8.tf" 
d="M37 533h556v-75h-229v-458h-98v458h-229v75zM37 683h556v-75h-556v75z" />
    <glyph glyph-name="uni20B9.tf" 
d="M61 521h323q-16 52 -65 70t-121 18h-141v74h512v-70h-140q42 -32 53 -92h84v-70h-85q-11 -50 -52.5 -87t-101.5 -47v-3q92 -7 122 -96l76 -218h-105l-65 191q-18 53 -59.5 71t-111.5 18h-71v75h77q36 0 63.5 3t59 12t51 29.5t25.5 51.5h-328v70z" />
    <glyph glyph-name="uni20BA.tf" 
d="M61 352v70l84 49v212h98v-154l169 99v-71l-169 -99v-73l169 99v-71l-169 -99v-236h26q96 0 164 62.5t68 183.5h90q0 -146 -86.5 -235t-235.5 -89h-124v257l-84 -49v70l84 49v74z" />
    <glyph glyph-name="uni20BD.tf" 
d="M54 369h65v314h236q243 0 243 -195q0 -101 -65 -148t-178 -47h-138v-75h251v-76h-251v-142h-98v142h-65v76h65v75h-65v76zM217 603v-234h126q157 0 157 119q0 115 -157 115h-126z" />
    <glyph glyph-name="uni20BF.tf" 
d="M102 683h88v88h62v-88h4q57 0 102 -4v92h62v-103q124 -34 124 -162q0 -53 -32.5 -95t-91.5 -57v-4q64 -12 104 -52.5t40 -107.5q0 -134 -144 -173v-118h-62v106q-42 -5 -102 -5h-4v-101h-62v101h-88v683zM256 76q39 0 65 1.5t55.5 8t47 18.5t29 33.5t11.5 52.5
q0 72 -41.5 96t-158.5 24h-66v-234h58zM260 386q87 0 137.5 23.5t50.5 85.5q0 31 -10.5 52t-26.5 32.5t-44 18t-52.5 8t-62.5 1.5h-54v-221h62z" />
    <glyph glyph-name="parenleft.case" horiz-adv-x="276" 
d="M170 -60q-123 222 -123 428q0 175 124 418h71q-58 -134 -83.5 -223t-25.5 -195q0 -201 109 -428h-72z" />
    <glyph glyph-name="parenright.case" horiz-adv-x="276" 
d="M34 -60q109 227 109 428q0 106 -25.5 195t-83.5 223h71q124 -243 124 -418q0 -206 -123 -428h-72z" />
    <glyph glyph-name="hyphen.case" horiz-adv-x="395" 
d="M65 403h265v-81h-265v81z" />
    <glyph glyph-name="bracketleft.case" horiz-adv-x="312" 
d="M87 -53v831h197v-59h-110v-713h110v-59h-197z" />
    <glyph glyph-name="bracketright.case" horiz-adv-x="312" 
d="M28 -53v59h110v713h-110v59h197v-831h-197z" />
    <glyph glyph-name="braceleft.case" horiz-adv-x="340" 
d="M208 116q0 -53 19.5 -88t60.5 -35q12 0 25 3v-55q-20 -2 -34 -2q-152 0 -152 166v90q0 131 -99 143v53q52 8 75.5 42.5t23.5 101.5v70q0 102 37.5 142t121.5 40q3 0 13 -0.5t14 -0.5v-53q-6 1 -19 1q-28 0 -46 -10t-26 -30.5t-11 -42.5t-3 -56v-47q0 -90 -26 -133
t-98 -50q76 -11 100 -54t24 -131v-64z" />
    <glyph glyph-name="braceright.case" horiz-adv-x="340" 
d="M132 180q0 88 24 131t100 54q-72 7 -98 50t-26 133v47q0 34 -3 56t-11 42.5t-26 30.5t-46 10q-13 0 -19 -1v53q4 0 14 0.5t13 0.5q84 0 121.5 -40t37.5 -142v-70q0 -67 24 -101.5t75 -42.5v-53q-99 -12 -99 -143v-90q0 -166 -152 -166q-14 0 -34 2v55q13 -3 26 -3
q40 0 59.5 35t19.5 88v64z" />
    <glyph glyph-name="guillemotleft.case" horiz-adv-x="461" 
d="M233 564l-93 -203l93 -199h-90l-103 199l103 203h90zM413 564l-94 -203l94 -199h-91l-102 199l102 203h91z" />
    <glyph glyph-name="uni00AD.case" horiz-adv-x="377" 
d="M56 403h265v-81h-265v81z" />
    <glyph glyph-name="guillemotright.case" horiz-adv-x="459" 
d="M317 564l103 -203l-103 -199h-90l93 199l-93 203h90zM139 564l102 -203l-102 -199h-91l94 199l-94 203h91z" />
    <glyph glyph-name="gravecomb.case" horiz-adv-x="0" 
d="M-228 791l-125 114h111l96 -114h-82z" />
    <glyph glyph-name="acutecomb.case" horiz-adv-x="0" 
d="M-354 791l96 114h111l-126 -114h-81z" />
    <glyph glyph-name="uni0302.case" horiz-adv-x="0" 
d="M-402 791l96 114h114l95 -114h-88l-65 75l-66 -75h-86z" />
    <glyph glyph-name="tildecomb.case" horiz-adv-x="0" 
d="M-405 796q6 50 29.5 78.5t62.5 28.5q20 0 67.5 -20t66.5 -20q32 0 41 38h54q-6 -50 -29.5 -78.5t-62.5 -28.5q-20 0 -67.5 20t-66.5 20q-33 0 -41 -38h-54z" />
    <glyph glyph-name="uni0304.case" horiz-adv-x="0" 
d="M-383 809v70h266v-70h-266z" />
    <glyph glyph-name="uni0306.case" horiz-adv-x="0" 
d="M-248 784q-66 0 -104.5 34t-41.5 86h82q7 -60 64 -60t64 60h82q-3 -52 -41.5 -86t-104.5 -34z" />
    <glyph glyph-name="uni0306.cyrl_dflt.case" horiz-adv-x="0" 
d="M-248 767q-71 0 -110.5 37.5t-42.5 100.5h81q4 -40 20.5 -59t51.5 -19q34 0 50 19t20 59h81q-3 -63 -42 -100.5t-109 -37.5z" />
    <glyph glyph-name="uni0307.case" horiz-adv-x="0" 
d="M-297 798v100h94v-100h-94z" />
    <glyph glyph-name="uni0308.case" horiz-adv-x="0" 
d="M-196 795v105h90v-105h-90zM-394 795v105h90v-105h-90z" />
    <glyph glyph-name="uni030A.case" horiz-adv-x="0" 
d="M-250 723q-51 0 -81 31t-30 73t30 73.5t81 31.5t81 -31t30 -74q0 -42 -30 -73t-81 -31zM-250 768q30 0 44.5 17t14.5 42t-15 42t-44 17q-28 0 -43 -17t-15 -42q0 -24 15 -41.5t43 -17.5z" />
    <glyph glyph-name="uni030B.case" horiz-adv-x="0" 
d="M-241 791l99 114h105l-126 -114h-78zM-427 791l85 114h104l-115 -114h-74z" />
    <glyph glyph-name="uni030C.case" horiz-adv-x="0" 
d="M-307 791l-95 114h88l65 -75l66 75h86l-96 -114h-114z" />
    <glyph glyph-name="dotbelowcomb.case" horiz-adv-x="0" 
d="M-297 -172v100h94v-100h-94z" />
    <glyph glyph-name="uni0326.case" horiz-adv-x="0" 
d="M-300 -254l38 98h-40v93h101v-91l-48 -100h-51z" />
    <glyph glyph-name="uni0327.case" horiz-adv-x="0" 
d="M-245 -205q-30 0 -44 5v53q12 -3 23 -3q59 0 59 40q0 17 -11 29t-33 12q-12 0 -18 -1v100h66v-61q31 -1 48.5 -26t17.5 -56q0 -38 -28.5 -65t-79.5 -27z" />
    <glyph glyph-name="uni0328.case" horiz-adv-x="0" 
d="M-241 -205q-46 0 -77.5 27t-31.5 69q0 65 91 130l67 -21q-84 -45 -84 -96q0 -19 13 -31t37 -12q18 0 34 6v-65q-18 -7 -49 -7z" />
    <glyph glyph-name="uni032E.case" horiz-adv-x="0" 
d="M-248 -186q-67 0 -105 35.5t-39 93.5h80q6 -69 64 -69t64 69h80q-1 -58 -39 -93.5t-105 -35.5z" />
    <glyph glyph-name="uni0331.case" horiz-adv-x="0" 
d="M-382 -157v70h264v-70h-264z" />
    <glyph glyph-name="endash.case" horiz-adv-x="573" 
d="M67 399h439v-72h-439v72z" />
    <glyph glyph-name="emdash.case" horiz-adv-x="825" 
d="M67 399h691v-72h-691v72z" />
    <glyph glyph-name="uni2015.case" horiz-adv-x="825" 
d="M67 399h691v-72h-691v72z" />
    <glyph glyph-name="guilsinglleft.case" horiz-adv-x="284" 
d="M40 364l103 200h93l-93 -200l93 -202h-93z" />
    <glyph glyph-name="guilsinglright.case" horiz-adv-x="283" 
d="M244 361l-103 -199h-93l93 199l-93 203h93z" />
    <glyph glyph-name="zero.tf.zero" 
d="M314 698q117 0 183.5 -92.5t66.5 -263.5q0 -174 -66 -265.5t-184 -91.5q-117 0 -183 93t-66 264t66 263.5t183 92.5zM314 622q-151 0 -151 -280q0 -96 18 -161l233 390q-37 51 -100 51zM465 342q0 90 -17 155l-233 -387q37 -49 99 -49q75 0 113 72.5t38 208.5z" />
    <glyph glyph-name="zero.zero" horiz-adv-x="602" 
d="M300 698q117 0 183.5 -92.5t66.5 -263.5q0 -174 -66 -265.5t-184 -91.5q-117 0 -183 93t-66 264t66 263.5t183 92.5zM300 622q-151 0 -151 -280q0 -96 18 -161l233 390q-37 51 -100 51zM451 342q0 90 -17 155l-233 -387q37 -49 99 -49q75 0 113 72.5t38 208.5z" />
    <glyph glyph-name="cedilla.ss01" horiz-adv-x="568" 
d="M237 -253l35 98h-36v91h95v-91l-46 -98h-48z" />
    <glyph glyph-name="Ccedilla.ss01" horiz-adv-x="700" 
d="M375 -15q-104 0 -179.5 51t-112 135.5t-36.5 191.5q0 163 87 270.5t239 107.5q124 0 202.5 -70t89.5 -182h-101q-13 83 -62.5 128.5t-128.5 45.5q-101 0 -162.5 -82.5t-61.5 -217.5t62.5 -217.5t163.5 -82.5q77 0 127 47.5t64 130.5h102q-18 -113 -96 -184.5t-197 -71.5z
M316 -254l38 98h-40v93h101v-91l-48 -100h-51z" />
    <glyph glyph-name="ccedilla.ss01" horiz-adv-x="531" 
d="M281 -15q-115 0 -178 74t-63 199q0 120 65 196.5t178 76.5q92 0 148.5 -48t68.5 -136h-96q-17 110 -122 110q-70 0 -108 -54t-38 -145t38.5 -145.5t107.5 -54.5q105 0 129 115h90q-33 -188 -220 -188zM242 -253l35 98h-36v91h95v-91l-46 -98h-48z" />
    <glyph glyph-name="Scedilla.ss01" horiz-adv-x="623" 
d="M315 -15q-129 0 -201.5 66t-72.5 187h99q0 -85 45 -130t130 -45q76 0 119.5 34t43.5 91q0 26 -11.5 47.5t-26 34.5t-43.5 25.5t-49 18.5t-58 16q-43 12 -69 20.5t-62 26t-55.5 38t-34 53t-14.5 74.5q0 88 72 143.5t185 55.5q119 0 187 -61.5t68 -169.5h-96q0 75 -47 114
t-114 39q-62 0 -107 -30t-45 -85q0 -26 10.5 -46t23.5 -32.5t41.5 -25t47 -18t56.5 -16.5q45 -12 71 -20.5t64 -27t58.5 -39t36 -54t15.5 -75.5q0 -94 -74 -151.5t-193 -57.5zM266 -254l38 98h-40v93h101v-91l-48 -100h-51z" />
    <glyph glyph-name="scedilla.ss01" horiz-adv-x="505" 
d="M260 -15q-107 0 -165.5 47.5t-59.5 133.5h93q0 -54 35 -82t99 -28q53 0 81.5 20t28.5 57q0 18 -8 32t-18 22.5t-30.5 15.5t-35 10.5t-41.5 8.5q-29 6 -39.5 8t-37 9t-37.5 13t-29.5 18.5t-27 27t-15 36t-6.5 47.5q0 66 55.5 108t146.5 42q98 0 151.5 -44.5t54.5 -128.5
h-91q-1 101 -117 101q-47 0 -75.5 -19.5t-28.5 -52.5q0 -39 31.5 -55.5t95.5 -28.5q30 -6 41 -8t38 -9.5t39 -14.5t31.5 -19.5t28 -27.5t15.5 -36.5t7 -48.5q0 -69 -59 -111.5t-151 -42.5zM212 -253l35 98h-36v91h95v-91l-46 -98h-48z" />
    <glyph glyph-name="uni0162.ss01" horiz-adv-x="599" 
d="M250 0v645h-239v81h577v-81h-239v-645h-99zM251 -254l38 98h-40v93h101v-91l-48 -100h-51z" />
    <glyph glyph-name="uni0163.ss01" horiz-adv-x="333" 
d="M238 -9q-64 0 -97 34t-33 115v300h-95v76h95v125h92v-125h112v-76h-112v-257q0 -63 10.5 -88.5t51.5 -25.5q31 0 52 5v-74q-40 -9 -76 -9zM177 -253l35 98h-36v91h95v-91l-46 -98h-48z" />
    <glyph glyph-name="uni0327.case.ss01" horiz-adv-x="0" 
d="M-300 -254l38 98h-40v93h101v-91l-48 -100h-51z" />
    <glyph glyph-name="uni0327.ss01" horiz-adv-x="0" 
d="M-297 -253l35 98h-36v91h95v-91l-46 -98h-48z" />
    <glyph glyph-name="R.ss02" horiz-adv-x="641" 
d="M602 0h-106l-154 300h-157v-300h-98v726h226q91 0 141 -15q136 -41 136 -198q0 -81 -38.5 -133t-111.5 -69zM279 380q69 0 103 6q108 21 108 127t-108 127q-32 6 -103 6h-94v-266h94z" />
    <glyph glyph-name="Racute.ss02" horiz-adv-x="641" 
d="M602 0h-106l-154 300h-157v-300h-98v726h226q91 0 141 -15q136 -41 136 -198q0 -81 -38.5 -133t-111.5 -69zM279 380q69 0 103 6q108 21 108 127t-108 127q-32 6 -103 6h-94v-266h94zM257 791l96 114h111l-126 -114h-81z" />
    <glyph glyph-name="uni0156.ss02" horiz-adv-x="641" 
d="M602 0h-106l-154 300h-157v-300h-98v726h226q91 0 141 -15q136 -41 136 -198q0 -81 -38.5 -133t-111.5 -69zM279 380q69 0 103 6q108 21 108 127t-108 127q-32 6 -103 6h-94v-266h94zM292 -254l38 98h-40v93h101v-91l-48 -100h-51z" />
    <glyph glyph-name="Rcaron.ss02" horiz-adv-x="641" 
d="M602 0h-106l-154 300h-157v-300h-98v726h226q91 0 141 -15q136 -41 136 -198q0 -81 -38.5 -133t-111.5 -69zM279 380q69 0 103 6q108 21 108 127t-108 127q-32 6 -103 6h-94v-266h94zM249 791l-95 114h88l65 -75l66 75h86l-96 -114h-114z" />
    <glyph glyph-name="uni1E5A.ss02" horiz-adv-x="641" 
d="M602 0h-106l-154 300h-157v-300h-98v726h226q91 0 141 -15q136 -41 136 -198q0 -81 -38.5 -133t-111.5 -69zM279 380q69 0 103 6q108 21 108 127t-108 127q-32 6 -103 6h-94v-266h94zM295 -172v100h94v-100h-94z" />
    <glyph glyph-name="uni1E5C.ss02" horiz-adv-x="641" 
d="M602 0h-106l-154 300h-157v-300h-98v726h226q91 0 141 -15q136 -41 136 -198q0 -81 -38.5 -133t-111.5 -69zM279 380q69 0 103 6q108 21 108 127t-108 127q-32 6 -103 6h-94v-266h94zM295 -172v100h94v-100h-94zM183 809v70h266v-70h-266z" />
    <glyph glyph-name="uni1E5E.ss02" horiz-adv-x="641" 
d="M602 0h-106l-154 300h-157v-300h-98v726h226q91 0 141 -15q136 -41 136 -198q0 -81 -38.5 -133t-111.5 -69zM279 380q69 0 103 6q108 21 108 127t-108 127q-32 6 -103 6h-94v-266h94zM210 -157v70h264v-70h-264z" />
    <glyph glyph-name="quotedbl.ss03" horiz-adv-x="378" 
d="M44 726h120l-28 -285h-63zM214 726h120l-28 -285h-63z" />
    <glyph glyph-name="numbersign.ss03" horiz-adv-x="608" 
d="M321 228h-109l-61 -228h-72l61 228h-114l15 56h114l45 168h-112l15 56h112l59 218h73l-59 -218h109l60 218h71l-60 -218h114l-15 -56h-114l-45 -168h112l-15 -56h-112l-62 -228h-72zM227 284h109l46 168h-109z" />
    <glyph glyph-name="numbersign.tf.ss03" 
d="M332 228h-109l-61 -228h-72l61 228h-114l15 56h114l45 168h-112l15 56h112l59 218h73l-59 -218h109l60 218h71l-60 -218h114l-15 -56h-114l-45 -168h112l-15 -56h-112l-62 -228h-72zM238 284h109l46 168h-109z" />
    <glyph glyph-name="dollar.ss03" horiz-adv-x="575" 
d="M145 546q0 -48 29.5 -75t84.5 -44v230q-48 -4 -81 -34t-33 -77zM439 187q0 99 -123 138v-254q56 3 89.5 35.5t33.5 80.5zM254 -101v94q-100 10 -157 69t-61 159h96q4 -63 36 -102t86 -47v265l-21 7q-41 14 -69.5 28.5t-57.5 37.5t-43.5 56t-14.5 76q0 80 58.5 133.5
t152.5 59.5v81h62v-81q91 -8 146.5 -62.5t60.5 -145.5h-94q-4 54 -36 87.5t-77 40.5v-240l24 -9q36 -13 57.5 -22.5t50.5 -28t45.5 -38.5t28.5 -52t12 -71q0 -86 -60.5 -141t-162.5 -61v-93h-62z" />
    <glyph glyph-name="dollar.tf.ss03" 
d="M173 546q0 -48 29.5 -75t84.5 -44v230q-48 -4 -81 -34t-33 -77zM467 187q0 99 -123 138v-254q56 3 89.5 35.5t33.5 80.5zM282 -101v94q-100 10 -157 69t-61 159h96q4 -63 36 -102t86 -47v265l-21 7q-41 14 -69.5 28.5t-57.5 37.5t-43.5 56t-14.5 76q0 80 58.5 133.5
t152.5 59.5v81h62v-81q91 -8 146.5 -62.5t60.5 -145.5h-94q-4 54 -36 87.5t-77 40.5v-240l24 -9q36 -13 57.5 -22.5t50.5 -28t45.5 -38.5t28.5 -52t12 -71q0 -86 -60.5 -141t-162.5 -61v-93h-62z" />
    <glyph glyph-name="percent.ss03" horiz-adv-x="803" 
d="M555 740h65l-369 -754h-64zM621 403q72 0 113 -55.5t41 -154.5q0 -98 -43 -151t-114 -53t-112 53t-41 151t43 154t113 56zM621 353q-39 0 -60 -42t-21 -118q0 -74 21 -114.5t60 -40.5t59.5 40.5t20.5 114.5q0 76 -20.5 118t-59.5 42zM184 737q72 0 112.5 -55t40.5 -155
q0 -98 -43 -151t-113 -53q-71 0 -112 53t-41 151t43 154t113 56zM184 688q-40 0 -61 -42.5t-21 -118.5q0 -74 21 -114.5t61 -40.5q38 0 59 40.5t21 114.5q0 75 -21 118t-59 43z" />
    <glyph glyph-name="percent.tf.ss03" 
d="M203 649q-53 0 -53 -77t53 -77t53 77t-53 77zM203 446q-52 0 -84.5 31t-32.5 95t32.5 95t84.5 31t84.5 -31t32.5 -95t-32.5 -95t-84.5 -31zM428 227q-53 0 -53 -77t53 -77t53 77t-53 77zM428 24q-52 0 -84.5 31t-32.5 95t32.5 95t84.5 31t84.5 -31t32.5 -95t-32.5 -95
t-84.5 -31zM161 24l-47 29l356 645l47 -29z" />
    <glyph glyph-name="quotesingle.ss03" horiz-adv-x="208" 
d="M44 726h120l-28 -285h-63z" />
    <glyph glyph-name="zero.numr.ss03" horiz-adv-x="379" 
d="M191 737q72 0 112.5 -55t40.5 -155q0 -98 -43 -151t-113 -53q-71 0 -112 53t-41 151t43 154t113 56zM191 687q-40 0 -61 -42t-21 -118q0 -74 21 -114.5t61 -40.5q38 0 59 40.5t21 114.5q0 75 -21 117.5t-59 42.5z" />
    <glyph glyph-name="zero.ss03" horiz-adv-x="602" 
d="M300 741q117 0 183.5 -98t66.5 -280q0 -185 -66 -281.5t-184 -96.5q-117 0 -183 98t-66 280t66 280t183 98zM300 665q-151 0 -151 -302t151 -302t151 302t-151 302z" />
    <glyph glyph-name="zero.tf.ss03" 
d="M314 741q117 0 183.5 -98t66.5 -280q0 -185 -66 -281.5t-184 -96.5q-117 0 -183 98t-66 280t66 280t183 98zM314 665q-151 0 -151 -302t151 -302t151 302t-151 302z" />
    <glyph glyph-name="zero.tf.zero.ss03" horiz-adv-x="593" 
d="M296 741q117 0 183.5 -98t66.5 -280q0 -185 -66 -281.5t-184 -96.5q-117 0 -183 98t-66 280t66 280t183 98zM296 665q-151 0 -151 -302q0 -107 19 -176l233 423q-38 55 -101 55zM447 363q0 103 -18 171l-232 -421q37 -52 99 -52q151 0 151 302z" />
    </font>
</defs>
</svg>
